<?xml version="1.0" encoding="UTF-8" standalone="no"?>
<!-- Created with Inkscape (http://www.inkscape.org/) -->

<svg
   width="420"
   height="189"
   viewBox="0 0 111.125 50.006249"
   version="1.1"
   id="svg281618"
   inkscape:version="1.2.2 (732a01da63, 2022-12-09)"
   sodipodi:docname="africacdc_logo.svg"
   xmlns:inkscape="http://www.inkscape.org/namespaces/inkscape"
   xmlns:sodipodi="http://sodipodi.sourceforge.net/DTD/sodipodi-0.dtd"
   xmlns="http://www.w3.org/2000/svg"
   xmlns:svg="http://www.w3.org/2000/svg">
  <sodipodi:namedview
     id="namedview281620"
     pagecolor="#ffffff"
     bordercolor="#000000"
     borderopacity="0.25"
     inkscape:showpageshadow="2"
     inkscape:pageopacity="0.0"
     inkscape:pagecheckerboard="0"
     inkscape:deskcolor="#d1d1d1"
     inkscape:document-units="mm"
     showgrid="false"
     showguides="true"
     inkscape:zoom="1.6819304"
     inkscape:cx="112.66816"
     inkscape:cy="127.23475"
     inkscape:window-width="1920"
     inkscape:window-height="1111"
     inkscape:window-x="-9"
     inkscape:window-y="1116"
     inkscape:window-maximized="1"
     inkscape:current-layer="g8125">
    <sodipodi:guide
       position="-12.899364,25.135416"
       orientation="0,1"
       id="guide282174"
       inkscape:locked="false"
       inkscape:label=""
       inkscape:color="rgb(0,134,229)" />
  </sodipodi:namedview>
  <defs
     id="defs281615" />
  <g
     inkscape:label="Layer 1"
     inkscape:groupmode="layer"
     id="layer1"
     transform="translate(46.393177,89.971521)">
    <g
       id="g8125"
       transform="matrix(0.35277777,0,0,0.35277777,-203.4537,-177.97171)">
      <g
         id="g282172"
         transform="translate(25.991786,22.742717)">
        <path
           fill-rule="nonzero"
           fill="#ae9f56"
           fill-opacity="1"
           d="m 702.91797,276.63281 c -0.0547,-0.75781 -0.2461,-1.01562 -1.00781,-0.57422 -0.4375,0.25782 -0.97657,0.34375 -1.48047,0.46875 -1.20703,0.30469 -2.51563,0.38282 -3.60157,0.91797 -1.35156,0.66797 -1.76562,-0.51172 -2.58593,-0.91797 -0.72266,-0.35156 0.16797,-0.49609 0.0898,-0.78125 -0.0547,-0.1914 -0.0742,-0.40625 -0.23437,-0.51562 -1.02735,-0.73047 -1.72266,-1.87891 -2.94922,-2.34375 -0.98828,-0.375 -1.60938,-1.03516 -1.84375,-2.07422 -0.16016,-0.71875 -0.46094,-1.39453 -1.16016,-1.71875 -0.72266,-0.33984 -0.94531,-0.92188 -1.00781,-1.63281 -0.0781,-0.82032 -0.22656,-1.70313 -0.79688,-2.25 -0.71484,-0.69141 -1.27734,-1.3711 -1.73047,-2.29688 -0.51171,-1.05078 -1.98828,-3.10156 -2.0664,-3.57031 -0.0781,-0.46875 0.46875,-0.3125 0.63672,-0.60156 0.52343,-0.91407 0.10937,-1.80078 -0.32032,-2.6875 -0.33984,-0.70313 -0.80468,-0.4336 -1.29296,-0.40235 -0.25,0.0156 -0.55469,0.0156 -0.75391,-0.11328 -0.69531,-0.4375 -1.50781,-0.35156 -2.05859,-0.0273 -1.16407,0.6875 -2.24219,0.33984 -3.375,0.125 -0.44532,-0.082 -0.94532,-0.0234 -1.33985,-0.20703 -0.92578,-0.4336 -2.01172,-0.32813 -2.88281,-0.99219 -0.60547,-0.46094 -1.36719,-0.34766 -2.02734,0.0391 -0.53516,0.3086 -0.84766,0.6836 -0.67969,1.42969 0.16797,0.72656 -0.71094,1.29687 -1.34766,0.89844 -0.66015,-0.40625 -1.38281,-0.55078 -2.09765,-0.75782 -0.41016,-0.11718 -0.88282,-0.19531 -1.05469,-0.61718 -0.26953,-0.64453 -0.82422,-0.77735 -1.38672,-0.92969 -1.14453,-0.30469 -2.35547,-0.27734 -3.39844,-1.03906 -0.57812,-0.42578 -0.53906,-0.60938 -0.0586,-0.97266 0.39062,-0.29687 0.92969,-0.67187 0.57031,-1.16797 -0.38672,-0.53125 -0.25781,-0.89844 -0.004,-1.34765 0.004,0 -0.0469,-0.043 -0.0742,-0.043 -0.57032,-0.0273 -0.99219,-0.8125 -1.67188,-0.31641 -0.30469,0.21875 -0.67969,0.17969 -1.03906,0.17969 -1.34375,-0.0117 -2.69141,-0.0781 -4.03125,0.008 -1.7461,0.11719 -3.40625,0.55469 -5.01953,1.32813 -1.04688,0.49609 -2.33203,0.1914 -3.28907,-0.41016 -0.66406,-0.41797 -0.8789,-0.28906 -1.19531,0.22656 -0.51172,0.85156 -1.14453,1.48828 -2.14453,1.85156 -1.15234,0.41797 -2.03906,1.45313 -2.14844,2.58204 -0.16015,1.69531 -1.28125,2.4375 -2.50781,2.70703 -1.41406,0.3125 -2.23437,1.33203 -2.9375,2.1914 -1.12891,1.39063 -2.27344,2.8125 -3.26172,4.32813 -0.19531,0.30078 -0.40625,0.6875 -0.1914,1.0039 0.42578,0.64844 0.22265,1.32813 0.30468,1.99219 0.22657,1.8711 -0.46484,3.34375 -1.44531,4.78516 -0.0703,0.10156 -0.17578,0.28906 -0.14062,0.33594 0.57421,0.76171 0.25781,1.61328 0.29296,2.43359 0.0195,0.41406 0.42188,0.62891 0.75,0.83203 0.16016,0.10156 0.45704,0.11328 0.50782,0.23438 0.5664,1.42578 2.26562,2.125 2.41406,3.83984 0.0352,0.41797 0.46875,0.78906 0.86719,1.01172 1.05468,0.58594 2,1.33984 2.88672,2.1289 1.28125,1.14063 2.61718,1.45704 4.21093,0.80469 1.1836,-0.48437 2.40235,-0.52344 3.60547,-0.043 0.41406,0.16797 0.73047,0.008 1.10547,-0.14453 1.76172,-0.71875 3.51172,-1.47265 5.49609,-1.43359 1.01172,0.0195 1.69922,0.34375 1.99219,1.33594 0.21875,0.75 0.7461,0.97656 1.42969,0.76953 0.48047,-0.14453 0.96094,-0.0899 1.44141,-0.14844 0.80468,-0.10547 1.98437,0.67578 1.92578,1.44922 -0.10157,1.21875 0.004,2.52734 -0.60938,3.625 -0.45703,0.8164 -0.25781,1.40625 0.24219,2.01172 0.35156,0.42187 0.73437,0.83593 1.16406,1.17968 1.75781,1.40235 2.17578,3.53907 3.01953,5.44141 0.0742,0.16406 0.0859,0.40234 0.0234,0.57031 -0.20703,0.59375 0.0195,1.08985 0.31641,1.5625 0.47265,0.76172 0.41406,1.6875 -0.11328,2.17188 -1.16797,1.07422 -1.3125,2.51562 -1.72657,3.84765 -0.27343,0.88282 -0.32812,1.85938 0.20703,2.73829 0.59375,0.96875 1.21875,1.92187 1.77344,2.91406 0.29297,0.53125 0.8125,1.01172 0.79688,1.64453 -0.0352,1.22656 0.45703,2.34766 0.58203,3.53906 0.0937,0.91406 0.47265,1.65235 1.125,2.30469 1.09375,1.08594 1.5,2.5625 2.125,3.91406 0.082,0.1836 0.0898,0.5 -0.0156,0.65625 -0.45703,0.6875 0.008,1.23438 0.35547,1.63672 0.40625,0.45703 0.95313,0.75781 1.73438,0.53125 1.19922,-0.34375 2.42187,-0.54687 3.71484,-0.41406 1.26172,0.125 2.46094,-0.22266 3.45313,-1.17188 1.43359,-1.37109 2.87109,-2.75 4.4375,-3.95312 0.98046,-0.75391 1.32421,-1.74219 1.33203,-2.76563 0.004,-0.73828 0.2539,-0.98437 0.79687,-1.20312 0.42188,-0.16406 0.85547,-0.3125 1.27735,-0.47266 0.3789,-0.14453 0.65625,-0.35156 0.76171,-0.79687 0.28907,-1.21875 0.45313,-2.41797 -0.10546,-3.60547 -0.15235,-0.32031 -0.19141,-0.67188 0.10937,-0.89453 1.35156,-0.98047 2.46484,-2.30078 4.13281,-2.83203 1.61328,-0.51172 2.45313,-1.79688 2.375,-3.4961 -0.0195,-0.42187 0.0117,-0.84375 0.0625,-1.26562 0.14844,-1.22266 0.65625,-2.48828 -0.45312,-3.5586 -0.0195,-0.0195 -0.0117,-0.0625 -0.0273,-0.0859 -0.69921,-1.1211 0.29297,-2.58204 -0.73828,-3.66407 -0.10156,-0.10937 0.10938,-0.54687 0.21094,-0.8164 0.87109,-2.34766 2.66016,-4.01172 4.30859,-5.78125 1.39454,-1.4961 3.16797,-2.55469 4.57422,-4.05469 1.81641,-1.92578 2.5625,-4.40234 3.61719,-6.71094 0.24609,-0.53125 0.32422,-1.23828 0.27344,-1.90625"
           id="path7470" />
        <path
           fill-rule="nonzero"
           fill="#ae9f56"
           fill-opacity="1"
           d="m 699.72656,303.80078 c -0.0351,-0.26172 -0.19531,-0.49219 -0.4414,-0.60937 -0.17579,-0.0899 -0.35938,0.0312 -0.3711,0.19531 -0.0625,0.74609 -0.79687,0.98828 -1.11328,1.51953 -0.71484,1.19531 -1.66016,1.94141 -3.06641,2.20703 -1.23046,0.23438 -1.68359,1 -1.44921,2.22266 0.26171,1.34765 0.008,2.50781 -1.00391,3.46484 -0.53125,0.5 -0.65625,1.10547 -0.45313,1.77734 0.11719,0.38282 0.17188,0.75782 0.12891,1.14844 -0.0937,0.91797 0.41797,1.48438 1.15625,1.83985 0.50781,0.24609 2.12891,-0.52344 2.37891,-1.08594 1.08984,-2.49219 2.54297,-4.82422 3.34375,-7.44922 0.17968,-0.60547 0.64062,-1.09766 0.60156,-1.81641 -0.0156,-0.35156 0.97656,-0.30468 0.60547,-0.875 -0.11328,-0.93359 -0.19922,-1.74218 -0.31641,-2.53906"
           id="path7472" />
        <path
           fill-rule="nonzero"
           fill="#35923a"
           fill-opacity="1"
           d="m 689.4375,335.48437 c 0.92578,0.082 1.46094,-0.27343 1.88672,-0.6914 1.48828,-1.46485 3.36328,-2.25 5.21484,-3.07422 1.85156,-0.82031 3.73828,-1.83203 4.86328,-3.38672 0.89453,-1.23437 2.05469,-2.50781 2.32032,-4.22266 0.38671,-2.52734 0.90625,-5.03125 1.64453,-7.48046 0.30859,-1.01954 0.99609,-1.66797 1.90234,-2.12891 0.64453,-0.33203 0.97656,-0.16406 0.95703,0.61328 -0.0976,3.71875 -0.64062,7.38672 -1.26953,11.04688 -0.12109,0.69921 -0.47656,1.29687 -0.93359,1.85546 -1.79688,2.19141 -3.57422,4.39844 -5.35547,6.60938 -0.57813,0.71875 -1.29688,1.26562 -2.0625,1.76953 -2.83985,1.85938 -5.625,3.80469 -8.29297,5.90625 -1.10156,0.87109 -2.18359,1.76953 -2.91797,2.99219 -0.27734,0.46094 -0.59766,0.5 -1.05469,0.32422 -2.67968,-1.03125 -5.07812,-2.5 -7.17968,-4.46094 -0.41797,-0.39063 -0.55079,-0.75781 -0.23438,-1.28125 0.37891,-0.63672 0.53906,-1.35156 0.63672,-2.08984 0.26562,-2.01954 1.38281,-3.58204 2.83203,-4.90235 1.70313,-1.55859 3.64453,-2.68359 5.96484,-3.13281 2.26172,-0.44141 4.33594,-1.28125 6.08594,-2.88281 1.23438,-1.12891 2.85156,-1.63282 4.41016,-2.14453 0.94531,-0.3086 1.53515,0.10937 2.15234,1.35546 0.39063,0.78907 0.45703,1.47266 -0.36328,2.125 -1.73828,1.37891 -3.53516,2.66797 -5.61328,3.45313 -2.125,0.80469 -3.58594,2.48828 -5.59375,3.82812"
           id="path7474" />
        <path
           fill-rule="nonzero"
           fill="#35923a"
           fill-opacity="1"
           d="m 701.57031,325.05469 c 0.67969,-3.20703 1.14844,-6.57813 2.30469,-9.79297 0.0898,-0.25391 0.28516,-0.47656 0.47266,-0.6836 0.41015,-0.44531 0.89062,-0.79296 1.5,-0.91406 0.20312,-0.0391 0.4414,-0.0703 0.55859,0.15235 0.11328,0.21484 0.0195,0.42578 -0.16797,0.55078 -1.40234,0.98437 -1.66797,2.54297 -2.00781,4.03515 -0.45703,2.01172 -0.84375,4.04297 -1.25391,6.06641 -0.082,0.41797 -0.16015,0.83203 -0.53125,1.09766 -0.1914,0.13671 -0.34765,0.40625 -0.6289,0.26171 -0.25782,-0.13671 -0.22657,-0.41015 -0.2461,-0.77343"
           id="path7476" />
        <path
           fill-rule="nonzero"
           fill="#35923a"
           fill-opacity="1"
           d="m 702.94141,315.15234 c 0.16406,0.54297 -0.10938,0.94532 -0.21875,1.36719 -0.6211,2.40234 -1.10547,4.83203 -1.59766,7.25781 -0.0469,0.22657 0.0742,0.75391 -0.46094,0.60157 -0.35156,-0.0977 -0.5664,-0.38282 -0.48828,-0.80469 0.48047,-2.46875 0.90625,-4.94922 1.70313,-7.33985 0.17187,-0.50781 0.49218,-0.90234 1.0625,-1.08203"
           id="path7478" />
        <path
           fill-rule="nonzero"
           fill="#35923a"
           fill-opacity="1"
           d="m 700.75,317.5625 c -0.42188,2.05469 -0.82422,4.04687 -1.23828,6.03906 -0.082,0.39063 -0.41797,0.46875 -0.73438,0.4375 -0.44531,-0.0469 -0.28906,-0.40234 -0.24218,-0.64844 0.34375,-1.60156 0.66796,-3.20312 1.1914,-4.75781 0.15625,-0.46094 0.35156,-0.91406 1.02344,-1.07031"
           id="path7480" />
        <path
           fill-rule="nonzero"
           fill="#35923a"
           fill-opacity="1"
           d="m 662.82031,335.48437 c -0.92187,0.082 -1.46094,-0.27343 -1.88672,-0.6914 -1.48828,-1.46485 -3.36328,-2.25 -5.21484,-3.07422 -1.84766,-0.82031 -3.73828,-1.83203 -4.86328,-3.38672 -0.89063,-1.23437 -2.05469,-2.50781 -2.31641,-4.22266 -0.39062,-2.52734 -0.90625,-5.03125 -1.64844,-7.48046 -0.30468,-1.01954 -0.99609,-1.66797 -1.90234,-2.12891 -0.64453,-0.33203 -0.97656,-0.16406 -0.95703,0.61328 0.10156,3.71875 0.64453,7.38672 1.27344,11.04688 0.12109,0.69921 0.47265,1.29687 0.92968,1.85546 1.79688,2.19141 3.57813,4.39844 5.35938,6.60938 0.57812,0.71875 1.29297,1.26562 2.05859,1.76953 2.84375,1.85938 5.625,3.80469 8.29688,5.90625 1.10156,0.87109 2.18359,1.76953 2.91797,2.99219 0.27734,0.46094 0.59375,0.5 1.05468,0.32422 2.67579,-1.03125 5.07422,-2.5 7.17969,-4.46094 0.41797,-0.39063 0.54688,-0.75781 0.23438,-1.28125 -0.37891,-0.63672 -0.53907,-1.35156 -0.64063,-2.08984 -0.26562,-2.01954 -1.38281,-3.58204 -2.83203,-4.90235 -1.69922,-1.55859 -3.64453,-2.68359 -5.96094,-3.13281 -2.26172,-0.44141 -4.33593,-1.28125 -6.08984,-2.88281 -1.23438,-1.12891 -2.84766,-1.63282 -4.41016,-2.14453 -0.9414,-0.3086 -1.53125,0.10937 -2.15234,1.35546 -0.39063,0.78907 -0.45703,1.47266 0.36719,2.125 1.73437,1.37891 3.53125,2.66797 5.61328,3.45313 2.12109,0.80469 3.58203,2.48828 5.58984,3.82812"
           id="path7482" />
        <path
           fill-rule="nonzero"
           fill="#35923a"
           fill-opacity="1"
           d="m 650.69141,325.05469 c -0.67969,-3.20703 -1.14844,-6.57813 -2.30469,-9.79297 -0.0898,-0.25391 -0.28906,-0.47656 -0.47266,-0.6836 -0.41015,-0.44531 -0.89062,-0.79296 -1.5,-0.91406 -0.20312,-0.0391 -0.44531,-0.0703 -0.5625,0.15235 -0.10937,0.21484 -0.0156,0.42578 0.16797,0.55078 1.40625,0.98437 1.66797,2.54297 2.00781,4.03515 0.45703,2.01172 0.84766,4.04297 1.25782,6.06641 0.082,0.41797 0.16015,0.83203 0.53125,1.09766 0.1875,0.13671 0.34765,0.40625 0.6289,0.26171 0.25781,-0.13671 0.22656,-0.41015 0.2461,-0.77343"
           id="path7484" />
        <path
           fill-rule="nonzero"
           fill="#35923a"
           fill-opacity="1"
           d="m 649.31641,315.15234 c -0.16016,0.54297 0.11328,0.94532 0.22265,1.36719 0.6211,2.40234 1.10156,4.83203 1.59766,7.25781 0.0469,0.22657 -0.0781,0.75391 0.45703,0.60157 0.35547,-0.0977 0.57031,-0.38282 0.48828,-0.80469 -0.48047,-2.46875 -0.90625,-4.94922 -1.69922,-7.33985 -0.17187,-0.50781 -0.49219,-0.90234 -1.0664,-1.08203"
           id="path7486" />
        <path
           fill-rule="nonzero"
           fill="#35923a"
           fill-opacity="1"
           d="m 651.51172,317.5625 c 0.41797,2.05469 0.82031,4.04687 1.23437,6.03906 0.082,0.39063 0.42188,0.46875 0.73438,0.4375 0.44922,-0.0469 0.29297,-0.40234 0.24219,-0.64844 -0.33985,-1.60156 -0.66797,-3.20312 -1.19141,-4.75781 -0.15234,-0.46094 -0.34766,-0.91406 -1.01953,-1.07031"
           id="path7488" />
        <path
           fill-rule="nonzero"
           fill="#231f20"
           fill-opacity="1"
           d="m 580.48828,316.76172 c -0.004,-0.0274 -0.004,-0.0508 -0.008,-0.0781 h 0.008 z m 0,0"
           id="path7490" />
        <path
           fill-rule="nonzero"
           fill="#231f20"
           fill-opacity="1"
           d="m 451.91016,318.58203 c -0.92579,-0.53906 -1.71875,-0.78125 -2.58985,-0.78125 -1.71875,0 -2.99609,1.22266 -2.99609,2.875 0,1.6875 1.23437,2.85547 3.04297,2.85547 0.84765,0 1.77343,-0.29688 2.62109,-0.84766 v 1.17969 c -0.73828,0.38672 -1.54297,0.66016 -2.72266,0.66016 -2.82031,0 -4.05468,-2.17188 -4.05468,-3.7461 0,-2.29297 1.73047,-3.96875 4.12109,-3.96875 0.77344,0 1.55469,0.1875 2.57813,0.61719 z m 0,0"
           id="path7492" />
        <path
           fill-rule="nonzero"
           fill="#231f20"
           fill-opacity="1"
           d="m 457.19922,323.94141 c -0.59375,0.39453 -1.13672,0.58203 -1.97266,0.58203 -1.54297,0 -2.40234,-1.26953 -2.40234,-2.63282 0,-1.5 0.94531,-2.51562 2.3125,-2.51562 1.3125,0 2.15234,0.89453 2.15234,2.72266 h -3.48437 c 0.15234,0.98046 0.71484,1.48828 1.66406,1.48828 0.59375,0 1.15625,-0.21875 1.73047,-0.59375 z m -0.88281,-2.49219 c -0.0312,-0.75 -0.46094,-1.22266 -1.15625,-1.22266 -0.75,0 -1.20313,0.4375 -1.33204,1.22266 z m 0,0"
           id="path7494" />
        <path
           fill-rule="nonzero"
           fill="#231f20"
           fill-opacity="1"
           d="m 459.19141,320.125 h 0.0234 c 0.375,-0.47266 0.92578,-0.75 1.47657,-0.75 0.9375,0 1.6875,0.64062 1.6875,1.99609 v 3.05469 h -0.98047 v -3.06641 c 0,-0.72656 -0.375,-1.19921 -0.97266,-1.19921 -0.42969,0 -0.76953,0.19531 -1.23437,0.71484 v 3.55078 h -0.98047 v -4.95312 h 0.98047 z m 0,0"
           id="path7496" />
        <path
           fill-rule="nonzero"
           fill="#231f20"
           fill-opacity="1"
           d="m 464.77734,319.47656 h 1.56641 v 0.87891 h -1.56641 v 2.53906 c 0,0.58203 0.42188,0.74609 0.70703,0.74609 0.35157,0 0.71485,-0.12109 1.11329,-0.36328 v 0.91797 c -0.34375,0.1836 -0.8711,0.32813 -1.19141,0.32813 -1.07031,0 -1.60938,-0.66016 -1.60938,-1.55469 v -2.61328 h -0.85937 v -0.10938 l 1.83984,-1.79687 z m 0,0"
           id="path7498" />
        <path
           fill-rule="nonzero"
           fill="#231f20"
           fill-opacity="1"
           d="m 468.23828,319.47656 v 1.13281 h 0.0195 c 0.4961,-0.87109 0.97266,-1.23437 1.4336,-1.23437 0.39843,0 0.77343,0.1875 1.17968,0.57422 l -0.51562,0.84765 c -0.29688,-0.28515 -0.6836,-0.48437 -0.91406,-0.48437 -0.67579,0 -1.20313,0.67187 -1.20313,1.51953 v 2.59375 h -0.98047 v -4.94922 z m 0,0"
           id="path7500" />
        <path
           fill-rule="nonzero"
           fill="#231f20"
           fill-opacity="1"
           d="m 475.35547,323.94141 c -0.59375,0.39453 -1.13281,0.58203 -1.97266,0.58203 -1.54297,0 -2.40234,-1.26953 -2.40234,-2.63282 0,-1.5 0.94922,-2.51562 2.3164,-2.51562 1.3086,0 2.14844,0.89453 2.14844,2.72266 h -3.48437 c 0.15625,0.98046 0.71875,1.48828 1.66406,1.48828 0.59766,0 1.15625,-0.21875 1.73047,-0.59375 z m -0.87891,-2.49219 c -0.0351,-0.75 -0.46484,-1.22266 -1.16015,-1.22266 -0.75,0 -1.19922,0.4375 -1.33204,1.22266 z m 0,0"
           id="path7502" />
        <path
           fill-rule="nonzero"
           fill="#231f20"
           fill-opacity="1"
           d="m 479.26953,320.75391 c -0.55469,-0.36329 -1.07031,-0.51954 -1.43359,-0.51954 -0.39844,0 -0.65235,0.1875 -0.65235,0.45313 0,0.22266 0.33203,0.48437 1.20313,0.99219 0.8164,0.53906 1.11328,0.88281 1.11328,1.39062 0,0.8711 -0.69531,1.45313 -1.63281,1.45313 -0.60547,0 -1.07813,-0.1211 -1.71875,-0.45313 v -1.05859 c 0.64062,0.4414 1.22265,0.65234 1.62109,0.65234 0.39453,-0.0234 0.72656,-0.21094 0.72656,-0.5625 0,-0.68359 -2.3164,-1.04687 -2.3164,-2.38281 0,-0.83594 0.64062,-1.34375 1.63281,-1.34375 0.46484,0 0.9375,0.13281 1.45703,0.41016 z m 0,0"
           id="path7504" />
        <path
           fill-rule="nonzero"
           fill="#231f20"
           fill-opacity="1"
           d="m 486.04297,317.86719 c -0.16406,-0.0664 -0.26563,-0.0899 -0.44141,-0.0899 -0.79297,0 -1.04687,0.46485 -1.04687,1.22266 v 0.47266 h 0.89453 v 0.88281 h -0.89453 v 4.07031 h -0.98047 v -4.07031 h -0.69531 v -0.88281 h 0.69531 v -0.35938 c 0,-0.97266 0.23047,-1.43359 0.6289,-1.83203 0.41797,-0.41797 0.98047,-0.61719 1.83985,-0.375 z m 0,0"
           id="path7506" />
        <path
           fill-rule="nonzero"
           fill="#231f20"
           fill-opacity="1"
           d="m 491.00391,321.89844 c 0,1.5664 -1.09375,2.625 -2.67969,2.625 -1.51953,0 -2.61328,-1.10157 -2.61328,-2.625 0,-1.42188 1.13672,-2.52344 2.61328,-2.52344 1.55469,0 2.67969,1.05859 2.67969,2.52344 m -4.28907,0 c 0,1.04687 0.64844,1.74218 1.59766,1.74218 1.03516,0 1.6875,-0.66015 1.6875,-1.73046 0,-0.95704 -0.70703,-1.65235 -1.6875,-1.65235 -0.92578,0 -1.59766,0.69531 -1.59766,1.64063"
           id="path7508" />
        <path
           fill-rule="nonzero"
           fill="#231f20"
           fill-opacity="1"
           d="m 493.02734,319.47656 v 1.13281 h 0.0234 c 0.49609,-0.87109 0.96875,-1.23437 1.43359,-1.23437 0.39454,0 0.76954,0.1875 1.17969,0.57422 l -0.51953,0.84765 c -0.29687,-0.28515 -0.68359,-0.48437 -0.91406,-0.48437 -0.67188,0 -1.20313,0.67187 -1.20313,1.51953 v 2.59375 h -0.98047 v -4.94922 z m 0,0"
           id="path7510" />
        <path
           fill-rule="nonzero"
           fill="#231f20"
           fill-opacity="1"
           d="M 499.32812,316.90625 H 502.25 c 2.77734,0 4.00391,1.98437 4.00391,3.75781 0,1.92969 -1.51172,3.76172 -3.99219,3.76172 h -2.9336 z m 1.08204,6.54687 h 1.71875 c 2.44921,0 3.01171,-1.86328 3.01171,-2.78906 0,-1.50781 -0.96093,-2.78906 -3.0664,-2.78906 h -1.66406 z m 0,0"
           id="path7512" />
        <path
           fill-rule="nonzero"
           fill="#231f20"
           fill-opacity="1"
           d="m 507.85937,318.55859 c -0.32031,0 -0.58593,-0.26172 -0.58593,-0.58203 0,-0.32031 0.26562,-0.58594 0.58593,-0.58594 0.32032,0 0.58204,0.26563 0.58204,0.58594 0,0.32031 -0.26172,0.58203 -0.58204,0.58203 m 0.48438,5.86719 h -0.98047 v -4.94922 h 0.98047 z m 0,0"
           id="path7514" />
        <path
           fill-rule="nonzero"
           fill="#231f20"
           fill-opacity="1"
           d="m 512.51953,320.75391 c -0.55078,-0.36329 -1.07031,-0.51954 -1.43359,-0.51954 -0.39453,0 -0.64844,0.1875 -0.64844,0.45313 0,0.22266 0.32812,0.48437 1.19922,0.99219 0.8164,0.53906 1.11328,0.88281 1.11328,1.39062 0,0.8711 -0.69141,1.45313 -1.62891,1.45313 -0.60547,0 -1.08203,-0.1211 -1.72265,-0.45313 v -1.05859 c 0.64062,0.4414 1.22656,0.65234 1.62109,0.65234 0.39844,-0.0234 0.72656,-0.21094 0.72656,-0.5625 0,-0.68359 -2.3125,-1.04687 -2.3125,-2.38281 0,-0.83594 0.64063,-1.34375 1.63282,-1.34375 0.46093,0 0.9375,0.13281 1.45312,0.41016 z m 0,0"
           id="path7516" />
        <path
           fill-rule="nonzero"
           fill="#231f20"
           fill-opacity="1"
           d="m 517.91016,323.94141 c -0.59766,0.39453 -1.13672,0.58203 -1.97266,0.58203 -1.54688,0 -2.40625,-1.26953 -2.40625,-2.63282 0,-1.5 0.94922,-2.51562 2.31641,-2.51562 1.3125,0 2.14843,0.89453 2.14843,2.72266 h -3.48437 c 0.15625,0.98046 0.71875,1.48828 1.66406,1.48828 0.59766,0 1.16016,-0.21875 1.73438,-0.59375 z m -0.88282,-2.49219 c -0.0351,-0.75 -0.46484,-1.22266 -1.16015,-1.22266 -0.7461,0 -1.19922,0.4375 -1.33203,1.22266 z m 0,0"
           id="path7518" />
        <path
           fill-rule="nonzero"
           fill="#231f20"
           fill-opacity="1"
           d="m 522.77734,324.13672 c -0.44922,0.30078 -0.63672,0.38672 -0.94531,0.38672 -0.43359,0 -0.66406,-0.15625 -0.75,-0.50782 -0.42969,0.34375 -0.88281,0.50782 -1.33594,0.50782 -0.72656,0 -1.21093,-0.57422 -1.21093,-1.21094 0,-0.98438 0.89062,-1.28125 1.6875,-1.56641 l 0.86718,-0.30859 v -0.26563 c 0,-0.61718 -0.29687,-0.87109 -0.89062,-0.87109 -0.53906,0 -1.09375,0.25391 -1.56641,0.81641 v -1.07032 c 0.38672,-0.44921 0.92578,-0.67187 1.64453,-0.67187 1.00391,0 1.79688,0.50781 1.79688,1.63281 v 2.54688 c 0,0.1875 0.0664,0.2539 0.1875,0.2539 0.0977,0 0.29687,-0.10156 0.51562,-0.26562 z m -1.6875,-2.16016 c -0.83593,0.28906 -1.5625,0.57422 -1.5625,1.16016 0,0.40625 0.29688,0.6914 0.70313,0.6914 0.3125,0 0.59765,-0.15234 0.85937,-0.40625 z m 0,0"
           id="path7520" />
        <path
           fill-rule="nonzero"
           fill="#231f20"
           fill-opacity="1"
           d="m 526.41406,320.75391 c -0.55078,-0.36329 -1.07031,-0.51954 -1.43359,-0.51954 -0.39844,0 -0.64844,0.1875 -0.64844,0.45313 0,0.22266 0.32813,0.48437 1.19922,0.99219 0.81641,0.53906 1.11328,0.88281 1.11328,1.39062 0,0.8711 -0.69531,1.45313 -1.62891,1.45313 -0.60937,0 -1.08203,-0.1211 -1.72265,-0.45313 v -1.05859 c 0.64062,0.4414 1.22656,0.65234 1.62109,0.65234 0.39844,-0.0234 0.72656,-0.21094 0.72656,-0.5625 0,-0.68359 -2.3125,-1.04687 -2.3125,-2.38281 0,-0.83594 0.64063,-1.34375 1.62891,-1.34375 0.46484,0 0.9375,0.13281 1.45703,0.41016 z m 0,0"
           id="path7522" />
        <path
           fill-rule="nonzero"
           fill="#231f20"
           fill-opacity="1"
           d="m 531.80078,323.94141 c -0.59375,0.39453 -1.13281,0.58203 -1.97266,0.58203 -1.54296,0 -2.40234,-1.26953 -2.40234,-2.63282 0,-1.5 0.94922,-2.51562 2.31641,-2.51562 1.30859,0 2.14843,0.89453 2.14843,2.72266 h -3.48437 c 0.15625,0.98046 0.71875,1.48828 1.66406,1.48828 0.59766,0 1.16016,-0.21875 1.73047,-0.59375 z m -0.87891,-2.49219 c -0.0352,-0.75 -0.46484,-1.22266 -1.16015,-1.22266 -0.75,0 -1.19922,0.4375 -1.33203,1.22266 z m 0,0"
           id="path7524" />
        <path
           fill-rule="nonzero"
           fill="#231f20"
           fill-opacity="1"
           d="m 542.32422,318.58203 c -0.92578,-0.53906 -1.71875,-0.78125 -2.58985,-0.78125 -1.71875,0 -2.99609,1.22266 -2.99609,2.875 0,1.6875 1.23438,2.85547 3.03906,2.85547 0.85157,0 1.77735,-0.29688 2.625,-0.84766 v 1.17969 c -0.73828,0.38672 -1.54297,0.66016 -2.72265,0.66016 -2.82032,0 -4.0586,-2.17188 -4.0586,-3.7461 0,-2.29297 1.73438,-3.96875 4.125,-3.96875 0.77344,0 1.55469,0.1875 2.57813,0.61719 z m 0,0"
           id="path7526" />
        <path
           fill-rule="nonzero"
           fill="#231f20"
           fill-opacity="1"
           d="m 548.47266,321.89844 c 0,1.5664 -1.09375,2.625 -2.67969,2.625 -1.51953,0 -2.60938,-1.10157 -2.60938,-2.625 0,-1.42188 1.13282,-2.52344 2.60938,-2.52344 1.55469,0 2.67969,1.05859 2.67969,2.52344 m -4.28907,0 c 0,1.04687 0.65235,1.74218 1.59766,1.74218 1.03906,0 1.6875,-0.66015 1.6875,-1.73046 0,-0.95704 -0.70313,-1.65235 -1.6875,-1.65235 -0.92578,0 -1.59766,0.69531 -1.59766,1.64063"
           id="path7528" />
        <path
           fill-rule="nonzero"
           fill="#231f20"
           fill-opacity="1"
           d="m 550.41016,320.125 h 0.0234 c 0.3711,-0.47266 0.92578,-0.75 1.47657,-0.75 0.93359,0 1.68359,0.64062 1.68359,1.99609 v 3.05469 h -0.98047 v -3.06641 c 0,-0.72656 -0.375,-1.19921 -0.96875,-1.19921 -0.42969,0 -0.77344,0.19531 -1.23437,0.71484 v 3.55078 h -0.98047 v -4.95312 h 0.98047 z m 0,0"
           id="path7530" />
        <path
           fill-rule="nonzero"
           fill="#231f20"
           fill-opacity="1"
           d="m 555.99609,319.47656 h 1.56641 v 0.87891 h -1.56641 v 2.53906 c 0,0.58203 0.41797,0.74609 0.70703,0.74609 0.35157,0 0.71485,-0.12109 1.11329,-0.36328 v 0.91797 c -0.34375,0.1836 -0.8711,0.32813 -1.19141,0.32813 -1.07031,0 -1.60938,-0.66016 -1.60938,-1.55469 v -2.61328 h -0.85937 v -0.10938 l 1.83984,-1.79687 z m 0,0"
           id="path7532" />
        <path
           fill-rule="nonzero"
           fill="#231f20"
           fill-opacity="1"
           d="m 559.45703,319.47656 v 1.13281 h 0.0195 c 0.4961,-0.87109 0.97266,-1.23437 1.4336,-1.23437 0.39843,0 0.77343,0.1875 1.17968,0.57422 l -0.51562,0.84765 c -0.30078,-0.28515 -0.6875,-0.48437 -0.91797,-0.48437 -0.67188,0 -1.19922,0.67187 -1.19922,1.51953 v 2.59375 h -0.98437 v -4.94922 z m 0,0"
           id="path7534" />
        <path
           fill-rule="nonzero"
           fill="#231f20"
           fill-opacity="1"
           d="m 567.37891,321.89844 c 0,1.5664 -1.08985,2.625 -2.67969,2.625 -1.51953,0 -2.60938,-1.10157 -2.60938,-2.625 0,-1.42188 1.13282,-2.52344 2.60938,-2.52344 1.55469,0 2.67969,1.05859 2.67969,2.52344 m -4.28907,0 c 0,1.04687 0.65235,1.74218 1.60157,1.74218 1.03515,0 1.68359,-0.66015 1.68359,-1.73046 0,-0.95704 -0.70313,-1.65235 -1.68359,-1.65235 -0.92969,0 -1.60157,0.69531 -1.60157,1.64063"
           id="path7536" />
        <path
           fill-rule="nonzero"
           fill="#231f20"
           fill-opacity="1"
           d="m 568.37891,324.42578 h 0.98046 v -7.51953 h -0.98046 z m 0,0"
           id="path7538" />
        <path
           fill-rule="nonzero"
           fill="#231f20"
           fill-opacity="1"
           d="m 577.44922,324.13672 c -0.45313,0.30078 -0.64063,0.38672 -0.94922,0.38672 -0.42969,0 -0.66016,-0.15625 -0.75,-0.50782 -0.42969,0.34375 -0.87891,0.50782 -1.33203,0.50782 -0.72656,0 -1.21094,-0.57422 -1.21094,-1.21094 0,-0.98438 0.89063,-1.28125 1.68359,-1.56641 l 0.8711,-0.30859 v -0.26563 c 0,-0.61718 -0.29688,-0.87109 -0.89063,-0.87109 -0.54297,0 -1.09375,0.25391 -1.5664,0.81641 v -1.07032 c 0.38672,-0.44921 0.92578,-0.67187 1.64062,-0.67187 1.00391,0 1.80078,0.50781 1.80078,1.63281 v 2.54688 c 0,0.1875 0.0625,0.2539 0.1836,0.2539 0.10156,0 0.29687,-0.10156 0.51953,-0.26562 z m -1.6875,-2.16016 c -0.83594,0.28906 -1.5625,0.57422 -1.5625,1.16016 0,0.40625 0.29687,0.6914 0.70312,0.6914 0.3086,0 0.59375,-0.15234 0.85938,-0.40625 z m 0,0"
           id="path7540" />
        <path
           fill-rule="nonzero"
           fill="#231f20"
           fill-opacity="1"
           d="m 579.16797,320.125 h 0.0195 c 0.375,-0.47266 0.92969,-0.75 1.48047,-0.75 0.93359,0 1.68359,0.64062 1.68359,1.99609 v 3.05469 h -0.98047 v -3.06641 c 0,-0.72656 -0.375,-1.19921 -0.96875,-1.19921 -0.42968,0 -0.77343,0.19531 -1.23437,0.71484 v 3.55078 h -0.98047 v -4.95312 h 0.98047 z m 0,0"
           id="path7542" />
        <path
           fill-rule="nonzero"
           fill="#231f20"
           fill-opacity="1"
           d="m 587.88281,324.42578 h -2.08203 c -1.47656,0 -2.40234,-1.00391 -2.40234,-2.59375 0,-1.42969 1.02343,-2.45703 2.46875,-2.45703 0.32812,0 0.64062,0.0547 1.03515,0.19922 v -2.66797 h 0.98047 z m -0.98047,-3.98047 c -0.33203,-0.13281 -0.58203,-0.1875 -0.91406,-0.1875 -0.94922,0 -1.58984,0.6836 -1.58984,1.71875 0,0.92578 0.375,1.6211 1.51172,1.6211 h 0.99218 z m 0,0"
           id="path7544" />
        <path
           fill-rule="nonzero"
           fill="#231f20"
           fill-opacity="1"
           d="m 594.49219,316.90625 c 1.64453,0 2.39453,0.96875 2.39453,2.16016 0,1.17968 -0.79297,2.10546 -2.53516,2.10546 h -1.125 v 3.25391 h -1.08203 v -7.51953 z m -1.26563,3.29687 h 1.22266 c 0.80469,0 1.32422,-0.42968 1.32422,-1.17968 0,-0.55078 -0.29688,-1.14844 -1.28125,-1.14844 h -1.26563 z m 0,0"
           id="path7546" />
        <path
           fill-rule="nonzero"
           fill="#231f20"
           fill-opacity="1"
           d="m 598.625,319.47656 v 1.13281 h 0.0234 c 0.49609,-0.87109 0.96875,-1.23437 1.43359,-1.23437 0.39453,0 0.76953,0.1875 1.17969,0.57422 l -0.51953,0.84765 c -0.29688,-0.28515 -0.6836,-0.48437 -0.91797,-0.48437 -0.67188,0 -1.19922,0.67187 -1.19922,1.51953 v 2.59375 h -0.98047 v -4.94922 z m 0,0"
           id="path7548" />
        <path
           fill-rule="nonzero"
           fill="#231f20"
           fill-opacity="1"
           d="m 605.74609,323.94141 c -0.59765,0.39453 -1.13672,0.58203 -1.97656,0.58203 -1.54297,0 -2.40234,-1.26953 -2.40234,-2.63282 0,-1.5 0.94922,-2.51562 2.3164,-2.51562 1.3125,0 2.14844,0.89453 2.14844,2.72266 h -3.48437 c 0.15625,0.98046 0.71875,1.48828 1.66406,1.48828 0.59765,0 1.16015,-0.21875 1.73437,-0.59375 z m -0.88281,-2.49219 c -0.0352,-0.75 -0.46484,-1.22266 -1.15625,-1.22266 -0.75,0 -1.20312,0.4375 -1.33594,1.22266 z m 0,0"
           id="path7550" />
        <path
           fill-rule="nonzero"
           fill="#231f20"
           fill-opacity="1"
           d="m 605.94922,319.47656 h 1.07031 l 1.33594,3.04297 1.30078,-3.04297 h 1.04687 l -2.18359,5.04688 h -0.33203 z m 0,0"
           id="path7552" />
        <path
           fill-rule="nonzero"
           fill="#231f20"
           fill-opacity="1"
           d="m 615.24219,323.94141 c -0.59375,0.39453 -1.13672,0.58203 -1.97266,0.58203 -1.54297,0 -2.40234,-1.26953 -2.40234,-2.63282 0,-1.5 0.94531,-2.51562 2.3125,-2.51562 1.3125,0 2.14843,0.89453 2.14843,2.72266 h -3.48046 c 0.15234,0.98046 0.71484,1.48828 1.66406,1.48828 0.59375,0 1.15625,-0.21875 1.73047,-0.59375 z m -0.88282,-2.49219 c -0.0312,-0.75 -0.46093,-1.22266 -1.15625,-1.22266 -0.75,0 -1.20312,0.4375 -1.33593,1.22266 z m 0,0"
           id="path7554" />
        <path
           fill-rule="nonzero"
           fill="#231f20"
           fill-opacity="1"
           d="m 617.23437,320.125 h 0.0234 c 0.3711,-0.47266 0.92578,-0.75 1.47656,-0.75 0.9336,0 1.6836,0.64062 1.6836,1.99609 v 3.05469 h -0.98047 v -3.06641 c 0,-0.72656 -0.375,-1.19921 -0.96875,-1.19921 -0.42969,0 -0.77344,0.19531 -1.23438,0.71484 v 3.55078 h -0.98046 v -4.95312 h 0.98046 z m 0,0"
           id="path7556" />
        <path
           fill-rule="nonzero"
           fill="#231f20"
           fill-opacity="1"
           d="m 622.82031,319.47656 h 1.56641 v 0.87891 h -1.56641 v 2.53906 c 0,0.58203 0.41797,0.74609 0.70703,0.74609 0.35157,0 0.71485,-0.12109 1.11328,-0.36328 v 0.91797 c -0.34375,0.1836 -0.87109,0.32813 -1.1914,0.32813 -1.07031,0 -1.60938,-0.66016 -1.60938,-1.55469 v -2.61328 h -0.85937 v -0.10938 l 1.83984,-1.79687 z m 0,0"
           id="path7558" />
        <path
           fill-rule="nonzero"
           fill="#231f20"
           fill-opacity="1"
           d="m 625.75,318.55859 c -0.32031,0 -0.58203,-0.26172 -0.58203,-0.58203 0,-0.32031 0.26172,-0.58594 0.58203,-0.58594 0.32031,0 0.58594,0.26563 0.58594,0.58594 0,0.32031 -0.26563,0.58203 -0.58594,0.58203 m 0.48437,5.86719 h -0.98046 v -4.94922 h 0.98046 z m 0,0"
           id="path7560" />
        <path
           fill-rule="nonzero"
           fill="#231f20"
           fill-opacity="1"
           d="m 632.53125,321.89844 c 0,1.5664 -1.09375,2.625 -2.67969,2.625 -1.52344,0 -2.61328,-1.10157 -2.61328,-2.625 0,-1.42188 1.13672,-2.52344 2.61328,-2.52344 1.55469,0 2.67969,1.05859 2.67969,2.52344 m -4.28906,0 c 0,1.04687 0.64843,1.74218 1.59765,1.74218 1.03516,0 1.6875,-0.66015 1.6875,-1.73046 0,-0.95704 -0.70703,-1.65235 -1.6875,-1.65235 -0.92578,0 -1.59765,0.69531 -1.59765,1.64063"
           id="path7562" />
        <path
           fill-rule="nonzero"
           fill="#231f20"
           fill-opacity="1"
           d="m 634.46875,320.125 h 0.0195 c 0.375,-0.47266 0.92578,-0.75 1.47656,-0.75 0.9375,0 1.6875,0.64062 1.6875,1.99609 v 3.05469 h -0.98047 v -3.06641 c 0,-0.72656 -0.375,-1.19921 -0.96875,-1.19921 -0.42968,0 -0.77343,0.19531 -1.23437,0.71484 v 3.55078 h -0.98438 v -4.95312 h 0.98438 z m 0,0"
           id="path7564" />
        <path
           fill-rule="nonzero"
           fill="#231f20"
           fill-opacity="1"
           d="m 445.21094,330.46875 h 192.4414 v -0.73047 h -192.4414 z m 0,0"
           id="path7566" />
        <path
           fill-rule="nonzero"
           fill="#35923a"
           fill-opacity="1"
           d="M 503.51953,337.53516 C 503.29687,336.81641 502.98437,336 501.94922,336 c -0.64844,0 -1.07422,0.46094 -1.07422,1.08594 0,0.61718 0.41406,0.98828 1.40234,1.48047 1.19922,0.59765 1.96094,1.17968 1.96094,2.28906 0,1.32422 -1.09766,2.28906 -2.70312,2.28906 -0.71485,0 -1.35547,-0.19141 -1.88282,-0.34766 -0.0664,-0.25781 -0.25781,-1.42578 -0.33593,-1.95312 l 0.4375,-0.10156 c 0.22265,0.70703 0.85156,1.92968 1.94921,1.92968 0.6836,0 1.09766,-0.42578 1.09766,-1.14453 0,-0.64843 -0.40234,-1.03125 -1.34375,-1.53515 -1.16797,-0.62891 -1.92969,-1.1875 -1.92969,-2.35547 0,-1.17578 0.92188,-2.10938 2.60157,-2.10938 0.77343,0 1.35937,0.16797 1.60546,0.20313 0.043,0.41406 0.1211,0.99609 0.21094,1.70312 z m 0,0"
           id="path7568" />
        <path
           fill-rule="nonzero"
           fill="#35923a"
           fill-opacity="1"
           d="m 508.71875,343.10937 c -0.30469,0 -0.55078,-0.10156 -0.69531,-0.23437 -0.15625,-0.13672 -0.23438,-0.29297 -0.29297,-0.41797 -0.42578,0.28125 -0.97266,0.65234 -1.1875,0.65234 -0.96485,0 -1.52344,-0.75 -1.52344,-1.44531 0,-0.59375 0.26563,-0.86328 0.86328,-1.10156 0.66016,-0.24609 1.54688,-0.51563 1.80469,-0.73828 v -0.49219 c 0,-0.58594 -0.21484,-0.91016 -0.69531,-0.91016 -0.19141,0 -0.34766,0.0899 -0.44922,0.22657 -0.13281,0.17578 -0.17969,0.40234 -0.26953,0.73828 -0.0781,0.30078 -0.25782,0.38281 -0.48047,0.38281 -0.29297,0 -0.66406,-0.26953 -0.66406,-0.58594 0,-0.19922 0.13671,-0.34765 0.39453,-0.52734 0.5039,-0.33594 1.16406,-0.66016 1.79297,-0.79297 0.44921,0 0.83203,0.0977 1.15625,0.32422 0.48046,0.33594 0.61718,0.80469 0.61718,1.37891 v 1.9375 c 0,0.53906 0.17969,0.67578 0.35938,0.67578 0.10937,0 0.22265,-0.0352 0.34375,-0.0899 l 0.125,0.37891 z m -1.03125,-2.82421 c -0.20313,0.10937 -0.40234,0.22265 -0.62891,0.34765 -0.34765,0.17969 -0.54687,0.37891 -0.54687,0.76172 0,0.62891 0.43359,0.85156 0.68359,0.85156 0.15625,0 0.3125,-0.0117 0.49219,-0.17968 z m 0,0"
           id="path7570" />
        <path
           fill-rule="nonzero"
           fill="#35923a"
           fill-opacity="1"
           d="m 511.15234,337.99609 v -0.23437 c 0,-0.76172 0.42578,-1.5586 1.0625,-2.06641 0.40625,-0.33594 0.84375,-0.51562 1.37891,-0.58203 0.42969,0 0.77734,0.125 0.97656,0.31641 0.15625,0.15625 0.15625,0.33593 0.10156,0.5039 -0.0664,0.19922 -0.22265,0.39063 -0.40234,0.49219 -0.19141,0.11328 -0.30469,0.0781 -0.41406,-0.0234 -0.26953,-0.27734 -0.60547,-0.63672 -0.92188,-0.63672 -0.30078,0 -0.34765,0.30079 -0.33593,1.75 v 0.48047 h 1.03125 c 0.0469,0.11328 0,0.47266 -0.15625,0.5586 h -0.875 v 3.19922 c 0,0.69531 0.0781,0.75 0.79687,0.83984 v 0.38281 h -2.90625 v -0.38281 c 0.62891,-0.0898 0.66406,-0.14453 0.66406,-0.83984 v -3.19922 h -0.74218 l -0.0547,-0.14453 0.29297,-0.41407 z m 0,0"
           id="path7572" />
        <path
           fill-rule="nonzero"
           fill="#35923a"
           fill-opacity="1"
           d="m 518.53906,341.875 c -0.68359,1.01172 -1.58203,1.23437 -2.05078,1.23437 -1.50391,0 -2.35547,-1.10937 -2.35547,-2.44531 0,-0.78515 0.3711,-1.55859 0.83985,-2.01953 0.5039,-0.50391 1.13281,-0.78516 1.75,-0.78516 1.09765,0 1.86328,0.91016 1.85156,1.82813 0,0.19141 -0.0117,0.38281 -0.14844,0.41797 -0.21094,0.0547 -1.79297,0.13281 -2.87891,0.17969 0.043,1.1875 0.70313,1.79296 1.51172,1.79296 0.4375,0 0.875,-0.15625 1.27735,-0.5039 z M 516.5,338.32031 c -0.44922,0 -0.83203,0.52735 -0.89844,1.41406 0.46094,-0.0117 0.88672,-0.0234 1.35547,-0.0351 0.15625,-0.0117 0.22656,-0.0312 0.22656,-0.22266 0.008,-0.5625 -0.25,-1.15625 -0.68359,-1.15625"
           id="path7574" />
        <path
           fill-rule="nonzero"
           fill="#35923a"
           fill-opacity="1"
           d="m 521.12109,341.22656 c -0.11328,0.1211 -0.20312,0.26953 -0.20312,0.37891 0,0.17969 0.21484,0.41797 0.64062,0.41797 h 1.26563 c 0.68359,0 1.68359,0.27734 1.68359,1.3789 0,1.26563 -1.54687,2.27344 -3.03906,2.27344 -1.46875,0 -2.12891,-0.71484 -2.12891,-1.33203 0,-0.26953 0.0977,-0.44922 0.33594,-0.61719 0.30078,-0.21484 0.59375,-0.40234 0.83984,-0.5625 -0.44921,-0.16797 -0.68359,-0.39062 -0.83984,-0.625 -0.13672,-0.17969 -0.20312,-0.46094 -0.17969,-0.61719 0.52735,-0.22656 0.9961,-0.5625 1.21094,-0.82031 z m 0.53907,0.10938 c -1.27735,0 -2.10938,-0.6836 -2.10938,-1.69141 0,-1.21094 1.16797,-1.78125 2.17578,-1.78125 0.46875,0 0.85156,0.0859 1.26563,0.28906 0.47265,0 1.26953,-0.0781 1.55078,-0.15625 l 0.0547,0.0899 c -0.0664,0.20312 -0.21485,0.57031 -0.41407,0.69531 -0.1914,0 -0.5039,-0.0469 -0.66406,-0.0547 0.16797,0.19922 0.26953,0.49219 0.26953,0.91797 0,1.12109 -1.03125,1.69141 -2.1289,1.69141 m 0.13281,1.86328 c -0.57031,0 -0.85156,0.0664 -1.01953,0.21484 -0.19141,0.15625 -0.3125,0.37891 -0.3125,0.61328 0,0.59766 0.55859,1.05469 1.52343,1.05469 0.86329,0 1.40235,-0.40234 1.40235,-1.00781 0,-0.41406 -0.26953,-0.6836 -0.61719,-0.77344 -0.30078,-0.0781 -0.55859,-0.10156 -0.97656,-0.10156 m -0.1211,-4.91016 c -0.34765,0 -0.69531,0.41406 -0.69531,1.23438 0,0.76172 0.25781,1.38672 0.78516,1.38672 0.43359,0 0.68359,-0.45704 0.68359,-1.26563 0,-0.70703 -0.23437,-1.35547 -0.77344,-1.35547"
           id="path7576" />
        <path
           fill-rule="nonzero"
           fill="#35923a"
           fill-opacity="1"
           d="m 530.95312,342.70703 c -0.67187,0.0898 -1.39062,0.23438 -2.1289,0.40234 v -0.76171 c -0.46094,0.3789 -0.92969,0.76171 -1.54688,0.76171 -0.9414,0 -1.46875,-0.60546 -1.46875,-1.60156 v -2.32422 c 0,-0.51562 -0.0664,-0.57031 -0.37109,-0.64843 l -0.23438,-0.0664 v -0.35938 c 0.57032,-0.0234 1.45704,-0.10156 2.08594,-0.1914 -0.0234,0.47265 -0.0351,1.05469 -0.0351,1.6914 v 1.63672 c 0,0.73047 0.37109,0.97657 0.76171,0.97657 0.31641,0 0.5625,-0.0664 0.8086,-0.32422 v -2.70313 c 0,-0.51562 -0.0547,-0.60547 -0.3711,-0.66015 l -0.33593,-0.0664 v -0.35938 c 0.65234,-0.0234 1.60547,-0.10156 2.16406,-0.1914 v 3.65625 c 0,0.58203 0.0664,0.70703 0.42578,0.73828 l 0.24609,0.0234 z m 0,0"
           id="path7578" />
        <path
           fill-rule="nonzero"
           fill="#35923a"
           fill-opacity="1"
           d="m 535.26172,343.10937 c -0.30469,0 -0.55078,-0.10156 -0.69531,-0.23437 -0.16016,-0.13672 -0.23829,-0.29297 -0.29297,-0.41797 -0.42578,0.28125 -0.97657,0.65234 -1.1875,0.65234 -0.96485,0 -1.52735,-0.75 -1.52735,-1.44531 0,-0.59375 0.26953,-0.86328 0.86328,-1.10156 0.66407,-0.24609 1.54688,-0.51563 1.80469,-0.73828 v -0.49219 c 0,-0.58594 -0.21094,-0.91016 -0.69531,-0.91016 -0.1875,0 -0.34766,0.0899 -0.44531,0.22657 -0.13672,0.17578 -0.17969,0.40234 -0.26953,0.73828 -0.0781,0.30078 -0.25782,0.38281 -0.48438,0.38281 -0.28906,0 -0.66016,-0.26953 -0.66016,-0.58594 0,-0.19922 0.13282,-0.34765 0.39063,-0.52734 0.50391,-0.33594 1.16797,-0.66016 1.79687,-0.79297 0.44922,0 0.82813,0.0977 1.15235,0.32422 0.48437,0.33594 0.61719,0.80469 0.61719,1.37891 v 1.9375 c 0,0.53906 0.17968,0.67578 0.35937,0.67578 0.11328,0 0.22656,-0.0352 0.34766,-0.0899 l 0.125,0.37891 z m -1.03516,-2.82421 c -0.19922,0.10937 -0.40234,0.22265 -0.625,0.34765 -0.34765,0.17969 -0.55078,0.37891 -0.55078,0.76172 0,0.62891 0.4375,0.85156 0.68359,0.85156 0.15625,0 0.31641,-0.0117 0.49219,-0.17968 z m 0,0"
           id="path7580" />
        <path
           fill-rule="nonzero"
           fill="#35923a"
           fill-opacity="1"
           d="m 539.95703,342.97656 h -2.96094 v -0.38281 c 0.59375,-0.0664 0.65235,-0.125 0.65235,-0.79688 v -2.45312 c 0,-0.5625 -0.0469,-0.61719 -0.57422,-0.73047 v -0.34766 c 0.69531,-0.0781 1.32422,-0.21484 2.01953,-0.42578 v 1.21094 c 0.50391,-0.77344 0.90625,-1.19141 1.36719,-1.19141 0.41406,0 0.73047,0.28125 0.73047,0.67579 0,0.55078 -0.39454,0.86328 -0.57422,0.95312 -0.15625,0.0664 -0.26563,0.0117 -0.34766,-0.0586 -0.19141,-0.15625 -0.33594,-0.33594 -0.52734,-0.33594 -0.16797,0 -0.44532,0.14844 -0.64844,0.57422 v 2.1289 c 0,0.67188 0.0781,0.70704 0.86328,0.79688 z m 0,0"
           id="path7582" />
        <path
           fill-rule="nonzero"
           fill="#35923a"
           fill-opacity="1"
           d="m 547.38672,342.68359 c -0.26953,0.043 -1.30078,0.17969 -2.19531,0.4375 v -0.65234 c -0.20313,0.13672 -0.48438,0.30469 -0.6836,0.4375 -0.26953,0.17187 -0.4414,0.20312 -0.5625,0.20312 -0.95312,0 -2.30859,-0.82031 -2.30859,-2.48828 0,-1.53906 1.35547,-2.75781 3.10547,-2.75781 0.0781,0 0.26953,0 0.44922,0.0312 v -1.28906 c 0,-0.59375 -0.0586,-0.64844 -0.75391,-0.73828 v -0.3711 c 0.74219,-0.0781 1.64844,-0.22656 2.21094,-0.38281 v 6.44922 c 0,0.60547 0.0664,0.66016 0.49218,0.71875 l 0.2461,0.0312 z m -2.19531,-3.75781 c -0.125,-0.3125 -0.41797,-0.55859 -0.84375,-0.55859 -0.34766,0 -1.09766,0.23437 -1.09766,1.85937 0,1.46875 0.81641,2.00781 1.32031,2.01953 0.20313,0 0.3711,-0.0351 0.6211,-0.1914 z m 0,0"
           id="path7584" />
        <path
           fill-rule="nonzero"
           fill="#35923a"
           fill-opacity="1"
           d="m 547.94922,342.97656 v -0.38281 c 0.60547,-0.0781 0.67578,-0.125 0.67578,-0.91797 v -2.1875 c 0,-0.75391 -0.0586,-0.79687 -0.58594,-0.86328 v -0.37109 c 0.70703,-0.0781 1.41406,-0.22266 2.03125,-0.40235 v 3.82422 c 0,0.76172 0.043,0.83984 0.69531,0.91797 v 0.38281 z m 1.3125,-5.8125 c -0.42578,0 -0.8086,-0.35547 -0.8086,-0.79297 0,-0.46093 0.38282,-0.79687 0.82032,-0.79687 0.44922,0 0.80859,0.33594 0.80859,0.79687 0,0.4375 -0.35937,0.79297 -0.82031,0.79297"
           id="path7586" />
        <path
           fill-rule="nonzero"
           fill="#35923a"
           fill-opacity="1"
           d="m 554.80469,342.97656 v -0.38281 c 0.47265,-0.0664 0.5039,-0.11328 0.5039,-0.88672 v -1.91797 c 0,-0.79687 -0.39062,-1.04297 -0.78515,-1.04297 -0.28907,0 -0.53516,0.11328 -0.83985,0.33985 v 2.71093 c 0,0.6836 0.0469,0.73047 0.50391,0.79688 v 0.38281 h -2.59766 v -0.38281 c 0.58203,-0.10156 0.64844,-0.11328 0.64844,-0.83984 v -2.33204 c 0,-0.67578 -0.0898,-0.70703 -0.58203,-0.80859 v -0.35937 c 0.64844,-0.0781 1.42187,-0.22266 2.05078,-0.42579 -0.0117,0.15625 -0.0234,0.55079 -0.0234,0.8086 0.22657,-0.16016 0.46094,-0.32813 0.71875,-0.48438 0.33594,-0.20312 0.55078,-0.29297 0.875,-0.29297 0.90625,0 1.48047,0.66407 1.48047,1.8086 v 2.11719 c 0,0.69531 0.0664,0.73046 0.60547,0.80859 v 0.38281 z m 0,0"
           id="path7588" />
        <path
           fill-rule="nonzero"
           fill="#35923a"
           fill-opacity="1"
           d="m 559.65234,341.22656 c -0.10937,0.1211 -0.19922,0.26953 -0.19922,0.37891 0,0.17969 0.21094,0.41797 0.63672,0.41797 h 1.26953 c 0.6836,0 1.67969,0.27734 1.67969,1.3789 0,1.26563 -1.54687,2.27344 -3.03906,2.27344 -1.46875,0 -2.12891,-0.71484 -2.12891,-1.33203 0,-0.26953 0.10157,-0.44922 0.33594,-0.61719 0.30469,-0.21484 0.59375,-0.40234 0.83984,-0.5625 -0.44531,-0.16797 -0.68359,-0.39062 -0.83984,-0.625 -0.13281,-0.17969 -0.20312,-0.46094 -0.17969,-0.61719 0.52735,-0.22656 1,-0.5625 1.21094,-0.82031 z m 0.53907,0.10938 c -1.27735,0 -2.10938,-0.6836 -2.10938,-1.69141 0,-1.21094 1.16797,-1.78125 2.17578,-1.78125 0.47266,0 0.85547,0.0859 1.26953,0.28906 0.46875,0 1.26563,-0.0781 1.54688,-0.15625 l 0.0547,0.0899 c -0.0664,0.20312 -0.21094,0.57031 -0.41407,0.69531 -0.1914,0 -0.5039,-0.0469 -0.66015,-0.0547 0.16797,0.19922 0.26953,0.49219 0.26953,0.91797 0,1.12109 -1.03125,1.69141 -2.13281,1.69141 m 0.13671,1.86328 c -0.57421,0 -0.85546,0.0664 -1.01953,0.21484 -0.1914,0.15625 -0.3164,0.37891 -0.3164,0.61328 0,0.59766 0.55859,1.05469 1.52734,1.05469 0.85938,0 1.39844,-0.40234 1.39844,-1.00781 0,-0.41406 -0.26953,-0.6836 -0.61719,-0.77344 -0.30078,-0.0781 -0.55859,-0.10156 -0.97266,-0.10156 m -0.125,-4.91016 c -0.34765,0 -0.69531,0.41406 -0.69531,1.23438 0,0.76172 0.25781,1.38672 0.78516,1.38672 0.4375,0 0.68359,-0.45704 0.68359,-1.26563 0,-0.70703 -0.23437,-1.35547 -0.77344,-1.35547"
           id="path7590" />
        <path
           fill-rule="nonzero"
           fill="#35923a"
           fill-opacity="1"
           d="m 570.22656,342.97656 v -0.41797 c 0.70703,-0.0976 0.70703,-0.22265 0.55078,-0.70312 -0.10937,-0.33985 -0.29297,-0.84375 -0.46093,-1.29297 h -2.1836 c -0.125,0.34766 -0.28125,0.77734 -0.39453,1.125 -0.23437,0.70312 0.0352,0.79297 0.92188,0.87109 v 0.41797 h -2.77344 v -0.41797 c 0.70703,-0.0898 0.88672,-0.1875 1.26953,-1.13281 l 2.33203,-5.79687 0.53906,-0.10157 c 0.71875,1.95313 1.48047,3.94922 2.20703,5.82032 0.41407,1.04296 0.51954,1.12109 1.2461,1.21093 v 0.41797 z m -0.98437,-5.36328 c -0.32422,0.80859 -0.64063,1.5625 -0.92188,2.37891 h 1.78516 z m 0,0"
           id="path7592" />
        <path
           fill-rule="nonzero"
           fill="#35923a"
           fill-opacity="1"
           d="m 574.73828,337.99609 v -0.23437 c 0,-0.76172 0.42578,-1.5586 1.0625,-2.06641 0.40625,-0.33594 0.84375,-0.51562 1.38281,-0.58203 0.42578,0 0.77344,0.125 0.97266,0.31641 0.16016,0.15625 0.16016,0.33593 0.10156,0.5039 -0.0664,0.19922 -0.22265,0.39063 -0.40234,0.49219 -0.19141,0.11328 -0.30469,0.0781 -0.41406,-0.0234 -0.26954,-0.27734 -0.60547,-0.63672 -0.92188,-0.63672 -0.30078,0 -0.34766,0.30079 -0.33594,1.75 v 0.48047 h 1.03125 c 0.0469,0.11328 0,0.47266 -0.15625,0.5586 h -0.875 v 3.19922 c 0,0.69531 0.0781,0.75 0.79688,0.83984 v 0.38281 h -2.90235 v -0.38281 c 0.625,-0.0898 0.66016,-0.14453 0.66016,-0.83984 v -3.19922 h -0.74219 l -0.0547,-0.14453 0.29296,-0.41407 z m 0,0"
           id="path7594" />
        <path
           fill-rule="nonzero"
           fill="#35923a"
           fill-opacity="1"
           d="m 580.75,342.97656 h -2.96094 v -0.38281 c 0.59375,-0.0664 0.64844,-0.125 0.64844,-0.79688 v -2.45312 c 0,-0.5625 -0.043,-0.61719 -0.57031,-0.73047 v -0.34766 c 0.69531,-0.0781 1.32422,-0.21484 2.01953,-0.42578 v 1.21094 c 0.5039,-0.77344 0.90625,-1.19141 1.36719,-1.19141 0.41406,0 0.72656,0.28125 0.72656,0.67579 0,0.55078 -0.39063,0.86328 -0.57031,0.95312 -0.15625,0.0664 -0.26954,0.0117 -0.34766,-0.0586 -0.19141,-0.15625 -0.33594,-0.33594 -0.52734,-0.33594 -0.16797,0 -0.44922,0.14844 -0.64844,0.57422 v 2.1289 c 0,0.67188 0.0781,0.70704 0.86328,0.79688 z m 0,0"
           id="path7596" />
        <path
           fill-rule="nonzero"
           fill="#35923a"
           fill-opacity="1"
           d="m 582.54297,342.97656 v -0.38281 c 0.60547,-0.0781 0.67187,-0.125 0.67187,-0.91797 v -2.1875 c 0,-0.75391 -0.0547,-0.79687 -0.58203,-0.86328 v -0.37109 c 0.70703,-0.0781 1.41406,-0.22266 2.03125,-0.40235 v 3.82422 c 0,0.76172 0.043,0.83984 0.69531,0.91797 v 0.38281 z m 1.3125,-5.8125 c -0.42578,0 -0.8086,-0.35547 -0.8086,-0.79297 0,-0.46093 0.38282,-0.79687 0.82032,-0.79687 0.44531,0 0.80859,0.33594 0.80859,0.79687 0,0.4375 -0.36328,0.79297 -0.82031,0.79297"
           id="path7598" />
        <path
           fill-rule="nonzero"
           fill="#35923a"
           fill-opacity="1"
           d="m 590.42969,341.88672 c -0.51563,0.74219 -1.26953,1.22265 -1.95313,1.22265 -1.54687,0 -2.45312,-1.16796 -2.45312,-2.41015 0,-0.82813 0.42578,-1.61328 1.14062,-2.14453 0.74219,-0.54688 1.44922,-0.69532 1.95313,-0.69532 0.42578,0 0.78515,0.125 0.98437,0.27344 0.16016,0.10938 0.21485,0.2461 0.21485,0.41406 -0.0117,0.3125 -0.32422,0.625 -0.50391,0.625 -0.0781,0 -0.15625,-0.0312 -0.24609,-0.12109 -0.48438,-0.40625 -0.86329,-0.58203 -1.16797,-0.58203 -0.4375,0 -0.96485,0.42578 -0.96485,1.63672 0,1.49219 1.08985,1.97265 1.57032,1.97265 0.46093,0 0.79687,-0.125 1.19921,-0.47265 z m 0,0"
           id="path7600" />
        <path
           fill-rule="nonzero"
           fill="#35923a"
           fill-opacity="1"
           d="m 594.90234,343.10937 c -0.30078,0 -0.55078,-0.10156 -0.69531,-0.23437 -0.16016,-0.13672 -0.23437,-0.29297 -0.29297,-0.41797 -0.42578,0.28125 -0.97265,0.65234 -1.1875,0.65234 -0.96484,0 -1.52734,-0.75 -1.52734,-1.44531 0,-0.59375 0.26953,-0.86328 0.86719,-1.10156 0.66015,-0.24609 1.54687,-0.51563 1.80468,-0.73828 v -0.49219 c 0,-0.58594 -0.21484,-0.91016 -0.69531,-0.91016 -0.19141,0 -0.34766,0.0899 -0.44922,0.22657 -0.13281,0.17578 -0.17969,0.40234 -0.26953,0.73828 -0.0781,0.30078 -0.25781,0.38281 -0.48047,0.38281 -0.29297,0 -0.66406,-0.26953 -0.66406,-0.58594 0,-0.19922 0.13672,-0.34765 0.39453,-0.52734 0.50391,-0.33594 1.16406,-0.66016 1.79297,-0.79297 0.44922,0 0.82812,0.0977 1.15625,0.32422 0.48047,0.33594 0.61719,0.80469 0.61719,1.37891 v 1.9375 c 0,0.53906 0.17968,0.67578 0.35547,0.67578 0.11328,0 0.22656,-0.0352 0.35156,-0.0899 l 0.12109,0.37891 z m -1.03125,-2.82421 c -0.20312,0.10937 -0.40625,0.22265 -0.6289,0.34765 -0.34766,0.17969 -0.55078,0.37891 -0.55078,0.76172 0,0.62891 0.4375,0.85156 0.68359,0.85156 0.16016,0 0.31641,-0.0117 0.49609,-0.17968 z m 0,0"
           id="path7602" />
        <path
           fill-rule="nonzero"
           fill="#35923a"
           fill-opacity="1"
           d="m 596.41797,337.75 c 0.73828,-0.26953 0.98828,-0.62891 0.98828,-0.95313 0,-0.42578 -0.40625,-0.5625 -0.86328,-0.66406 -0.0703,-0.0195 -0.19141,-0.13281 -0.19141,-0.39062 0,-0.30078 0.23438,-0.65235 0.76172,-0.65235 0.5625,0 1.15625,0.44141 1.15625,1.29297 0,1.00781 -0.83203,1.5586 -1.68359,1.78125 z m 0,0"
           id="path7604" />
        <path
           fill-rule="nonzero"
           fill="#35923a"
           fill-opacity="1"
           d="m 601.26172,339.45312 c -0.28906,-0.78515 -0.67188,-1.14453 -1.19922,-1.14453 -0.3125,0 -0.59375,0.22657 -0.59375,0.59375 0,0.39453 0.28125,0.60938 0.86328,0.86719 0.91016,0.40234 1.52344,0.78516 1.52344,1.66797 0,1.12109 -1.0625,1.67187 -2.03906,1.67187 -0.58204,0 -1.1875,-0.22265 -1.42579,-0.33593 -0.043,-0.25782 -0.14453,-1.03125 -0.17968,-1.42578 l 0.37109,-0.0664 c 0.23828,0.70703 0.69531,1.36719 1.42578,1.36719 0.42578,0 0.63672,-0.25782 0.63672,-0.58203 0,-0.34766 -0.16797,-0.60547 -0.86328,-0.94141 -0.73828,-0.35938 -1.45703,-0.75391 -1.45703,-1.68359 0,-0.88282 0.73047,-1.58204 1.91797,-1.58204 0.53906,0 0.95312,0.11329 1.21093,0.17188 0.0352,0.30078 0.13672,1.01953 0.17969,1.32031 z m 0,0"
           id="path7606" />
        <path
           fill-rule="nonzero"
           fill="#35923a"
           fill-opacity="1"
           d="m 613.89453,336.10156 c -0.875,0.0899 -0.94922,0.15625 -0.94922,1.08594 v 4.29687 c 0,0.92969 0.0859,0.9961 0.94922,1.07422 v 0.41797 h -3.46484 v -0.41797 c 0.88672,-0.10937 0.95703,-0.14453 0.95703,-1.07422 V 339.375 h -3.03125 v 2.10937 c 0,0.92969 0.10156,0.98438 0.94531,1.07422 v 0.41797 h -3.45703 v -0.41797 c 0.83203,-0.0898 0.95312,-0.14453 0.95312,-1.07422 v -4.29687 c 0,-0.92969 -0.0977,-1.01953 -0.95312,-1.08594 v -0.41406 h 3.45703 v 0.41406 c -0.85547,0.0781 -0.94531,0.15625 -0.94531,1.08594 v 1.60547 h 3.03125 v -1.60547 c 0,-0.92969 -0.11328,-0.99609 -0.95703,-1.08594 v -0.41406 h 3.46484 z m 0,0"
           id="path7608" />
        <path
           fill-rule="nonzero"
           fill="#35923a"
           fill-opacity="1"
           d="m 618.47266,341.875 c -0.6836,1.01172 -1.57813,1.23437 -2.05079,1.23437 -1.5039,0 -2.35546,-1.10937 -2.35546,-2.44531 0,-0.78515 0.37109,-1.55859 0.83984,-2.01953 0.50781,-0.50391 1.13281,-0.78516 1.75,-0.78516 1.09766,0 1.86328,0.91016 1.85156,1.82813 0,0.19141 -0.0117,0.38281 -0.14453,0.41797 -0.21484,0.0547 -1.79687,0.13281 -2.88281,0.17969 0.043,1.1875 0.70703,1.79296 1.51172,1.79296 0.4414,0 0.875,-0.15625 1.28125,-0.5039 z m -2.03907,-3.55469 c -0.44922,0 -0.83203,0.52735 -0.89843,1.41406 0.46093,-0.0117 0.88671,-0.0234 1.35937,-0.0351 0.15625,-0.0117 0.22266,-0.0312 0.22266,-0.22266 0.0117,-0.5625 -0.2461,-1.15625 -0.6836,-1.15625"
           id="path7610" />
        <path
           fill-rule="nonzero"
           fill="#35923a"
           fill-opacity="1"
           d="m 622.95312,343.10937 c -0.30078,0 -0.54687,-0.10156 -0.69531,-0.23437 -0.15625,-0.13672 -0.23437,-0.29297 -0.28906,-0.41797 -0.42969,0.28125 -0.97656,0.65234 -1.19141,0.65234 -0.96093,0 -1.52343,-0.75 -1.52343,-1.44531 0,-0.59375 0.26953,-0.86328 0.86328,-1.10156 0.66015,-0.24609 1.54687,-0.51563 1.80468,-0.73828 v -0.49219 c 0,-0.58594 -0.21093,-0.91016 -0.69531,-0.91016 -0.1914,0 -0.34765,0.0899 -0.44922,0.22657 -0.13281,0.17578 -0.17578,0.40234 -0.26562,0.73828 -0.082,0.30078 -0.25781,0.38281 -0.48438,0.38281 -0.29297,0 -0.66406,-0.26953 -0.66406,-0.58594 0,-0.19922 0.13672,-0.34765 0.39453,-0.52734 0.50391,-0.33594 1.16797,-0.66016 1.79297,-0.79297 0.44922,0 0.83203,0.0977 1.15625,0.32422 0.48438,0.33594 0.61719,0.80469 0.61719,1.37891 v 1.9375 c 0,0.53906 0.17969,0.67578 0.35937,0.67578 0.11328,0 0.22266,-0.0352 0.34766,-0.0899 l 0.12109,0.37891 z m -1.03125,-2.82421 c -0.19921,0.10937 -0.40234,0.22265 -0.625,0.34765 -0.35156,0.17969 -0.55078,0.37891 -0.55078,0.76172 0,0.62891 0.4375,0.85156 0.6836,0.85156 0.15625,0 0.3125,-0.0117 0.49218,-0.17968 z m 0,0"
           id="path7612" />
        <path
           fill-rule="nonzero"
           fill="#35923a"
           fill-opacity="1"
           d="m 624.58984,342.97656 v -0.38281 c 0.63672,-0.10156 0.66016,-0.15625 0.66016,-0.86328 v -5.10156 c 0,-0.58204 -0.0664,-0.65235 -0.64844,-0.77344 v -0.35938 c 0.77344,-0.0781 1.5586,-0.21484 2.09375,-0.38281 v 6.61719 c 0,0.73828 0.0352,0.78515 0.67578,0.86328 v 0.38281 z m 0,0"
           id="path7614" />
        <path
           fill-rule="nonzero"
           fill="#35923a"
           fill-opacity="1"
           d="m 630.375,342.98437 c -0.19141,0.0937 -0.36719,0.125 -0.44531,0.125 -0.86719,0 -1.38282,-0.40234 -1.38282,-1.42578 v -3.1289 h -0.71484 l -0.0703,-0.13282 0.32812,-0.42578 h 0.45703 v -0.92968 c 0.38282,-0.26954 0.92969,-0.62891 1.32422,-0.89844 l 0.14844,0.0898 c -0.0117,0.30078 -0.0352,0.89844 -0.0234,1.73828 h 1.1211 c 0.10156,0.11328 0.0547,0.46094 -0.0899,0.5586 h -1.03125 v 2.75 c 0,0.875 0.35938,0.97656 0.57032,0.97656 0.1914,0 0.33593,-0.0352 0.53906,-0.11328 l 0.11328,0.40234 z m 0,0"
           id="path7616" />
        <path
           fill-rule="nonzero"
           fill="#35923a"
           fill-opacity="1"
           d="m 635.05078,342.97656 v -0.38281 c 0.49219,-0.0781 0.52734,-0.15625 0.52734,-0.76172 v -1.97266 c 0,-0.86718 -0.35937,-1.15625 -0.79687,-1.15625 -0.26953,0 -0.5625,0.0781 -0.81641,0.32422 v 2.80469 c 0,0.60547 0.0547,0.68359 0.57032,0.76172 v 0.38281 h -2.66797 v -0.38281 c 0.54687,-0.0664 0.64843,-0.10156 0.64843,-0.80859 v -5.19141 c 0,-0.51563 -0.0664,-0.64063 -0.69531,-0.73828 v -0.35938 c 0.82031,-0.0664 1.60547,-0.22656 2.14453,-0.38281 v 3.47656 c 0.39063,-0.3789 0.94141,-0.73047 1.51172,-0.73047 0.97656,0 1.5586,0.64063 1.5586,1.875 v 2.05079 c 0,0.70703 0.0781,0.71875 0.61718,0.80859 v 0.38281 z m 0,0"
           id="path7618" />
        <path
           fill-rule="nonzero"
           fill="#231f20"
           fill-opacity="1"
           d="m 450.87109,302.5625 -2.98437,8.03906 c -0.0508,0.14063 -0.16797,0.22656 -0.34766,0.25 -0.23047,0.0274 -0.49609,0.0469 -0.79297,0.0586 -0.29687,0.0156 -0.63281,0.0195 -1.00781,0.0195 -0.20703,0 -0.30859,-0.0625 -0.30859,-0.19141 0,-0.0391 0.004,-0.0703 0.0156,-0.0977 l 8.875,-21.27343 -0.40625,-1.1211 c -0.0273,-0.10547 -0.0391,-0.17578 -0.0391,-0.21484 0,-0.19531 0.12109,-0.30859 0.36719,-0.34766 0.20703,-0.0391 0.44922,-0.0742 0.72656,-0.10937 0.27734,-0.0312 0.54687,-0.0586 0.80469,-0.0859 0.25781,-0.0273 0.49609,-0.043 0.71484,-0.0586 0.22266,-0.0117 0.38281,-0.0195 0.48828,-0.0195 0.25781,0 0.44141,0.14843 0.5586,0.44531 l 8.64062,22.24219 c 0.0391,0.10546 0.0586,0.17578 0.0586,0.21484 0,0.21875 -0.1289,0.34766 -0.38671,0.38672 -0.23047,0.0391 -0.49219,0.0742 -0.78516,0.10547 -0.28906,0.0312 -0.57422,0.0586 -0.85156,0.0781 -0.27735,0.0195 -0.53125,0.0312 -0.76563,0.0391 -0.23047,0.008 -0.40234,0.008 -0.5039,0.008 -0.21875,0 -0.36719,-0.0937 -0.44532,-0.28907 l -3.15625,-8.21484 z m 0.6211,-1.64844 h 7.26562 l -3.68359,-9.60937 z m 0,0"
           id="path7620" />
        <path
           fill-rule="nonzero"
           fill="#231f20"
           fill-opacity="1"
           d="m 473.03516,310.15625 c 0,0.30859 -0.15235,0.49219 -0.46485,0.54297 -0.21875,0.0391 -0.46094,0.0742 -0.72656,0.10547 -0.26172,0.0312 -0.52344,0.0586 -0.77344,0.0781 -0.25,0.0195 -0.48437,0.0312 -0.69922,0.0391 -0.21093,0.008 -0.37109,0.008 -0.47265,0.008 -0.3125,0 -0.46485,-0.16016 -0.46485,-0.48438 v -19.66797 c 0,-0.65625 -0.14843,-1.09375 -0.44531,-1.30468 -0.29687,-0.21485 -0.66797,-0.32032 -1.10547,-0.32032 -0.26953,0 -0.55078,0.0195 -0.83203,0.0586 l -0.11719,-1.06641 c 0.26953,-0.0508 0.66407,-0.11719 1.1836,-0.19141 0.51562,-0.0781 1.05468,-0.15625 1.61718,-0.23437 0.5625,-0.0781 1.10157,-0.14063 1.625,-0.19531 0.52344,-0.0508 0.9336,-0.0781 1.23047,-0.0781 h 6.89844 c 0.4375,0 0.89844,0 1.375,-0.008 0.47656,-0.008 1.00781,-0.0156 1.58984,-0.0312 0.20704,0 0.32422,0.0977 0.34766,0.29297 0.0273,0.16797 0.0508,0.39844 0.0703,0.69531 0.0195,0.29688 0.0352,0.62109 0.0547,0.96875 0.0195,0.35156 0.0352,0.70703 0.0508,1.07813 0.0117,0.36718 0.0234,0.70703 0.0274,1.01562 0.008,0.30859 0.0156,0.57422 0.0195,0.79688 0.008,0.21875 0.0117,0.35156 0.0117,0.40625 l -0.96875,0.0976 c -0.22266,-0.91797 -0.44532,-1.6289 -0.66797,-2.13281 -0.22657,-0.50391 -0.51563,-0.87109 -0.86328,-1.10547 -0.34766,-0.23047 -0.79297,-0.37109 -1.32813,-0.41797 -0.53516,-0.043 -1.23047,-0.0664 -2.08203,-0.0664 h -3.25391 c -0.21875,0 -0.38672,0.008 -0.49609,0.0195 -0.10938,0.0117 -0.1875,0.0469 -0.24219,0.0976 -0.0508,0.0508 -0.082,0.125 -0.0859,0.22266 -0.008,0.0977 -0.0117,0.23047 -0.0117,0.39844 v 8.66015 c 1.05859,-0.0547 2.02343,-0.10156 2.88671,-0.14453 0.86719,-0.0469 1.61329,-0.0859 2.23829,-0.11719 0.6289,-0.0312 1.13281,-0.0586 1.51171,-0.0781 0.37891,-0.0195 0.61719,-0.0312 0.70704,-0.0312 0.36328,0 0.54296,0.19531 0.54296,0.58203 0,0.24609 -0.0117,0.5 -0.0391,0.75781 -0.0273,0.25782 -0.0586,0.53516 -0.0976,0.83203 l -7.75,-0.27343 z m 0,0"
           id="path7622" />
        <path
           fill-rule="nonzero"
           fill="#231f20"
           fill-opacity="1"
           d="m 493.0625,298.91797 c 0.99219,-0.0625 1.87109,-0.20313 2.63281,-0.42578 0.76172,-0.21875 1.39844,-0.53907 1.91016,-0.95703 0.50781,-0.42188 0.89844,-0.95313 1.16015,-1.60157 0.26563,-0.64453 0.39844,-1.42578 0.39844,-2.34375 0,-0.76172 -0.14062,-1.42578 -0.42578,-1.99609 -0.28516,-0.56641 -0.67969,-1.03516 -1.18359,-1.40234 -0.50391,-0.36719 -1.09766,-0.64454 -1.78125,-0.82422 -0.6836,-0.17969 -1.42188,-0.26953 -2.20703,-0.26953 -0.51954,0 -0.90625,0.0391 -1.16407,0.125 -0.25781,0.082 -0.38672,0.32031 -0.38672,0.70703 v 20.22656 c 0,0.30859 -0.15625,0.49219 -0.46484,0.54297 -0.21875,0.0391 -0.46094,0.0742 -0.72656,0.10547 -0.26563,0.0312 -0.52344,0.0586 -0.77735,0.0781 -0.25,0.0195 -0.48437,0.0312 -0.69531,0.0391 -0.21484,0.008 -0.37109,0.008 -0.47656,0.008 -0.30859,0 -0.46484,-0.16016 -0.46484,-0.48047 v -19.57031 c 0,-0.64454 -0.14063,-1.07422 -0.42579,-1.28907 -0.28125,-0.21093 -0.65234,-0.32031 -1.10156,-0.32031 -0.26172,0 -0.54297,0.0195 -0.85547,0.0586 l -0.11328,-1.0664 c 1.28906,-0.21875 2.62891,-0.40235 4.01953,-0.55078 1.38672,-0.14844 2.80469,-0.22266 4.25,-0.22266 0.6211,0 1.27344,0.0273 1.95703,0.0781 0.6875,0.0508 1.35938,0.14843 2.01563,0.28906 0.66016,0.14453 1.28516,0.33984 1.87891,0.59375 0.59375,0.25 1.11328,0.57812 1.5625,0.98437 0.44531,0.41016 0.79687,0.89844 1.0625,1.47657 0.26562,0.57421 0.39843,1.2539 0.39843,2.04296 0,0.83985 -0.125,1.57813 -0.3789,2.21875 -0.25,0.63672 -0.59766,1.20313 -1.04688,1.69532 -0.44531,0.48828 -0.96484,0.91015 -1.55859,1.25781 -0.59375,0.34766 -1.23438,0.64453 -1.91797,0.89062 v 0.11719 c 0.32422,0.0664 0.67187,0.16406 1.04687,0.30078 0.375,0.13672 0.73829,0.32813 1.09375,0.57813 0.35547,0.2539 0.6836,0.57422 0.98829,0.96094 0.30468,0.38671 0.54687,0.86718 0.72656,1.43359 l 1.43359,4.4375 c 0.19531,0.60547 0.3711,1.08984 0.53516,1.45312 0.16015,0.36329 0.33203,0.63672 0.51172,0.82422 0.17968,0.1875 0.38672,0.3086 0.62109,0.36719 0.23047,0.0586 0.52344,0.0859 0.87109,0.0859 l 0.0586,1.00781 c -0.2461,0.0508 -0.51563,0.10156 -0.80469,0.14453 -0.28906,0.0469 -0.57812,0.082 -0.86328,0.10938 -0.28516,0.0234 -0.53906,0.0469 -0.76563,0.0664 -0.22656,0.0195 -0.39453,0.0274 -0.51171,0.0274 -0.41407,0 -0.78125,-0.0469 -1.10547,-0.14453 -0.32422,-0.0937 -0.61328,-0.26172 -0.8711,-0.50391 -0.25781,-0.23828 -0.48828,-0.55469 -0.6875,-0.94922 -0.20312,-0.39062 -0.38672,-0.88672 -0.55078,-1.48047 l -1.3789,-4.72656 c -0.19141,-0.67188 -0.42579,-1.21094 -0.69532,-1.60938 -0.27343,-0.39843 -0.60937,-0.70703 -1.01562,-0.92187 -0.41016,-0.21094 -0.89844,-0.35156 -1.47656,-0.42578 -0.57422,-0.0703 -1.26563,-0.11719 -2.08204,-0.14453 z m 0,0"
           id="path7624" />
        <path
           fill-rule="nonzero"
           fill="#231f20"
           fill-opacity="1"
           d="m 507.66406,288.24219 c 0.69531,-0.12891 1.35938,-0.23828 1.98438,-0.33203 0.6289,-0.0899 1.18359,-0.16016 1.66797,-0.21094 0.48437,-0.0508 0.88671,-0.0899 1.21093,-0.11719 0.32422,-0.0234 0.53125,-0.0391 0.6211,-0.0391 0.41015,0 0.61718,0.20703 0.61718,0.62109 v 21.99219 c 0,0.30859 -0.15234,0.49219 -0.46484,0.54297 -0.21875,0.0391 -0.46094,0.0742 -0.72266,0.10547 -0.26953,0.0312 -0.52734,0.0586 -0.77734,0.0781 -0.25,0.0195 -0.48437,0.0312 -0.69922,0.0391 -0.21094,0.008 -0.37109,0.008 -0.47265,0.008 -0.3125,0 -0.46485,-0.16016 -0.46485,-0.48438 v -19.43359 c 0,-0.36328 -0.0351,-0.65625 -0.10547,-0.88281 -0.0742,-0.22657 -0.17578,-0.40235 -0.3125,-0.53125 -0.13672,-0.12891 -0.29687,-0.21875 -0.48437,-0.27344 -0.1875,-0.0508 -0.39844,-0.0742 -0.62891,-0.0742 -0.28515,0 -0.57031,0.0195 -0.85156,0.0586 z m 0,0"
           id="path7626" />
        <path
           fill-rule="nonzero"
           fill="#231f20"
           fill-opacity="1"
           d="m 537.90625,308.91797 c -0.67188,0.375 -1.40625,0.6914 -2.21094,0.94922 -0.80078,0.25781 -1.58203,0.46484 -2.35156,0.61718 -0.76953,0.15625 -1.48438,0.26954 -2.15234,0.33985 -0.66407,0.0703 -1.20313,0.10547 -1.61719,0.10547 -1.78125,0 -3.41016,-0.29688 -4.88281,-0.89844 -1.46875,-0.60156 -2.73438,-1.42969 -3.78516,-2.49219 -1.05469,-1.05859 -1.87109,-2.3164 -2.44922,-3.77734 -0.58203,-1.45703 -0.875,-3.05469 -0.875,-4.78516 0,-1.87109 0.33203,-3.53125 0.98828,-4.97656 0.66016,-1.44922 1.57031,-2.66406 2.73047,-3.65234 1.16406,-0.98829 2.53906,-1.73829 4.12891,-2.25 1.58984,-0.50782 3.3125,-0.76563 5.17187,-0.76563 1.04688,0 2.04688,0.0703 3.00391,0.20313 0.95703,0.13671 1.88672,0.30078 2.78906,0.49609 0.11719,0.0273 0.21094,0.082 0.28125,0.16406 0.0703,0.0859 0.11328,0.17188 0.125,0.26172 0.0117,0.17969 0.0312,0.41406 0.0508,0.69922 0.0195,0.28125 0.0352,0.58984 0.0469,0.91797 0.0156,0.33203 0.0312,0.66797 0.0469,1.00781 0.0195,0.34375 0.0352,0.66016 0.0508,0.94922 0.0117,0.29297 0.0234,0.53906 0.0274,0.74609 0.008,0.20703 0.0117,0.33594 0.0117,0.38672 l -0.96875,0.0977 c -0.0781,-0.80078 -0.3125,-1.47656 -0.70704,-2.03516 -0.39453,-0.55469 -0.88281,-1.0039 -1.46484,-1.34375 -0.58203,-0.34375 -1.22266,-0.59375 -1.92578,-0.74609 -0.70313,-0.15625 -1.40625,-0.23438 -2.10156,-0.23438 -1.41016,0 -2.63282,0.23438 -3.67188,0.69922 -1.03906,0.46485 -1.90625,1.10547 -2.59765,1.92578 -0.69141,0.82032 -1.20704,1.78907 -1.55079,2.90625 -0.33984,1.11719 -0.51171,2.33594 -0.51171,3.65235 0,1.53906 0.21093,2.96875 0.6289,4.29297 0.42188,1.32421 1.05078,2.46875 1.89063,3.4375 0.83984,0.96875 1.88281,1.73046 3.13672,2.28515 1.2539,0.5586 2.71875,0.83203 4.39843,0.83203 1.00782,0 1.98438,-0.10547 2.92578,-0.32812 0.94141,-0.21875 1.89844,-0.51563 2.86719,-0.89063 z m 0,0"
           id="path7628" />
        <path
           fill-rule="nonzero"
           fill="#231f20"
           fill-opacity="1"
           d="m 544.69141,302.5625 -2.98438,8.03906 c -0.0547,0.14063 -0.16797,0.22656 -0.35156,0.25 -0.23047,0.0274 -0.4961,0.0469 -0.79297,0.0586 -0.29688,0.0156 -0.63281,0.0195 -1.00781,0.0195 -0.20703,0 -0.3086,-0.0625 -0.3086,-0.19141 0,-0.0391 0.004,-0.0703 0.0195,-0.0977 l 8.8711,-21.27343 -0.40625,-1.1211 c -0.0273,-0.10547 -0.0391,-0.17578 -0.0391,-0.21484 0,-0.19531 0.125,-0.30859 0.37109,-0.34766 0.20312,-0.0391 0.44531,-0.0742 0.72656,-0.10937 0.27735,-0.0312 0.54297,-0.0586 0.80078,-0.0859 0.25782,-0.0273 0.5,-0.043 0.71875,-0.0586 0.21875,-0.0117 0.37891,-0.0195 0.48438,-0.0195 0.25781,0 0.44531,0.14843 0.5625,0.44531 l 8.64062,22.24219 c 0.0391,0.10546 0.0547,0.17578 0.0547,0.21484 0,0.21875 -0.12891,0.34766 -0.38672,0.38672 -0.23047,0.0391 -0.49219,0.0742 -0.78125,0.10547 -0.29297,0.0312 -0.57812,0.0586 -0.85547,0.0781 -0.27734,0.0195 -0.53125,0.0312 -0.76562,0.0391 -0.23047,0.008 -0.39844,0.008 -0.50391,0.008 -0.21875,0 -0.36719,-0.0937 -0.44531,-0.28907 l -3.15625,-8.21484 z m 0.61718,-1.64844 h 7.26563 l -3.67969,-9.60937 z m 0,0"
           id="path7630" />
        <path
           fill-rule="nonzero"
           fill="#231f20"
           fill-opacity="1"
           d="m 590.72656,308.91797 c -0.67187,0.375 -1.40625,0.6914 -2.20703,0.94922 -0.80078,0.25781 -1.58594,0.46484 -2.35547,0.61718 -0.76953,0.15625 -1.48437,0.26954 -2.14844,0.33985 -0.66796,0.0703 -1.20703,0.10547 -1.62109,0.10547 -1.78125,0 -3.41016,-0.29688 -4.87891,-0.89844 -1.47656,-0.60156 -2.73828,-1.42969 -3.78906,-2.49219 -1.05469,-1.05859 -1.87109,-2.3164 -2.45312,-3.77734 -0.57813,-1.45703 -0.8711,-3.05469 -0.8711,-4.78516 0,-1.87109 0.33203,-3.53125 0.98828,-4.97656 0.66016,-1.44922 1.57032,-2.66406 2.73047,-3.65234 1.16407,-0.98829 2.53907,-1.73829 4.12891,-2.25 1.58984,-0.50782 3.3125,-0.76563 5.17187,-0.76563 1.04688,0 2.05079,0.0703 3.00391,0.20313 0.95703,0.13671 1.88672,0.30078 2.78906,0.49609 0.11719,0.0273 0.21094,0.082 0.28125,0.16406 0.0703,0.0859 0.11328,0.17188 0.125,0.26172 0.0156,0.17969 0.0312,0.41406 0.0508,0.69922 0.0195,0.28125 0.0352,0.58984 0.0469,0.91797 0.0117,0.33203 0.0312,0.66797 0.0508,1.00781 0.0195,0.34375 0.0352,0.66016 0.0469,0.94922 0.0117,0.29297 0.0234,0.53906 0.0273,0.74609 0.008,0.20703 0.0117,0.33594 0.0117,0.38672 l -0.96875,0.0977 c -0.0781,-0.80078 -0.3125,-1.47656 -0.70703,-2.03516 -0.39453,-0.55469 -0.88282,-1.0039 -1.46094,-1.34375 -0.58203,-0.34375 -1.22656,-0.59375 -1.92969,-0.74609 -0.70312,-0.15625 -1.40625,-0.23438 -2.10156,-0.23438 -1.41016,0 -2.63281,0.23438 -3.67188,0.69922 -1.03906,0.46485 -1.90625,1.10547 -2.59765,1.92578 -0.6875,0.82032 -1.20703,1.78907 -1.55078,2.90625 -0.33985,1.11719 -0.51172,2.33594 -0.51172,3.65235 0,1.53906 0.21094,2.96875 0.6289,4.29297 0.42188,1.32421 1.05079,2.46875 1.89063,3.4375 0.83984,0.96875 1.88672,1.73046 3.14062,2.28515 1.25,0.5586 2.71485,0.83203 4.39454,0.83203 1.00781,0 1.98437,-0.10547 2.92578,-0.32812 0.94531,-0.21875 1.89843,-0.51563 2.86718,-0.89063 z m 0,0"
           id="path7632" />
        <path
           fill-rule="nonzero"
           fill="#231f20"
           fill-opacity="1"
           d="m 594.86328,310.5625 c -0.30859,0 -0.46484,-0.16016 -0.46484,-0.48438 v -19.12109 c 0,-0.66016 -0.14063,-1.09375 -0.42578,-1.30859 -0.28516,-0.21485 -0.65235,-0.32032 -1.10547,-0.32032 -0.25782,0 -0.53907,0.0195 -0.85157,0.0586 l -0.11718,-1.04688 c 1.44922,-0.24218 2.91015,-0.4414 4.39062,-0.58984 1.47656,-0.14844 2.96094,-0.22266 4.44531,-0.22266 1.24219,0 2.44922,0.0703 3.63282,0.21094 1.18359,0.14453 2.29297,0.38281 3.33203,0.71875 1.03906,0.33594 1.99219,0.78125 2.85937,1.33594 0.86328,0.55469 1.60938,1.24609 2.23828,2.07422 0.625,0.82812 1.11329,1.80078 1.46094,2.92578 0.34766,1.12109 0.52344,2.42187 0.52344,3.89453 0,1.94922 -0.34766,3.68359 -1.03516,5.20312 -0.6914,1.51563 -1.65625,2.79688 -2.89062,3.84375 -1.23047,1.04688 -2.69531,1.83985 -4.39453,2.38282 -1.69922,0.54297 -3.55078,0.8125 -5.55078,0.8125 -0.58204,0 -1.09766,-0.0195 -1.54297,-0.0586 -0.44532,-0.0391 -0.88672,-0.0781 -1.32422,-0.125 -0.44141,-0.043 -0.91016,-0.0859 -1.40625,-0.125 -0.4961,-0.0391 -1.08594,-0.0586 -1.77344,-0.0586 m 3.14063,-1.55078 c 0.49218,0.11719 0.98828,0.19922 1.49218,0.24219 0.50391,0.0469 1.02344,0.0703 1.56641,0.0703 1.55078,0 2.93359,-0.23438 4.14844,-0.70703 1.21484,-0.47266 2.23437,-1.14844 3.05859,-2.02735 0.82813,-0.875 1.45703,-1.9414 1.89063,-3.19531 0.43359,-1.25391 0.64843,-2.66016 0.64843,-4.22266 0,-1.48437 -0.22265,-2.84375 -0.66797,-4.07031 -0.44531,-1.22656 -1.09375,-2.28125 -1.94531,-3.16797 -0.85547,-0.88281 -1.89844,-1.57031 -3.14062,-2.05078 -1.23828,-0.48437 -2.65625,-0.73047 -4.24219,-0.73047 h -0.98828 c -0.58203,0 -1.03125,0.0508 -1.34766,0.14844 -0.3164,0.0977 -0.47265,0.35547 -0.47265,0.78125 z m 0,0"
           id="path7634" />
        <path
           fill-rule="nonzero"
           fill="#231f20"
           fill-opacity="1"
           d="m 637.65234,308.91797 c -0.67187,0.375 -1.40625,0.6914 -2.20703,0.94922 -0.80078,0.25781 -1.58594,0.46484 -2.35547,0.61718 -0.76953,0.15625 -1.48437,0.26954 -2.15234,0.33985 -0.66406,0.0703 -1.20313,0.10547 -1.61719,0.10547 -1.78125,0 -3.41015,-0.29688 -4.88281,-0.89844 -1.47266,-0.60156 -2.73438,-1.42969 -3.78516,-2.49219 -1.05468,-1.05859 -1.87109,-2.3164 -2.45312,-3.77734 -0.57813,-1.45703 -0.8711,-3.05469 -0.8711,-4.78516 0,-1.87109 0.32813,-3.53125 0.98829,-4.97656 0.66015,-1.44922 1.57031,-2.66406 2.73046,-3.65234 1.16407,-0.98829 2.53907,-1.73829 4.12891,-2.25 1.58984,-0.50782 3.3125,-0.76563 5.17188,-0.76563 1.04687,0 2.04687,0.0703 3.0039,0.20313 0.95313,0.13671 1.88672,0.30078 2.78906,0.49609 0.11719,0.0273 0.21094,0.082 0.28125,0.16406 0.0703,0.0859 0.11329,0.17188 0.125,0.26172 0.0117,0.17969 0.0312,0.41406 0.0508,0.69922 0.0195,0.28125 0.0351,0.58984 0.0469,0.91797 0.0117,0.33203 0.0312,0.66797 0.0508,1.00781 0.0156,0.34375 0.0352,0.66016 0.0469,0.94922 0.0117,0.29297 0.0234,0.53906 0.0273,0.74609 0.008,0.20703 0.0117,0.33594 0.0117,0.38672 l -0.96875,0.0977 c -0.0781,-0.80078 -0.3125,-1.47656 -0.70703,-2.03516 -0.39453,-0.55469 -0.88281,-1.0039 -1.46485,-1.34375 -0.58203,-0.34375 -1.22265,-0.59375 -1.92578,-0.74609 -0.70703,-0.15625 -1.40625,-0.23438 -2.10156,-0.23438 -1.41016,0 -2.63281,0.23438 -3.67187,0.69922 -1.03907,0.46485 -1.90625,1.10547 -2.59766,1.92578 -0.69141,0.82032 -1.20703,1.78907 -1.55078,2.90625 -0.33985,1.11719 -0.51172,2.33594 -0.51172,3.65235 0,1.53906 0.21094,2.96875 0.62891,4.29297 0.41796,1.32421 1.05078,2.46875 1.89062,3.4375 0.83984,0.96875 1.88281,1.73046 3.13672,2.28515 1.25391,0.5586 2.71875,0.83203 4.39844,0.83203 1.00781,0 1.98437,-0.10547 2.92578,-0.32812 0.94531,-0.21875 1.89844,-0.51563 2.86719,-0.89063 z m 0,0"
           id="path7636" />
      </g>
    </g>
  </g>
</svg>
