<?xml version="1.0" encoding="UTF-8" standalone="no"?>
<svg
   xmlns:dc="http://purl.org/dc/elements/1.1/"
   xmlns:cc="http://creativecommons.org/ns#"
   xmlns:rdf="http://www.w3.org/1999/02/22-rdf-syntax-ns#"
   xmlns:svg="http://www.w3.org/2000/svg"
   xmlns="http://www.w3.org/2000/svg"
   xmlns:sodipodi="http://sodipodi.sourceforge.net/DTD/sodipodi-0.dtd"
   xmlns:inkscape="http://www.inkscape.org/namespaces/inkscape"
   id="Layer_1"
   data-name="Layer 1"
   viewBox="0 0 744 240.00002"
   version="1.1"
   sodipodi:docname="jumbotron.svg"
   width="744"
   height="240.00002"
   inkscape:version="0.92.3 (2405546, 2018-03-11)">
  <metadata
     id="metadata1212">
    <rdf:RDF>
      <cc:Work
         rdf:about="">
        <dc:format>image/svg+xml</dc:format>
        <dc:type
           rdf:resource="http://purl.org/dc/dcmitype/StillImage" />
        <dc:title>p2pu-pattern-2</dc:title>
      </cc:Work>
    </rdf:RDF>
  </metadata>
  <defs
     id="defs1210" />
  <sodipodi:namedview
     pagecolor="#ffffff"
     bordercolor="#666666"
     borderopacity="1"
     objecttolerance="10"
     gridtolerance="10"
     guidetolerance="10"
     inkscape:pageopacity="0"
     inkscape:pageshadow="2"
     inkscape:window-width="1853"
     inkscape:window-height="1025"
     id="namedview1208"
     showgrid="false"
     inkscape:zoom="1.7583333"
     inkscape:cx="721.29919"
     inkscape:cy="49.20097"
     inkscape:window-x="67"
     inkscape:window-y="27"
     inkscape:window-maximized="1"
     inkscape:current-layer="Layer_1"
     fit-margin-top="0"
     fit-margin-left="0"
     fit-margin-right="0"
     fit-margin-bottom="0" />
  <title
     id="title1043">p2pu-pattern-2</title>
  <path
     d="M 30.75,8.910004 A 8.91,8.91 0 0 0 39.66,4e-6 H 21.83 a 8.91,8.91 0 0 0 8.92,8.91 z"
     id="path1045"
     inkscape:connector-curvature="0"
     style="opacity:0.07300002" />
  <path
     d="m 52.48,0.430004 a 9.5,9.5 0 0 0 19,0 c 0,-0.15 0,-0.29 0,-0.43 H 52.5 c 0,0.14 -0.02,0.28 -0.02,0.43 z"
     id="path1047"
     inkscape:connector-curvature="0"
     style="opacity:0.07300002" />
  <path
     d="m 83.4,0.530004 a 9.3,9.3 0 0 0 9.3,9.31 9.31,9.31 0 0 0 9.3,-9.31 c 0,-0.18 0,-0.35 0,-0.53 H 83.43 c -0.01,0.18 -0.03,0.35 -0.03,0.53 z"
     id="path1049"
     inkscape:connector-curvature="0"
     style="opacity:0.09800002" />
  <path
     d="m 113.74,0.590004 a 9.35,9.35 0 0 0 9.35,9.35 9.36,9.36 0 0 0 9.36,-9.35 c 0,-0.2 0,-0.4 0,-0.59 h -18.68 a 5.68,5.68 0 0 0 -0.03,0.59 z"
     id="path1051"
     inkscape:connector-curvature="0"
     style="opacity:0.07300002" />
  <path
     d="m 145.56,0.550004 a 9.3,9.3 0 1 0 18.6,0 c 0,-0.19 0,-0.37 0,-0.55 h -18.57 c -0.01,0.18 -0.03,0.36 -0.03,0.55 z"
     id="path1053"
     inkscape:connector-curvature="0"
     style="opacity:0.07300002" />
  <path
     d="m 185.6,9.120004 a 9.14,9.14 0 0 0 9.15,-9.12 h -18.3 a 9.15,9.15 0 0 0 9.15,9.12 z"
     id="path1055"
     inkscape:connector-curvature="0"
     style="opacity:0.07300002" />
  <path
     d="m 216.8,9.500004 a 9.52,9.52 0 0 0 9.52,-9.5 h -19 a 9.52,9.52 0 0 0 9.48,9.5 z"
     id="path1057"
     inkscape:connector-curvature="0"
     style="opacity:0.07300002" />
  <circle
     cx="29.9"
     cy="29.970003"
     r="9.6400003"
     id="circle1059"
     style="opacity:0.07300002" />
  <circle
     cx="61.560001"
     cy="29.250004"
     r="7.5300002"
     id="circle1061"
     style="opacity:0.07300002" />
  <circle
     cx="92.419998"
     cy="29.630003"
     r="8.8500004"
     id="circle1063"
     style="opacity:0.07300002" />
  <circle
     cx="102.65331"
     cy="75.017662"
     r="8.1099997"
     transform="rotate(-22.5)"
     id="circle1065"
     style="opacity:0.07300002" />
  <circle
     cx="154.42999"
     cy="30.050003"
     r="8.7600002"
     id="circle1067"
     style="opacity:0.07300002" />
  <circle
     cx="184.69"
     cy="29.860004"
     r="9.3900003"
     id="circle1069"
     style="opacity:0.07300002" />
  <path
     d="m 216,20.820004 a 8.93,8.93 0 1 0 9,8.93 8.93,8.93 0 0 0 -9,-8.93 z"
     id="path1071"
     inkscape:connector-curvature="0"
     style="opacity:0.07300002" />
  <circle
     cx="30.24"
     cy="59.800003"
     r="8.0799999"
     id="circle1073"
     style="opacity:0.07300002" />
  <path
     d="m 61.51,70.050004 a 10.21,10.21 0 1 0 -10.21,-10.21 10.21,10.21 0 0 0 10.21,10.21 z"
     id="path1075"
     inkscape:connector-curvature="0"
     style="opacity:0.07300002" />
  <circle
     cx="62.056347"
     cy="90.531136"
     r="9.1300001"
     transform="rotate(-22.5)"
     id="circle1077"
     style="opacity:0.07300002" />
  <path
     d="m 123.69,51.930004 a 8.23,8.23 0 1 0 8.23,8.23 8.22,8.22 0 0 0 -8.23,-8.23 z"
     id="path1079"
     inkscape:connector-curvature="0"
     style="opacity:0.07300002" />
  <circle
     cx="154.63"
     cy="59.290005"
     r="9.1599998"
     id="circle1081"
     style="opacity:0.07300002" />
  <circle
     cx="185.42999"
     cy="59.320004"
     r="9.8400002"
     id="circle1083"
     style="opacity:0.07300002" />
  <path
     d="m 216.35,67.690004 a 7.9,7.9 0 1 0 -7.89,-7.89 7.89,7.89 0 0 0 7.89,7.89 z"
     id="path1085"
     inkscape:connector-curvature="0"
     style="opacity:0.07300002" />
  <circle
     cx="30.040001"
     cy="89.910011"
     r="8.8199997"
     id="circle1087"
     style="opacity:0.07300002" />
  <circle
     cx="45.804569"
     cy="98.508125"
     r="8.3299999"
     transform="rotate(-9.22)"
     id="circle1089"
     style="opacity:0.07300002" />
  <circle
     cx="92.139999"
     cy="88.890007"
     r="7.5300002"
     id="circle1091"
     style="opacity:0.07300002" />
  <path
     d="m 130.91,89.430004 a 7.44,7.44 0 1 0 -7.43,7.43 7.43,7.43 0 0 0 7.43,-7.43 z"
     id="path1093"
     inkscape:connector-curvature="0"
     style="opacity:0.07300002" />
  <circle
     cx="154.08"
     cy="89.560005"
     r="9.5"
     id="circle1095"
     style="opacity:0.18900003" />
  <circle
     cx="-11.525594"
     cy="205.30701"
     r="8.4499998"
     transform="rotate(-67.5)"
     id="circle1097"
     style="opacity:0.07300002" />
  <circle
     cx="0.45995754"
     cy="233.65468"
     r="8.7600002"
     transform="rotate(-67.5)"
     id="circle1099"
     style="opacity:0.07300002" />
  <circle
     cx="-98.316887"
     cy="74.225601"
     r="8.1199999"
     transform="rotate(-67.5)"
     id="circle1101"
     style="opacity:0.07300002" />
  <circle
     cx="62.389999"
     cy="119.20001"
     r="7.6300001"
     id="circle1103"
     style="opacity:0.178" />
  <circle
     cx="-75.048019"
     cy="131.33389"
     r="8.1599998"
     transform="rotate(-67.5)"
     id="circle1105"
     style="opacity:0.07300002" />
  <path
     d="m 123.63,126.33 a 7.61,7.61 0 1 0 -7.61,-7.61 7.61,7.61 0 0 0 7.61,7.61 z"
     id="path1107"
     inkscape:connector-curvature="0"
     style="opacity:0.07300002" />
  <circle
     cx="-92.728889"
     cy="171.60501"
     r="8.6099997"
     transform="rotate(-80.78)"
     id="circle1109"
     style="opacity:0.07300002" />
  <path
     d="m 179,119.14 a 7.36,7.36 0 1 0 7.36,-7.36 7.37,7.37 0 0 0 -7.36,7.36 z"
     id="path1111"
     inkscape:connector-curvature="0"
     style="opacity:0.07300002" />
  <circle
     cx="-26.445072"
     cy="246.20181"
     r="8.0200005"
     transform="rotate(-67.5)"
     id="circle1113"
     style="opacity:0.07300002" />
  <circle
     cx="29.549999"
     cy="149.17999"
     r="10.2"
     id="circle1115"
     style="opacity:0.07300002" />
  <circle
     cx="36.616047"
     cy="157.19379"
     r="8.7700005"
     transform="rotate(-9.22)"
     id="circle1117"
     style="opacity:0.07300002" />
  <circle
     cx="92.129997"
     cy="149.34"
     r="8.3100004"
     id="circle1119"
     style="opacity:0.07300002" />
  <circle
     cx="97.327354"
     cy="166.8963"
     r="10.33"
     transform="rotate(-9.22)"
     id="circle1121"
     style="opacity:0.07300002" />
  <circle
     cx="-79.77459"
     cy="199.37787"
     r="8.6899996"
     transform="rotate(-67.5)"
     id="circle1123"
     style="opacity:0.07300002" />
  <circle
     cx="114.01279"
     cy="208.56665"
     r="8.71"
     transform="rotate(-22.5)"
     id="circle1125"
     style="opacity:0.09500002" />
  <circle
     cx="215.95"
     cy="149.74001"
     r="9.3000002"
     id="circle1127"
     style="opacity:0.044" />
  <circle
     cx="30"
     cy="178.86"
     r="8.0699997"
     id="circle1129"
     style="opacity:0.07300002" />
  <circle
     cx="61.580002"
     cy="178.95"
     r="10.15"
     id="circle1131"
     style="opacity:0.16700003" />
  <circle
     cx="-130.21385"
     cy="153.41066"
     r="10.04"
     transform="rotate(-67.5)"
     id="circle1133"
     style="opacity:0.07300002" />
  <circle
     cx="109.95045"
     cy="187.68608"
     r="8.1800003"
     transform="rotate(-4.07)"
     id="circle1135"
     style="opacity:0.07300002" />
  <circle
     cx="154.32001"
     cy="178.63"
     r="8.6800003"
     id="circle1137"
     style="opacity:0.07300002" />
  <circle
     cx="154.22487"
     cy="206.02412"
     r="7.9400001"
     transform="rotate(-9.22)"
     id="circle1139"
     style="opacity:0.07300002" />
  <path
     d="m 216.12,186.88 a 8.34,8.34 0 1 0 -8.34,-8.33 8.34,8.34 0 0 0 8.34,8.33 z"
     id="path1141"
     inkscape:connector-curvature="0"
     style="opacity:0.07300002" />
  <circle
     cx="31.1"
     cy="208.17999"
     r="8.3800001"
     id="circle1143"
     style="opacity:0.07300002" />
  <path
     d="m 62.22,201.23 a 7.59,7.59 0 1 0 7.59,7.59 7.59,7.59 0 0 0 -7.59,-7.59 z"
     id="path1145"
     inkscape:connector-curvature="0"
     style="opacity:0.07300002" />
  <path
     d="m 93.82,200.08 a 7.79,7.79 0 1 0 7.79,7.79 7.79,7.79 0 0 0 -7.79,-7.79 z"
     id="path1147"
     inkscape:connector-curvature="0"
     style="opacity:0.07300002" />
  <circle
     cx="124.55"
     cy="208.63"
     r="9.6599998"
     id="circle1149"
     style="opacity:0.07300002" />
  <circle
     cx="155.2"
     cy="208.84"
     r="9.0600004"
     id="circle1151"
     style="opacity:0.11600001" />
  <circle
     cx="92.51355"
     cy="263.71805"
     r="8.5200005"
     transform="rotate(-22.5)"
     id="circle1153"
     style="opacity:0.07300002" />
  <circle
     cx="216.81"
     cy="208.03999"
     r="8.7200003"
     id="circle1155"
     style="opacity:0.07300002" />
  <path
     d="M 30.75,231.07 A 8.92,8.92 0 0 0 21.83,240 h 17.83 a 8.92,8.92 0 0 0 -8.91,-8.93 z"
     id="path1157"
     inkscape:connector-curvature="0"
     style="opacity:0.07300002" />
  <path
     d="M 62,230.94 A 9.48,9.48 0 0 0 52.5,240 H 71.43 A 9.47,9.47 0 0 0 62,230.94 Z"
     id="path1159"
     inkscape:connector-curvature="0"
     style="opacity:0.07300002" />
  <path
     d="M 92.7,231.23 A 9.28,9.28 0 0 0 83.43,240 H 102 a 9.29,9.29 0 0 0 -9.3,-8.77 z"
     id="path1161"
     inkscape:connector-curvature="0"
     style="opacity:0.07300002" />
  <path
     d="m 123.09,231.23 a 9.34,9.34 0 0 0 -9.32,8.77 h 18.65 a 9.36,9.36 0 0 0 -9.33,-8.77 z"
     id="path1163"
     inkscape:connector-curvature="0"
     style="opacity:0.07300002" />
  <path
     d="m 154.86,231.25 a 9.29,9.29 0 0 0 -9.27,8.75 h 18.54 a 9.29,9.29 0 0 0 -9.27,-8.75 z"
     id="path1165"
     inkscape:connector-curvature="0"
     style="opacity:0.07300002" />
  <path
     d="m 185.6,230.82 a 9.15,9.15 0 0 0 -9.15,9.15 v 0 h 18.3 v 0 a 9.16,9.16 0 0 0 -9.15,-9.15 z"
     id="path1167"
     inkscape:connector-curvature="0"
     style="opacity:0.07300002" />
  <path
     d="m 216.8,230.46 a 9.52,9.52 0 0 0 -9.52,9.52 v 0 h 19 v 0 a 9.52,9.52 0 0 0 -9.48,-9.52 z"
     id="path1169"
     inkscape:connector-curvature="0"
     style="opacity:0.07300002" />
  <path
     d="M 8.81,4e-6 H 0 v 9.41 A 9.52,9.52 0 0 0 8.81,4e-6 Z"
     id="path1171"
     inkscape:connector-curvature="0"
     style="opacity:0.07300002" />
  <path
     d="m 8.1,29.810004 a 8.48,8.48 0 0 0 -8.1,-8.47 v 16.94 a 8.47,8.47 0 0 0 8.1,-8.47 z"
     id="path1173"
     inkscape:connector-curvature="0"
     style="opacity:0.07300002" />
  <path
     d="m 8,59.380004 a 8.08,8.08 0 0 0 -8,-8.07 v 16.15 a 8.08,8.08 0 0 0 8,-8.08 z"
     id="path1175"
     inkscape:connector-curvature="0"
     style="opacity:0.07300002" />
  <path
     d="m 8.59,89.540004 a 8.65,8.65 0 0 0 -8.59,-8.65 v 17.3 a 8.65,8.65 0 0 0 8.59,-8.65 z"
     id="path1177"
     inkscape:connector-curvature="0"
     style="opacity:0.07300002" />
  <path
     d="m 8.72,119.36 a 9,9 0 0 0 -8.72,-9 v 18 a 9,9 0 0 0 8.72,-9 z"
     id="path1179"
     inkscape:connector-curvature="0"
     style="opacity:0.07300002" />
  <path
     d="M 7.7,149.86 A 8.43,8.43 0 0 0 0,141.46 v 16.79 a 8.43,8.43 0 0 0 7.7,-8.39 z"
     id="path1181"
     inkscape:connector-curvature="0"
     style="opacity:0.07300002" />
  <path
     d="M 7.09,178.9 A 7.72,7.72 0 0 0 0,171.21 v 15.38 a 7.72,7.72 0 0 0 7.09,-7.69 z"
     id="path1183"
     inkscape:connector-curvature="0"
     style="opacity:0.07300002" />
  <path
     d="m 0.57,218.75 a 10,10 0 1 0 0,-20 H 0 v 20 z"
     id="path1185"
     inkscape:connector-curvature="0"
     style="opacity:0.07300002" />
  <path
     d="M 0,230.44 V 240 h 8.81 v -0.08 A 9.5,9.5 0 0 0 0,230.44 Z"
     id="path1187"
     inkscape:connector-curvature="0"
     style="opacity:0.07300002" />
  <path
     d="m 247.29,9.440004 c 0.24,0 0.48,0 0.71,0 V 4e-6 h -10.22 a 9.51,9.51 0 0 0 9.51,9.44 z"
     id="path1189"
     inkscape:connector-curvature="0"
     style="opacity:0.07300002" />
  <path
     d="m 239.12,29.810004 a 8.49,8.49 0 0 0 8.49,8.49 H 248 v -16.96 h -0.39 a 8.49,8.49 0 0 0 -8.49,8.47 z"
     id="path1191"
     inkscape:connector-curvature="0"
     style="opacity:0.07300002" />
  <path
     d="m 239.84,59.380004 a 8.08,8.08 0 0 0 8.08,8.08 H 248 v -16.15 h -0.08 a 8.07,8.07 0 0 0 -8.08,8.07 z"
     id="path1193"
     inkscape:connector-curvature="0"
     style="opacity:0.07300002" />
  <path
     d="m 239.28,89.540004 a 8.66,8.66 0 0 0 8.66,8.66 H 248 v -17.31 h -0.06 a 8.66,8.66 0 0 0 -8.66,8.65 z"
     id="path1195"
     inkscape:connector-curvature="0"
     style="opacity:0.07300002" />
  <path
     d="m 238.73,119.36 a 9,9 0 0 0 9,9 H 248 v -18 h -0.28 a 9,9 0 0 0 -8.99,9 z"
     id="path1197"
     inkscape:connector-curvature="0"
     style="opacity:0.07300002" />
  <path
     d="m 238.84,149.86 a 8.42,8.42 0 0 0 8.43,8.43 c 0.25,0 0.49,0 0.73,0 v -16.83 c -0.24,0 -0.48,0 -0.73,0 a 8.43,8.43 0 0 0 -8.43,8.4 z"
     id="path1199"
     inkscape:connector-curvature="0"
     style="opacity:0.07300002" />
  <path
     d="m 239.64,178.9 a 7.72,7.72 0 0 0 7.72,7.73 c 0.22,0 0.43,0 0.64,0 v -15.42 c -0.21,0 -0.42,0 -0.64,0 a 7.72,7.72 0 0 0 -7.72,7.69 z"
     id="path1201"
     inkscape:connector-curvature="0"
     style="opacity:0.07300002" />
  <path
     d="m 238.57,208.75 a 10,10 0 0 0 9.43,10 v -20 a 10,10 0 0 0 -9.43,10 z"
     id="path1203"
     inkscape:connector-curvature="0"
     style="opacity:0.07300002" />
  <path
     d="m 247.29,230.4 a 9.52,9.52 0 0 0 -9.52,9.52 c 0,0 0,0.05 0,0.08 H 248 v -9.56 c -0.23,-0.02 -0.47,-0.04 -0.71,-0.04 z"
     id="path1205"
     inkscape:connector-curvature="0"
     style="opacity:0.07300002" />
  <path
     inkscape:connector-curvature="0"
     d="M 278.75,8.91 A 8.91,8.91 0 0 0 287.66,0 h -17.83 a 8.91,8.91 0 0 0 8.92,8.91 z"
     id="path1045-3"
     style="opacity:0.07300002" />
  <path
     inkscape:connector-curvature="0"
     d="m 300.48,0.43 a 9.5,9.5 0 0 0 19,0 c 0,-0.15 0,-0.29 0,-0.43 H 300.5 c 0,0.14 -0.02,0.28 -0.02,0.43 z"
     id="path1047-6"
     style="opacity:0.07300002" />
  <path
     inkscape:connector-curvature="0"
     d="m 331.4,0.53 a 9.3,9.3 0 0 0 9.3,9.31 9.31,9.31 0 0 0 9.3,-9.31 c 0,-0.18 0,-0.35 0,-0.53 h -18.57 c -0.01,0.18 -0.03,0.35 -0.03,0.53 z"
     id="path1049-7"
     style="opacity:0.07300002" />
  <path
     inkscape:connector-curvature="0"
     d="m 361.74,0.59 a 9.35,9.35 0 0 0 9.35,9.35 9.36,9.36 0 0 0 9.36,-9.35 c 0,-0.2 0,-0.4 0,-0.59 h -18.68 a 5.68,5.68 0 0 0 -0.03,0.59 z"
     id="path1051-5"
     style="opacity:0.07300002" />
  <path
     inkscape:connector-curvature="0"
     d="m 393.56,0.55 a 9.3,9.3 0 1 0 18.6,0 c 0,-0.19 0,-0.37 0,-0.55 h -18.57 c -0.01,0.18 -0.03,0.36 -0.03,0.55 z"
     id="path1053-3"
     style="opacity:0.09500002" />
  <path
     inkscape:connector-curvature="0"
     d="M 433.6,9.12 A 9.14,9.14 0 0 0 442.75,0 h -18.3 a 9.15,9.15 0 0 0 9.15,9.12 z"
     id="path1055-5"
     style="opacity:0.07300002" />
  <path
     inkscape:connector-curvature="0"
     d="M 464.8,9.5 A 9.52,9.52 0 0 0 474.32,0 h -19 a 9.52,9.52 0 0 0 9.48,9.5 z"
     id="path1057-6"
     style="opacity:0.07300002" />
  <circle
     cx="277.89999"
     cy="29.969995"
     r="9.6400003"
     id="circle1059-2"
     style="opacity:0.07300002" />
  <circle
     cx="309.56"
     cy="29.250002"
     r="7.5300002"
     id="circle1061-9"
     style="opacity:0.12399998" />
  <circle
     cx="340.41998"
     cy="29.629999"
     r="8.8500004"
     id="circle1063-1"
     style="opacity:0.07300002" />
  <circle
     cx="331.77545"
     cy="169.92314"
     r="8.1099997"
     transform="rotate(-22.5)"
     id="circle1065-2"
     style="opacity:0.07300002" />
  <circle
     cx="402.42999"
     cy="30.049997"
     r="8.7600002"
     id="circle1067-7"
     style="opacity:0.07300002" />
  <circle
     cx="432.69"
     cy="29.860003"
     r="9.3900003"
     id="circle1069-0"
     style="opacity:0.07300002" />
  <path
     inkscape:connector-curvature="0"
     d="m 464,20.82 a 8.93,8.93 0 1 0 9,8.93 8.93,8.93 0 0 0 -9,-8.93 z"
     id="path1071-9"
     style="opacity:0.07300002" />
  <circle
     cx="278.23999"
     cy="59.799999"
     r="8.0799999"
     id="circle1073-3"
     style="opacity:0.07300002" />
  <path
     inkscape:connector-curvature="0"
     d="M 309.51,70.050004 A 10.21,10.21 0 1 0 299.3,59.84 10.21,10.21 0 0 0 309.51,70.050004 Z"
     id="path1075-6"
     style="opacity:0.07300002" />
  <circle
     cx="291.17847"
     cy="185.43661"
     r="9.1300001"
     transform="rotate(-22.5)"
     id="circle1077-0"
     style="opacity:0.07300002" />
  <path
     inkscape:connector-curvature="0"
     d="m 371.69,51.93 a 8.23,8.23 0 1 0 8.23,8.23 8.22,8.22 0 0 0 -8.23,-8.23 z"
     id="path1079-6"
     style="opacity:0.07300002" />
  <circle
     cx="402.63"
     cy="59.290005"
     r="9.1599998"
     id="circle1081-2"
     style="opacity:0.11300001" />
  <circle
     cx="433.42999"
     cy="59.320004"
     r="9.8400002"
     id="circle1083-6"
     style="opacity:0.07300002" />
  <path
     inkscape:connector-curvature="0"
     d="M 464.35,67.690004 A 7.9,7.9 0 1 0 456.46,59.8 a 7.89,7.89 0 0 0 7.89,7.890004 z"
     id="path1085-1"
     style="opacity:0.07300002" />
  <circle
     cx="278.04001"
     cy="89.910011"
     r="8.8199997"
     id="circle1087-8"
     style="opacity:0.07300002" />
  <circle
     cx="290.60049"
     cy="138.24409"
     r="8.3299999"
     transform="rotate(-9.22)"
     id="circle1089-7"
     style="opacity:0.14500002" />
  <circle
     cx="340.13998"
     cy="88.890007"
     r="7.5300002"
     id="circle1091-9"
     style="opacity:0.07300002" />
  <path
     inkscape:connector-curvature="0"
     d="m 378.91,89.430004 a 7.44,7.44 0 1 0 -7.43,7.43 7.43,7.43 0 0 0 7.43,-7.43 z"
     id="path1093-2"
     style="opacity:0.07300002" />
  <circle
     cx="402.07999"
     cy="89.560005"
     r="9.5"
     id="circle1095-0"
     style="opacity:0.07300002" />
  <circle
     cx="83.379906"
     cy="434.42911"
     r="8.4499998"
     transform="rotate(-67.5)"
     id="circle1097-2"
     style="opacity:0.09800002" />
  <circle
     cx="95.365456"
     cy="462.77679"
     r="8.7600002"
     transform="rotate(-67.5)"
     id="circle1099-3"
     style="opacity:0.10499998" />
  <circle
     cx="-3.4113917"
     cy="303.34772"
     r="8.1199999"
     transform="rotate(-67.5)"
     id="circle1101-7"
     style="opacity:0.07300002" />
  <circle
     cx="310.38998"
     cy="119.20001"
     r="7.6300001"
     id="circle1103-5"
     style="opacity:0.07300002" />
  <circle
     cx="19.857475"
     cy="360.45602"
     r="8.1599998"
     transform="rotate(-67.5)"
     id="circle1105-9"
     style="opacity:0.07300002" />
  <path
     inkscape:connector-curvature="0"
     d="m 371.63,126.33001 a 7.61,7.61 0 1 0 -7.61,-7.61 7.61,7.61 0 0 0 7.61,7.61 z"
     id="path1107-2"
     style="opacity:0.07300002" />
  <circle
     cx="-52.992897"
     cy="416.40097"
     r="8.6099997"
     transform="rotate(-80.78)"
     id="circle1109-2"
     style="opacity:0.07300002" />
  <path
     inkscape:connector-curvature="0"
     d="m 427,119.14001 a 7.36,7.36 0 1 0 7.36,-7.36 7.37,7.37 0 0 0 -7.36,7.36 z"
     id="path1111-8"
     style="opacity:0.07300002" />
  <circle
     cx="68.460426"
     cy="475.32391"
     r="8.0200005"
     transform="rotate(-67.5)"
     id="circle1113-9"
     style="opacity:0.07300002" />
  <circle
     cx="277.54999"
     cy="149.17999"
     r="10.2"
     id="circle1115-7"
     style="opacity:0.07300002" />
  <circle
     cx="281.41199"
     cy="196.92975"
     r="8.7700005"
     transform="rotate(-9.22)"
     id="circle1117-3"
     style="opacity:0.10199998" />
  <circle
     cx="340.13"
     cy="149.34"
     r="8.3100004"
     id="circle1119-6"
     style="opacity:0.07300002" />
  <circle
     cx="342.12329"
     cy="206.63226"
     r="10.33"
     transform="rotate(-9.22)"
     id="circle1121-1"
     style="opacity:0.07300002" />
  <circle
     cx="15.130898"
     cy="428.49997"
     r="8.6899996"
     transform="rotate(-67.5)"
     id="circle1123-2"
     style="opacity:0.07300002" />
  <circle
     cx="343.13492"
     cy="303.47214"
     r="8.71"
     transform="rotate(-22.5)"
     id="circle1125-9"
     style="opacity:0.07300002" />
  <circle
     cx="463.95001"
     cy="149.74001"
     r="9.3000002"
     id="circle1127-3"
     style="opacity:0.07300002" />
  <circle
     cx="278"
     cy="178.86"
     r="8.0699997"
     id="circle1129-1"
     style="opacity:0.07300002" />
  <circle
     cx="309.57999"
     cy="178.95"
     r="10.15"
     id="circle1131-9"
     style="opacity:0.07300002" />
  <circle
     cx="-35.308357"
     cy="382.53278"
     r="10.04"
     transform="rotate(-67.5)"
     id="circle1133-4"
     style="opacity:0.07300002" />
  <circle
     cx="357.32501"
     cy="205.2879"
     r="8.1800003"
     transform="rotate(-4.07)"
     id="circle1135-7"
     style="opacity:0.13800001" />
  <circle
     cx="402.32001"
     cy="178.63"
     r="8.6800003"
     id="circle1137-8"
     style="opacity:0.07300002" />
  <circle
     cx="399.02081"
     cy="245.76009"
     r="7.9400001"
     transform="rotate(-9.22)"
     id="circle1139-4"
     style="opacity:0.12700004" />
  <path
     inkscape:connector-curvature="0"
     d="m 464.12,186.88001 a 8.34,8.34 0 1 0 -8.34,-8.33 8.34,8.34 0 0 0 8.34,8.33 z"
     id="path1141-5"
     style="opacity:0.07300002" />
  <circle
     cx="279.10001"
     cy="208.17999"
     r="8.3800001"
     id="circle1143-0"
     style="opacity:0.08699999" />
  <path
     inkscape:connector-curvature="0"
     d="m 310.22,201.23001 a 7.59,7.59 0 1 0 7.59,7.59 7.59,7.59 0 0 0 -7.59,-7.59 z"
     id="path1145-3"
     style="opacity:0.07300002" />
  <path
     inkscape:connector-curvature="0"
     d="m 341.82,200.08001 a 7.79,7.79 0 1 0 7.79,7.79 7.79,7.79 0 0 0 -7.79,-7.79 z"
     id="path1147-6"
     style="opacity:0.07300002" />
  <circle
     cx="372.54999"
     cy="208.63"
     r="9.6599998"
     id="circle1149-1"
     style="opacity:0.07300002" />
  <circle
     cx="403.19998"
     cy="208.84"
     r="9.0600004"
     id="circle1151-0"
     style="opacity:0.07300002" />
  <circle
     cx="321.63568"
     cy="358.62354"
     r="8.5200005"
     transform="rotate(-22.5)"
     id="circle1153-6"
     style="opacity:0.07300002" />
  <circle
     cx="464.81"
     cy="208.03999"
     r="8.7200003"
     id="circle1155-3"
     style="opacity:0.09100001" />
  <path
     inkscape:connector-curvature="0"
     d="m 278.75,231.07001 a 8.92,8.92 0 0 0 -8.92,8.93 h 17.83 a 8.92,8.92 0 0 0 -8.91,-8.93 z"
     id="path1157-2"
     style="opacity:0.07300002" />
  <path
     inkscape:connector-curvature="0"
     d="m 310,230.94001 a 9.48,9.48 0 0 0 -9.5,9.06 h 18.93 a 9.47,9.47 0 0 0 -9.43,-9.06 z"
     id="path1159-0"
     style="opacity:0.07300002" />
  <path
     inkscape:connector-curvature="0"
     d="m 340.7,231.23001 a 9.28,9.28 0 0 0 -9.27,8.77 H 350 a 9.29,9.29 0 0 0 -9.3,-8.77 z"
     id="path1161-6"
     style="opacity:0.07300002" />
  <path
     inkscape:connector-curvature="0"
     d="m 371.09,231.23001 a 9.34,9.34 0 0 0 -9.32,8.77 h 18.65 a 9.36,9.36 0 0 0 -9.33,-8.77 z"
     id="path1163-1"
     style="opacity:0.07300002" />
  <path
     inkscape:connector-curvature="0"
     d="m 402.86,231.25001 a 9.29,9.29 0 0 0 -9.27,8.75 h 18.54 a 9.29,9.29 0 0 0 -9.27,-8.75 z"
     id="path1165-5"
     style="opacity:0.07300002" />
  <path
     inkscape:connector-curvature="0"
     d="m 433.6,230.82001 a 9.15,9.15 0 0 0 -9.15,9.15 v 0 h 18.3 v 0 a 9.16,9.16 0 0 0 -9.15,-9.15 z"
     id="path1167-5"
     style="opacity:0.07300002" />
  <path
     inkscape:connector-curvature="0"
     d="m 464.8,230.46001 a 9.52,9.52 0 0 0 -9.52,9.52 v 0 h 19 v 0 a 9.52,9.52 0 0 0 -9.48,-9.52 z"
     id="path1169-4"
     style="opacity:0.07300002" />
  <path
     inkscape:connector-curvature="0"
     d="M 256.81,0 H 248 V 9.41 A 9.52,9.52 0 0 0 256.81,0 Z"
     id="path1171-7"
     style="opacity:0.07300002" />
  <path
     inkscape:connector-curvature="0"
     d="M 256.1,29.81 A 8.48,8.48 0 0 0 248,21.34 v 16.94 a 8.47,8.47 0 0 0 8.1,-8.47 z"
     id="path1173-6"
     style="opacity:0.07300002" />
  <path
     inkscape:connector-curvature="0"
     d="m 256,59.38 a 8.08,8.08 0 0 0 -8,-8.07 V 67.460004 A 8.08,8.08 0 0 0 256,59.38 Z"
     id="path1175-5"
     style="opacity:0.07300002" />
  <path
     inkscape:connector-curvature="0"
     d="m 256.59,89.540004 a 8.65,8.65 0 0 0 -8.59,-8.65 v 17.3 a 8.65,8.65 0 0 0 8.59,-8.65 z"
     id="path1177-6"
     style="opacity:0.07300002" />
  <path
     inkscape:connector-curvature="0"
     d="m 256.72,119.36001 a 9,9 0 0 0 -8.72,-9 v 18 a 9,9 0 0 0 8.72,-9 z"
     id="path1179-9"
     style="opacity:0.07300002" />
  <path
     inkscape:connector-curvature="0"
     d="m 255.7,149.86001 a 8.43,8.43 0 0 0 -7.7,-8.4 v 16.79 a 8.43,8.43 0 0 0 7.7,-8.39 z"
     id="path1181-3"
     style="opacity:0.07300002" />
  <path
     inkscape:connector-curvature="0"
     d="m 255.09,178.90001 a 7.72,7.72 0 0 0 -7.09,-7.69 v 15.38 a 7.72,7.72 0 0 0 7.09,-7.69 z"
     id="path1183-7"
     style="opacity:0.11600001" />
  <path
     inkscape:connector-curvature="0"
     d="m 248.57,218.75001 a 10,10 0 1 0 0,-20 H 248 v 20 z"
     id="path1185-4"
     style="opacity:0.07300002" />
  <path
     inkscape:connector-curvature="0"
     d="m 248,230.44001 v 9.56 h 8.81 v -0.08 a 9.5,9.5 0 0 0 -8.81,-9.48 z"
     id="path1187-5"
     style="opacity:0.07300002" />
  <path
     inkscape:connector-curvature="0"
     d="m 495.29,9.44 c 0.24,0 0.48,0 0.71,0 V 0 h -10.22 a 9.51,9.51 0 0 0 9.51,9.44 z"
     id="path1189-2"
     style="opacity:0.07300002" />
  <path
     inkscape:connector-curvature="0"
     d="m 487.12,29.81 a 8.49,8.49 0 0 0 8.49,8.49 H 496 V 21.34 h -0.39 a 8.49,8.49 0 0 0 -8.49,8.47 z"
     id="path1191-5"
     style="opacity:0.07300002" />
  <path
     inkscape:connector-curvature="0"
     d="m 487.84,59.38 a 8.08,8.08 0 0 0 8.08,8.080004 H 496 V 51.31 h -0.08 a 8.07,8.07 0 0 0 -8.08,8.07 z"
     id="path1193-4"
     style="opacity:0.07300002" />
  <path
     inkscape:connector-curvature="0"
     d="m 487.28,89.540004 a 8.66,8.66 0 0 0 8.66,8.66 H 496 v -17.31 h -0.06 a 8.66,8.66 0 0 0 -8.66,8.65 z"
     id="path1195-7"
     style="opacity:0.07300002" />
  <path
     inkscape:connector-curvature="0"
     d="m 486.73,119.36001 a 9,9 0 0 0 9,9 H 496 v -18 h -0.28 a 9,9 0 0 0 -8.99,9 z"
     id="path1197-4"
     style="opacity:0.07300002" />
  <path
     inkscape:connector-curvature="0"
     d="m 486.84,149.86001 a 8.42,8.42 0 0 0 8.43,8.43 c 0.25,0 0.49,0 0.73,0 v -16.83 c -0.24,0 -0.48,0 -0.73,0 a 8.43,8.43 0 0 0 -8.43,8.4 z"
     id="path1199-4"
     style="opacity:0.09100001" />
  <path
     inkscape:connector-curvature="0"
     d="m 487.64,178.90001 a 7.72,7.72 0 0 0 7.72,7.73 c 0.22,0 0.43,0 0.64,0 v -15.42 c -0.21,0 -0.42,0 -0.64,0 a 7.72,7.72 0 0 0 -7.72,7.69 z"
     id="path1201-3"
     style="opacity:0.07300002" />
  <path
     inkscape:connector-curvature="0"
     d="m 486.57,208.75001 a 10,10 0 0 0 9.43,10 v -20 a 10,10 0 0 0 -9.43,10 z"
     id="path1203-0"
     style="opacity:0.07300002" />
  <path
     inkscape:connector-curvature="0"
     d="m 495.29,230.40001 a 9.52,9.52 0 0 0 -9.52,9.52 c 0,0 0,0.05 0,0.08 H 496 v -9.56 c -0.23,-0.02 -0.47,-0.04 -0.71,-0.04 z"
     id="path1205-7"
     style="opacity:0.07300002" />
  <path
     inkscape:connector-curvature="0"
     d="m 526.75,8.910004 a 8.91,8.91 0 0 0 8.91,-8.91 h -17.83 a 8.91,8.91 0 0 0 8.92,8.91 z"
     id="path1045-8"
     style="opacity:0.06499999" />
  <path
     inkscape:connector-curvature="0"
     d="m 548.48,0.430004 a 9.5,9.5 0 0 0 19,0 c 0,-0.15 0,-0.29 0,-0.43 H 548.5 c 0,0.14 -0.02,0.28 -0.02,0.43 z"
     id="path1047-68"
     style="opacity:0.07300002" />
  <path
     inkscape:connector-curvature="0"
     d="m 579.4,0.530004 a 9.3,9.3 0 0 0 9.3,9.31 9.31,9.31 0 0 0 9.3,-9.31 c 0,-0.18 0,-0.35 0,-0.53 h -18.57 c -0.01,0.18 -0.03,0.35 -0.03,0.53 z"
     id="path1049-8"
     style="opacity:0.07300002" />
  <path
     inkscape:connector-curvature="0"
     d="m 609.74,0.590004 a 9.35,9.35 0 0 0 9.35,9.35 9.36,9.36 0 0 0 9.36,-9.35 c 0,-0.2 0,-0.4 0,-0.59 h -18.68 a 5.68,5.68 0 0 0 -0.03,0.59 z"
     id="path1051-4"
     style="opacity:0.07300002" />
  <path
     inkscape:connector-curvature="0"
     d="m 641.56,0.550004 a 9.3,9.3 0 1 0 18.6,0 c 0,-0.19 0,-0.37 0,-0.55 h -18.57 c -0.01,0.18 -0.03,0.36 -0.03,0.55 z"
     id="path1053-31"
     style="opacity:0.07300002" />
  <path
     inkscape:connector-curvature="0"
     d="m 681.6,9.120004 a 9.14,9.14 0 0 0 9.15,-9.12 h -18.3 a 9.15,9.15 0 0 0 9.15,9.12 z"
     id="path1055-4"
     style="opacity:0.07300002" />
  <path
     inkscape:connector-curvature="0"
     d="m 712.8,9.500004 a 9.52,9.52 0 0 0 9.52,-9.5 h -19 a 9.52,9.52 0 0 0 9.48,9.5 z"
     id="path1057-9"
     style="opacity:0.07300002" />
  <circle
     cx="525.90002"
     cy="29.969997"
     r="9.6400003"
     id="circle1059-20"
     style="opacity:0.06199999" />
  <circle
     cx="557.56"
     cy="29.249996"
     r="7.5300002"
     id="circle1061-6"
     style="opacity:0.07300002" />
  <circle
     cx="588.41998"
     cy="29.630001"
     r="8.8500004"
     id="circle1063-8"
     style="opacity:0.07300002" />
  <circle
     cx="560.89758"
     cy="264.82864"
     r="8.1099997"
     transform="rotate(-22.5)"
     id="circle1065-9"
     style="opacity:0.07300002" />
  <circle
     cx="650.42999"
     cy="30.049999"
     r="8.7600002"
     id="circle1067-2"
     style="opacity:0.07300002" />
  <circle
     cx="680.69"
     cy="29.859997"
     r="9.3900003"
     id="circle1069-6"
     style="opacity:0.07300002" />
  <path
     inkscape:connector-curvature="0"
     d="m 712,20.820004 a 8.93,8.93 0 1 0 9,8.93 8.93,8.93 0 0 0 -9,-8.93 z"
     id="path1071-6"
     style="opacity:0.10800003" />
  <circle
     cx="526.23999"
     cy="59.799999"
     r="8.0799999"
     id="circle1073-4"
     style="opacity:0.07300002" />
  <path
     inkscape:connector-curvature="0"
     d="m 557.51,70.050004 a 10.21,10.21 0 1 0 -10.21,-10.21 10.21,10.21 0 0 0 10.21,10.21 z"
     id="path1075-9"
     style="opacity:0.07300002" />
  <circle
     cx="520.3006"
     cy="280.3421"
     r="9.1300001"
     transform="rotate(-22.5)"
     id="circle1077-5"
     style="opacity:0.11300001" />
  <path
     inkscape:connector-curvature="0"
     d="m 619.69,51.930004 a 8.23,8.23 0 1 0 8.23,8.23 8.22,8.22 0 0 0 -8.23,-8.23 z"
     id="path1079-0"
     style="opacity:0.07300002" />
  <circle
     cx="650.63"
     cy="59.290005"
     r="9.1599998"
     id="circle1081-4"
     style="opacity:0.07300002" />
  <circle
     cx="681.42999"
     cy="59.320004"
     r="9.8400002"
     id="circle1083-8"
     style="opacity:0.05799997" />
  <path
     inkscape:connector-curvature="0"
     d="m 712.35,67.690004 a 7.9,7.9 0 1 0 -7.89,-7.89 7.89,7.89 0 0 0 7.89,7.89 z"
     id="path1085-7"
     style="opacity:0.07300002" />
  <circle
     cx="526.04004"
     cy="89.910004"
     r="8.8199997"
     id="circle1087-1"
     style="opacity:0.07300002" />
  <circle
     cx="535.39642"
     cy="177.9801"
     r="8.3299999"
     transform="rotate(-9.22)"
     id="circle1089-72"
     style="opacity:0.07300002" />
  <circle
     cx="588.14001"
     cy="88.889999"
     r="7.5300002"
     id="circle1091-7"
     style="opacity:0.07300002" />
  <path
     inkscape:connector-curvature="0"
     d="m 626.91,89.430004 a 7.44,7.44 0 1 0 -7.43,7.43 7.43,7.43 0 0 0 7.43,-7.43 z"
     id="path1093-22"
     style="opacity:0.07300002" />
  <circle
     cx="650.08002"
     cy="89.559998"
     r="9.5"
     id="circle1095-6"
     style="opacity:0.07300002" />
  <circle
     cx="178.2854"
     cy="663.55121"
     r="8.4499998"
     transform="rotate(-67.5)"
     id="circle1097-1"
     style="opacity:0.07300002" />
  <circle
     cx="190.27095"
     cy="691.89893"
     r="8.7600002"
     transform="rotate(-67.5)"
     id="circle1099-0"
     style="opacity:0.07300002" />
  <circle
     cx="91.494102"
     cy="532.46985"
     r="8.1199999"
     transform="rotate(-67.5)"
     id="circle1101-6"
     style="opacity:0.07300002" />
  <circle
     cx="558.39001"
     cy="119.20001"
     r="7.6300001"
     id="circle1103-1"
     style="opacity:0.07300002" />
  <circle
     cx="114.76297"
     cy="589.57812"
     r="8.1599998"
     transform="rotate(-67.5)"
     id="circle1105-5"
     style="opacity:0.07300002" />
  <path
     inkscape:connector-curvature="0"
     d="m 619.63,126.33001 a 7.61,7.61 0 1 0 -7.61,-7.61 7.61,7.61 0 0 0 7.61,7.61 z"
     id="path1107-9"
     style="opacity:0.07300002" />
  <circle
     cx="-13.256911"
     cy="661.1969"
     r="8.6099997"
     transform="rotate(-80.78)"
     id="circle1109-4"
     style="opacity:0.07300002" />
  <path
     inkscape:connector-curvature="0"
     d="m 675,119.14001 a 7.36,7.36 0 1 0 7.36,-7.36 7.37,7.37 0 0 0 -7.36,7.36 z"
     id="path1111-9"
     style="opacity:0.07300002" />
  <circle
     cx="163.36592"
     cy="704.44604"
     r="8.0200005"
     transform="rotate(-67.5)"
     id="circle1113-0"
     style="opacity:0.08699999" />
  <circle
     cx="525.54999"
     cy="149.17998"
     r="10.2"
     id="circle1115-9"
     style="opacity:0.07300002" />
  <circle
     cx="526.20795"
     cy="236.66574"
     r="8.7700005"
     transform="rotate(-9.22)"
     id="circle1117-1"
     style="opacity:0.07300002" />
  <circle
     cx="588.13"
     cy="149.33998"
     r="8.3100004"
     id="circle1119-7"
     style="opacity:0.07300002" />
  <circle
     cx="586.91925"
     cy="246.36826"
     r="10.33"
     transform="rotate(-9.22)"
     id="circle1121-7"
     style="opacity:0.21799999" />
  <circle
     cx="110.03639"
     cy="657.62207"
     r="8.6899996"
     transform="rotate(-67.5)"
     id="circle1123-1"
     style="opacity:0.07300002" />
  <circle
     cx="572.25702"
     cy="398.37759"
     r="8.71"
     transform="rotate(-22.5)"
     id="circle1125-1"
     style="opacity:0.07300002" />
  <circle
     cx="711.95001"
     cy="149.74001"
     r="9.3000002"
     id="circle1127-5"
     style="opacity:0.07300002" />
  <circle
     cx="526"
     cy="178.86"
     r="8.0699997"
     id="circle1129-9"
     style="opacity:0.07300002" />
  <circle
     cx="557.58002"
     cy="178.95"
     r="10.15"
     id="circle1131-7"
     style="opacity:0.07300002" />
  <circle
     cx="59.59713"
     cy="611.65491"
     r="10.04"
     transform="rotate(-67.5)"
     id="circle1133-7"
     style="opacity:0.07300002" />
  <circle
     cx="604.69958"
     cy="222.88974"
     r="8.1800003"
     transform="rotate(-4.07)"
     id="circle1135-6"
     style="opacity:0.07300002" />
  <circle
     cx="650.32001"
     cy="178.62999"
     r="8.6800003"
     id="circle1137-7"
     style="opacity:0.07300002" />
  <circle
     cx="643.81671"
     cy="285.49609"
     r="7.9400001"
     transform="rotate(-9.22)"
     id="circle1139-3"
     style="opacity:0.07300002" />
  <path
     inkscape:connector-curvature="0"
     d="m 712.12,186.88001 a 8.34,8.34 0 1 0 -8.34,-8.33 8.34,8.34 0 0 0 8.34,8.33 z"
     id="path1141-6"
     style="opacity:0.07300002" />
  <circle
     cx="527.10004"
     cy="208.17998"
     r="8.3800001"
     id="circle1143-5"
     style="opacity:0.07300002" />
  <path
     inkscape:connector-curvature="0"
     d="m 558.22,201.23001 a 7.59,7.59 0 1 0 7.59,7.59 7.59,7.59 0 0 0 -7.59,-7.59 z"
     id="path1145-6"
     style="opacity:0.07300002" />
  <path
     inkscape:connector-curvature="0"
     d="m 589.82,200.08001 a 7.79,7.79 0 1 0 7.79,7.79 7.79,7.79 0 0 0 -7.79,-7.79 z"
     id="path1147-3"
     style="opacity:0.07300002" />
  <circle
     cx="620.54999"
     cy="208.62999"
     r="9.6599998"
     id="circle1149-9"
     style="opacity:0.07300002" />
  <circle
     cx="651.20001"
     cy="208.83998"
     r="9.0600004"
     id="circle1151-4"
     style="opacity:0.07300002" />
  <circle
     cx="550.75781"
     cy="453.52899"
     r="8.5200005"
     transform="rotate(-22.5)"
     id="circle1153-8"
     style="opacity:0.10499998" />
  <circle
     cx="712.81"
     cy="208.03999"
     r="8.7200003"
     id="circle1155-1"
     style="opacity:0.07000002" />
  <path
     inkscape:connector-curvature="0"
     d="m 526.75,231.07001 a 8.92,8.92 0 0 0 -8.92,8.93 h 17.83 a 8.92,8.92 0 0 0 -8.91,-8.93 z"
     id="path1157-29"
     style="opacity:0.07300002" />
  <path
     inkscape:connector-curvature="0"
     d="m 558,230.94001 a 9.48,9.48 0 0 0 -9.5,9.06 h 18.93 a 9.47,9.47 0 0 0 -9.43,-9.06 z"
     id="path1159-3"
     style="opacity:0.07300002" />
  <path
     inkscape:connector-curvature="0"
     d="m 588.7,231.23001 a 9.28,9.28 0 0 0 -9.27,8.77 H 598 a 9.29,9.29 0 0 0 -9.3,-8.77 z"
     id="path1161-9"
     style="opacity:0.07300002" />
  <path
     inkscape:connector-curvature="0"
     d="m 619.09,231.23001 a 9.34,9.34 0 0 0 -9.32,8.77 h 18.65 a 9.36,9.36 0 0 0 -9.33,-8.77 z"
     id="path1163-0"
     style="opacity:0.07300002" />
  <path
     inkscape:connector-curvature="0"
     d="m 650.86,231.25001 a 9.29,9.29 0 0 0 -9.27,8.75 h 18.54 a 9.29,9.29 0 0 0 -9.27,-8.75 z"
     id="path1165-8"
     style="opacity:0.07300002" />
  <path
     inkscape:connector-curvature="0"
     d="m 681.6,230.82001 a 9.15,9.15 0 0 0 -9.15,9.15 v 0 h 18.3 v 0 a 9.16,9.16 0 0 0 -9.15,-9.15 z"
     id="path1167-8"
     style="opacity:0.07300002" />
  <path
     inkscape:connector-curvature="0"
     d="m 712.8,230.46001 a 9.52,9.52 0 0 0 -9.52,9.52 v 0 h 19 v 0 a 9.52,9.52 0 0 0 -9.48,-9.52 z"
     id="path1169-5"
     style="opacity:0.07300002" />
  <path
     inkscape:connector-curvature="0"
     d="M 504.81,4e-6 H 496 v 9.41 a 9.52,9.52 0 0 0 8.81,-9.41 z"
     id="path1171-0"
     style="opacity:0.07300002" />
  <path
     inkscape:connector-curvature="0"
     d="m 504.1,29.810004 a 8.48,8.48 0 0 0 -8.1,-8.47 v 16.94 a 8.47,8.47 0 0 0 8.1,-8.47 z"
     id="path1173-9"
     style="opacity:0.07300002" />
  <path
     inkscape:connector-curvature="0"
     d="m 504,59.380004 a 8.08,8.08 0 0 0 -8,-8.07 v 16.15 a 8.08,8.08 0 0 0 8,-8.08 z"
     id="path1175-6"
     style="opacity:0.07300002" />
  <path
     inkscape:connector-curvature="0"
     d="m 504.59,89.540004 a 8.65,8.65 0 0 0 -8.59,-8.65 v 17.3 a 8.65,8.65 0 0 0 8.59,-8.65 z"
     id="path1177-3"
     style="opacity:0.07300002" />
  <path
     inkscape:connector-curvature="0"
     d="m 504.72,119.36001 a 9,9 0 0 0 -8.72,-9 v 18 a 9,9 0 0 0 8.72,-9 z"
     id="path1179-8"
     style="opacity:0.07300002" />
  <path
     inkscape:connector-curvature="0"
     d="m 503.7,149.86001 a 8.43,8.43 0 0 0 -7.7,-8.4 v 16.79 a 8.43,8.43 0 0 0 7.7,-8.39 z"
     id="path1181-5"
     style="opacity:0.09100001" />
  <path
     inkscape:connector-curvature="0"
     d="m 503.09,178.90001 a 7.72,7.72 0 0 0 -7.09,-7.69 v 15.38 a 7.72,7.72 0 0 0 7.09,-7.69 z"
     id="path1183-6"
     style="opacity:0.07300002" />
  <path
     inkscape:connector-curvature="0"
     d="m 496.57,218.75001 a 10,10 0 1 0 0,-20 H 496 v 20 z"
     id="path1185-1"
     style="opacity:0.07300002" />
  <path
     inkscape:connector-curvature="0"
     d="m 496,230.44001 v 9.56 h 8.81 v -0.08 a 9.5,9.5 0 0 0 -8.81,-9.48 z"
     id="path1187-1"
     style="opacity:0.07300002" />
  <path
     inkscape:connector-curvature="0"
     d="m 743.29,9.440004 c 0.24,0 0.48,0 0.71,0 V 4e-6 h -10.22 a 9.51,9.51 0 0 0 9.51,9.44 z"
     id="path1189-5"
     style="opacity:0.07300002" />
  <path
     inkscape:connector-curvature="0"
     d="m 735.12,29.810004 a 8.49,8.49 0 0 0 8.49,8.49 H 744 v -16.96 h -0.39 a 8.49,8.49 0 0 0 -8.49,8.47 z"
     id="path1191-9"
     style="opacity:0.07300002" />
  <path
     inkscape:connector-curvature="0"
     d="m 735.84,59.380004 a 8.08,8.08 0 0 0 8.08,8.08 H 744 v -16.15 h -0.08 a 8.07,8.07 0 0 0 -8.08,8.07 z"
     id="path1193-8"
     style="opacity:0.07300002" />
  <path
     inkscape:connector-curvature="0"
     d="m 735.28,89.540004 a 8.66,8.66 0 0 0 8.66,8.66 H 744 v -17.31 h -0.06 a 8.66,8.66 0 0 0 -8.66,8.65 z"
     id="path1195-4"
     style="opacity:0.07300002" />
  <path
     inkscape:connector-curvature="0"
     d="m 734.73,119.36001 a 9,9 0 0 0 9,9 H 744 v -18 h -0.28 a 9,9 0 0 0 -8.99,9 z"
     id="path1197-8"
     style="opacity:0.07300002" />
  <path
     inkscape:connector-curvature="0"
     d="m 734.84,149.86001 a 8.42,8.42 0 0 0 8.43,8.43 c 0.25,0 0.49,0 0.73,0 v -16.83 c -0.24,0 -0.48,0 -0.73,0 a 8.43,8.43 0 0 0 -8.43,8.4 z"
     id="path1199-1"
     style="opacity:0.07300002" />
  <path
     inkscape:connector-curvature="0"
     d="m 735.64,178.90001 a 7.72,7.72 0 0 0 7.72,7.73 c 0.22,0 0.43,0 0.64,0 v -15.42 c -0.21,0 -0.42,0 -0.64,0 a 7.72,7.72 0 0 0 -7.72,7.69 z"
     id="path1201-0"
     style="opacity:0.07300002" />
  <path
     inkscape:connector-curvature="0"
     d="m 734.57,208.75001 a 10,10 0 0 0 9.43,10 v -20 a 10,10 0 0 0 -9.43,10 z"
     id="path1203-3"
     style="opacity:0.07300002" />
  <path
     inkscape:connector-curvature="0"
     d="m 743.29,230.40001 a 9.52,9.52 0 0 0 -9.52,9.52 c 0,0 0,0.05 0,0.08 H 744 v -9.56 c -0.23,-0.02 -0.47,-0.04 -0.71,-0.04 z"
     id="path1205-0"
     style="opacity:0.07300002" />
</svg>
