<?xml version="1.0" encoding="UTF-8" standalone="no"?>
<!-- Generator: Adobe Illustrator 24.1.2, SVG Export Plug-In . SVG Version: 6.00 Build 0)  -->

<svg
   xmlns:dc="http://purl.org/dc/elements/1.1/"
   xmlns:cc="http://creativecommons.org/ns#"
   xmlns:rdf="http://www.w3.org/1999/02/22-rdf-syntax-ns#"
   xmlns:svg="http://www.w3.org/2000/svg"
   xmlns="http://www.w3.org/2000/svg"
   xmlns:sodipodi="http://sodipodi.sourceforge.net/DTD/sodipodi-0.dtd"
   xmlns:inkscape="http://www.inkscape.org/namespaces/inkscape"
   version="1.1"
   id="Layer_1"
   x="0px"
   y="0px"
   viewBox="0 0 300 275"
   xml:space="preserve"
   sodipodi:docname="jumbotron-image.svg"
   style="enable-background:new 0 0 300 275;"
   inkscape:version="0.92.3 (2405546, 2018-03-11)"><metadata
   id="metadata921"><rdf:RDF><cc:Work
       rdf:about=""><dc:format>image/svg+xml</dc:format><dc:type
         rdf:resource="http://purl.org/dc/dcmitype/StillImage" /><dc:title></dc:title></cc:Work></rdf:RDF></metadata><defs
   id="defs919" /><sodipodi:namedview
   pagecolor="#ffffff"
   bordercolor="#666666"
   borderopacity="1"
   objecttolerance="10"
   gridtolerance="10"
   guidetolerance="10"
   inkscape:pageopacity="0"
   inkscape:pageshadow="2"
   inkscape:window-width="1853"
   inkscape:window-height="1025"
   id="namedview917"
   showgrid="false"
   inkscape:zoom="2.170175"
   inkscape:cx="146.77296"
   inkscape:cy="106.86341"
   inkscape:window-x="67"
   inkscape:window-y="27"
   inkscape:window-maximized="1"
   inkscape:current-layer="Layer_1" />
<style
   type="text/css"
   id="style888">
	.st0{opacity:0.15;fill:#05C6B4;}
</style>
<path
   class="st0"
   d="M276.6,0c-0.5,8.3-2.8,16.3-6.7,23.6c-8.5,15.9-24,23.3-41.4,25.1c-8.6,0.9-17.3,0.7-25.6-2  c-8.5-2.7-15.5-8.2-21.5-14.7c-4.5-4.9-8-10.7-11.5-16.4c-3.1-4.9-5.8-10.2-8-15.6L276.6,0z"
   id="path890"
   style="opacity:1" />
<path
   class="st0"
   d="M118.7,0c1.1,1.5,1.9,3.1,2.6,4.8l6.6,16.9c3.5-1.2,7.1-2.4,10.6-3.8c10.2-3.8,21,3.5,24.4,13  c3.7,10.4-3.4,20.8-13,24.4c-2.6,1-5.3,2-8,2.9c2.2,8.6-3.5,18-11.2,21.5c-8.3,3.8-20.1,1.2-24.6-7.4l-1.8-3.5  c-8.1,1.8-16.4,2.7-24.4,0.8c-8.6-2-14.3-9.7-15-18.3c-0.7-9,6-16.3,13.8-19.4l10-3.9c-1.5-4-3-8-4.5-11.9  C81.8,10.6,83.1,4.7,86.4,0H118.7z"
   id="path892"
   style="opacity:1" />
<path
   class="st0"
   d="M65.7,24c-4,4-8.4,5-13.8,5.7C46,30.5,40.2,31,34.3,31.2c1.6,1.9,3,4.1,4,6.4c3.5,7.9,1.9,17.1-4,23.3  c-5.7,5.8-14.8,9.2-22.6,12.4c2.7,3.8,5.2,7.6,7.7,11.4c5.9,9.2,1.6,21.2-7,26.7c-3.7,2.3-8.1,3.2-12.4,2.4V0h68.2  c1.9,3.1,3,6.6,3.2,10.2C71.6,15,69.1,20.6,65.7,24z"
   id="path894"
   style="opacity:1" />
<path
   class="st0"
   d="M68.2,275H0v-7.5c2.3-1,4.9-1.4,7.4-1.1c14.8,1.5,29.7,1.2,44.5-0.7C58.9,264.8,64.8,269.2,68.2,275z"
   id="path896"
   style="opacity:1" />
<path
   class="st0"
   d="M300,0v113.8c-5.9-1-11-4.5-14.3-9.4c-3.3-5.1-6.8-10.2-10.4-15.1c-0.9-1.2-1.9-2.4-2.7-3.7l-0.5-0.7l-0.3-0.4  c-1.9-2.4-3.8-4.8-5.8-7.1c-4.6-5.5-7-11.8-5-19c1.8-6.6,7-11.8,13.6-13.6c6.6-1.6,13.1-3.6,19.4-6.1l1.2-0.5  c-0.1-0.4-0.3-0.9-0.4-1.3l-6.1-20.8c-1.5-5.3-0.3-11.3,2.8-16.1L300,0z"
   id="path898"
   style="opacity:1" />
<path
   class="st0"
   d="M300,138.5v98.1c-5.2,1.1-10.6,0.3-15.2-2.3c-9.3-5.3-10.8-17.2-6.5-26.1c0.4-1.4,0.9-2.8,1.4-4.2  c-3.9,2.6-8,4.8-12.4,6.7c-3.1,1.6-6.5,2.5-10,2.5c-10.1,0-19.6-10.2-18.6-20.4c1.9-19.8,12.8-38,30.6-47.5  C278.8,140.3,289.4,137.9,300,138.5z"
   id="path900"
   style="opacity:1" />
<path
   class="st0"
   d="M300,267.5v7.5h-8.6C293.4,271.7,296.4,269.1,300,267.5z"
   id="path902"
   style="opacity:1" />
<path
   class="st0"
   d="M276.6,275H162.1c-1.1-2.9-2-5.8-2.7-8.9c-2.5-10.6,6.7-20.3,16.3-22.2c9.1-1.8,16.8,3.9,20.5,11.6  c0.3-9.1,7.8-16.7,16.6-18.5c10.6-2.1,20.3,6.3,22.2,16.3c0.2,1.2,0.5,2.4,0.7,3.6c0.2-1.4,0.3-2.7,0.4-4.1  c0.5-9.7,9.7-17.1,18.9-17.3c10.1-0.2,17.6,6.8,19.7,16.4C276.5,259.6,277.1,267.3,276.6,275z"
   id="path904"
   style="opacity:1" />
<path
   class="st0"
   d="M118.7,275H86.4c2.6-3.7,6.3-6.6,10.5-8.1C105.5,263.9,113.9,268.1,118.7,275z"
   id="path906"
   style="opacity:1" />
<path
   class="st0"
   d="M261.4,95c-4.8-15.4-19.2-24.5-35.1-24.2c-6.5,0.1-12.9,1.7-19.1,3.6c-2.7,0.8-5.5,1.7-8.2,2.3  c-0.6,0.1-1.1,0.2-1.7,0.3h-0.2h-0.3c0-0.2,0-0.4,0-0.7c0.1-0.8,0.3-2.1,0.4-2.4c0.3-1.5,0.7-3,1.1-4.5c2.4-9.1-3-20-12.6-22.1  c-9.4-2.1-19.6,2.8-22.1,12.6c-3.3,12.7-4.9,27.1,3.2,38.4c9.4,13.2,25,16.1,40.1,13.4c5.6-1,11-3.2,16.5-4.5  c0.6-0.1,1.9-0.3,2.3-0.3s0.8,0,1.2,0c0,0.3,0.1,0.3,0.1,0l0,0c0,0.8,0,1.7,0,2.5c0,1.3-0.2,2.6-0.3,3.8c0,0.2,0,0.3,0,0.5  c0,0.1,0,0.1,0,0.2c-0.5,3.4-1,6.8-1.5,10.3c-1.3,9.3,2.3,19.8,12.6,22.1c8.5,1.9,20.7-2.6,22.1-12.6  C261.9,121.1,265.3,107.5,261.4,95z"
   id="path908"
   style="opacity:1" />
<path
   class="st0"
   d="M131.7,97c-11-2.5-19.8,2.8-24.3,12.2c0.2-0.5,0-0.2-0.6,1c-0.3,0.5-0.6,0.9-0.7,1l-0.1,0.1l-0.7,0.4l-1.2,0.7  l-0.5,0.2c-0.5,0.2-0.9,0.3-1.4,0.4l-0.9,0.2h-0.4c-1.2-0.1-2.5,0.1-3.7,0c-1.1-0.4-3.8-1.2-4.3-1.3l-0.3-0.1l-0.4-0.2  c-1.3-0.7-2.5-1.4-3.8-2.2l-0.5-0.3l-0.6-0.5c-1.3-1.1-2.4-2.4-3.6-3.6l-0.3-0.3l-0.1-0.1c-0.9-1.4-1.8-2.8-2.7-4.4  c-0.2-0.5-0.4-0.8-0.6-1l0,0c-0.4-1.4-0.9-2.8-1.3-4.2c-0.2-0.6-0.3-1.2-0.4-1.9C77.4,82.7,69.5,72.4,57.9,73  c-10.4,0.5-21.4,9-20.5,20.5c2.1,25.7,17.4,47.6,41.6,57.1c11.7,4.6,25.9,5.5,37.8,1c14.2-5.4,23.8-15.2,29.3-29.3  C149.9,112.2,141.7,99.3,131.7,97z"
   id="path910"
   style="opacity:1" />
<path
   class="st0"
   d="M217.7,205.6c-1.9-16.5-2.3-33.1-1.2-49.7c0.7-10.7-10-21-20.5-20.5c-11.8,0.5-19.7,9-20.5,20.5  c-0.2,2.5-0.3,5-0.4,7.5c-0.5-0.6-1.1-1.1-1.6-1.7c-9-9.8-25.7-6.9-32.2,4.1c-3.6,6.2-6.7,12.8-9.3,19.5l-1.5-2  c-1.2-1.7-2.5-3.4-3.7-5.2c-4.9-6.9-11.7-11-20.4-9.8c-8.3,1.1-14.4,6.8-17,14.7c-5.3,16.4-8.9,33.2-10.8,50.3  c-1.4,10.7,10.3,21,20.5,20.5c12.2-0.6,19.1-9.1,20.5-20.5c0.1-0.5,0.1-0.8,0.1-1.1s0.1-0.5,0.1-0.8l0,0c4.2,3.3,8.8,6.2,13.7,8.4  c6.9,3.1,13.8,4,20.7,0s9.3-10.3,10.2-17.7c0-0.2,0-0.4,0.1-0.6c0.1-0.6,0.2-1.1,0.3-1.7c0.3-1.7,0.6-3.4,1-5.1  c0.3-1.4,0.7-2.8,1-4.2c6.4,4.8,13.2,9,20.2,12.8c6.5,3.5,14.2,3.8,20.7,0C213.2,219.9,218.5,212.5,217.7,205.6z"
   id="path912"
   style="opacity:1" />
<path
   class="st0"
   d="M58,241.1c-0.7,3-2,5.8-3.6,8.4c-5.9,9.2-17.6,11.4-26.9,6.1c-2.4-1.4-4.4-3.3-5.9-5.6c-1.5-2-2.7-4.2-3.6-6.6  c-2.2-6.1-3.7-12.4-4.4-18.9c-0.6,1.2-1.3,2.5-2,3.7c-2.5,4.4-6.7,7.4-11.6,8.4v-98.1c9.7,0.5,19.1,3.3,27.5,8.3  C58.2,165.2,69.7,208.3,58,241.1z"
   id="path914"
   style="opacity:1" />
</svg>