<svg id="Layer_1" data-name="Layer 1" xmlns="http://www.w3.org/2000/svg" viewBox="0 0 300 275"><defs><style>.cls-1{fill:#bbf0eb;}</style></defs><title>p2pu-pattern-3</title><path class="cls-1" d="M276.6,0a58.49,58.49,0,0,1-6.66,23.61c-8.5,15.87-24,23.27-41.37,25.1-8.62.9-17.26.72-25.58-2C194.5,44,187.45,38.47,181.5,32c-4.49-4.91-8-10.74-11.48-16.39a94.8,94.8,0,0,1-8-15.58Z"/><path class="cls-1" d="M118.67,0a22.89,22.89,0,0,1,2.58,4.83l6.57,16.86c3.55-1.19,7.08-2.43,10.6-3.75,10.21-3.82,21,3.5,24.35,13,3.66,10.35-3.41,20.78-13,24.35-2.64,1-5.3,1.95-8,2.87,2.17,8.64-3.53,18-11.25,21.51-8.28,3.75-20.05,1.21-24.57-7.38l-1.82-3.46c-8.12,1.75-16.4,2.71-24.4.85-8.62-2-14.31-9.69-15-18.26-.73-9,6-16.31,13.79-19.36l10-3.9Q86.26,22.17,84,16.23C81.75,10.56,83.12,4.68,86.39,0Z"/><path class="cls-1" d="M65.7,24c-4,4-8.41,5-13.79,5.71q-8.8,1.16-17.64,1.49a25.24,25.24,0,0,1,4,6.42,21.39,21.39,0,0,1-4,23.33C28.54,66.75,19.45,70.2,11.65,73.3q4,5.63,7.72,11.42c5.92,9.17,1.57,21.16-7,26.68A17.21,17.21,0,0,1,0,113.84V0H68.22a22.48,22.48,0,0,1,3.19,10.17C71.62,15,69.08,20.58,65.7,24Z"/><path class="cls-1" d="M68.22,275H0v-7.48a15.14,15.14,0,0,1,7.43-1.14,195.2,195.2,0,0,0,44.48-.71C58.89,264.76,64.79,269.2,68.22,275Z"/><path class="cls-1" d="M300,0V113.84a21.53,21.53,0,0,1-14.3-9.44c-3.32-5.14-6.75-10.2-10.36-15.14-.9-1.23-1.85-2.44-2.74-3.68l-.54-.72-.33-.42q-2.85-3.59-5.79-7.12c-4.57-5.47-7-11.78-5-19a19.54,19.54,0,0,1,13.62-13.62A167.08,167.08,0,0,0,294,38.64l1.17-.47c-.13-.44-.27-.89-.4-1.34l-6.09-20.76c-1.55-5.26-.3-11.29,2.77-16.07Z"/><path class="cls-1" d="M300,138.53V236.6a21.74,21.74,0,0,1-15.18-2.3c-9.34-5.34-10.79-17.18-6.48-26.11.42-1.42.87-2.82,1.37-4.19a72.15,72.15,0,0,1-12.35,6.66,20.77,20.77,0,0,1-10,2.46c-10.15,0-19.58-10.22-18.58-20.38,1.94-19.76,12.84-38,30.6-47.5A58.51,58.51,0,0,1,300,138.53Z"/><path class="cls-1" d="M300,267.52V275h-8.6A19.21,19.21,0,0,1,300,267.52Z"/><path class="cls-1" d="M276.6,275H162.05a67.79,67.79,0,0,1-2.74-8.85c-2.52-10.6,6.68-20.32,16.34-22.22,9.11-1.79,16.83,3.9,20.51,11.59.27-9.11,7.8-16.73,16.64-18.46,10.61-2.09,20.3,6.33,22.22,16.34.23,1.22.47,2.43.7,3.64.16-1.35.29-2.7.36-4.08.49-9.74,9.74-17.08,18.95-17.28,10.08-.23,17.63,6.82,19.72,16.4A79.79,79.79,0,0,1,276.6,275Z"/><path class="cls-1" d="M118.67,275H86.39a22.06,22.06,0,0,1,10.51-8.12C105.47,263.85,113.89,268.12,118.67,275Z"/><path class="cls-1" d="M261.41,95c-4.79-15.42-19.18-24.54-35.05-24.22-6.51.13-12.87,1.71-19.07,3.61-2.73.84-5.46,1.7-8.25,2.31-.55.14-1.11.25-1.68.34l-.18,0-.34,0c0-.22,0-.45,0-.65.12-.8.3-2.11.36-2.38.32-1.5.7-3,1.09-4.48,2.36-9.1-3-20-12.57-22.14-9.4-2.14-19.61,2.82-22.14,12.57-3.3,12.71-4.9,27.11,3.22,38.42,9.44,13.17,25,16.1,40.11,13.36,5.64-1,11-3.2,16.53-4.54.56-.13,1.86-.27,2.34-.34s.83,0,1.24,0c0,.27.05.28.06,0h0c0,.82,0,1.65,0,2.48,0,1.28-.19,2.55-.26,3.83,0,.19,0,.34,0,.49a1.15,1.15,0,0,1,0,.16c-.51,3.42-1,6.84-1.47,10.26-1.33,9.27,2.27,19.79,12.57,22.14,8.51,1.94,20.71-2.61,22.14-12.57C261.87,121.13,265.29,107.54,261.41,95Z"/><path class="cls-1" d="M131.67,97c-11-2.5-19.78,2.81-24.31,12.24.22-.54,0-.22-.61,1-.34.53-.55.86-.66,1l-.13.13-.65.43-1.21.73-.5.25c-.47.15-.95.28-1.43.41l-.93.21-.37,0c-1.19-.06-2.47.07-3.71,0-1.08-.37-3.81-1.16-4.35-1.3l-.35-.09-.36-.21c-1.28-.72-2.52-1.45-3.78-2.19l-.5-.28-.56-.51c-1.28-1.14-2.4-2.4-3.61-3.6l-.33-.32-.08-.13c-.91-1.44-1.84-2.85-2.65-4.37-.24-.46-.43-.79-.58-1l0,0c-.44-1.4-.9-2.77-1.26-4.19-.15-.62-.26-1.24-.38-1.86C77.43,82.72,69.51,72.43,57.86,73c-10.36.46-21.44,9-20.5,20.5,2.09,25.72,17.41,47.57,41.58,57.14,11.66,4.61,25.93,5.47,37.76,1,14.22-5.41,23.78-15.24,29.29-29.35C149.9,112.2,141.7,99.28,131.67,97Z"/><path class="cls-1" d="M217.72,205.55a266.14,266.14,0,0,1-1.19-49.69c.74-10.72-10-21-20.5-20.5-11.75.53-19.7,9-20.5,20.5-.18,2.49-.3,5-.41,7.48-.53-.56-1.08-1.11-1.61-1.68-9-9.76-25.72-6.89-32.2,4.15A131.1,131.1,0,0,0,132,185.32l-1.49-2c-1.25-1.71-2.48-3.44-3.71-5.16-4.89-6.87-11.7-11-20.43-9.79-8.28,1.11-14.42,6.81-17,14.68a257.71,257.71,0,0,0-10.82,50.27C77.15,244,88.82,254.29,99,253.84c12.23-.55,19.09-9.05,20.5-20.5.06-.46.1-.82.13-1.08s.08-.46.13-.77v0a65.17,65.17,0,0,0,13.67,8.38c6.9,3.08,13.84,4,20.69,0s9.33-10.29,10.16-17.7c0-.22,0-.42.07-.6.09-.57.18-1.15.28-1.73q.45-2.56,1-5.13c.32-1.41.67-2.82,1-4.22a160.59,160.59,0,0,0,20.23,12.8c6.54,3.48,14.17,3.81,20.69,0C213.24,219.94,218.54,212.49,217.72,205.55Z"/><path class="cls-1" d="M58,241.13a28.66,28.66,0,0,1-3.6,8.41c-5.92,9.16-17.64,11.4-26.9,6.1A16.77,16.77,0,0,1,21.57,250,26.56,26.56,0,0,1,18,243.42a77.58,77.58,0,0,1-4.35-18.91c-.65,1.24-1.28,2.48-2,3.69A17.31,17.31,0,0,1,0,236.6V138.53a59.57,59.57,0,0,1,27.45,8.29C58.19,165.2,69.7,208.26,58,241.13Z"/></svg>