<?xml version="1.0" encoding="UTF-8" standalone="no"?>
<!-- Created with Inkscape (http://www.inkscape.org/) -->

<svg
   width="843"
   height="200"
   id="svg6873"
   version="1.1"
   inkscape:version="1.2.2 (732a01da63, 2022-12-09)"
   sodipodi:docname="SANBI_logo_wide.svg"
   viewBox="0 0 790.31249 187.50001"
   xmlns:inkscape="http://www.inkscape.org/namespaces/inkscape"
   xmlns:sodipodi="http://sodipodi.sourceforge.net/DTD/sodipodi-0.dtd"
   xmlns="http://www.w3.org/2000/svg"
   xmlns:svg="http://www.w3.org/2000/svg"
   xmlns:rdf="http://www.w3.org/1999/02/22-rdf-syntax-ns#"
   xmlns:cc="http://creativecommons.org/ns#"
   xmlns:dc="http://purl.org/dc/elements/1.1/">
  <defs
     id="defs6875" />
  <sodipodi:namedview
     id="base"
     pagecolor="#ffffff"
     bordercolor="#666666"
     borderopacity="1.0"
     inkscape:pageopacity="0.0"
     inkscape:pageshadow="2"
     inkscape:zoom="1"
     inkscape:cx="284.5"
     inkscape:cy="197"
     inkscape:document-units="px"
     inkscape:current-layer="layer1"
     showgrid="false"
     fit-margin-top="0"
     fit-margin-left="0"
     fit-margin-right="0"
     fit-margin-bottom="0"
     inkscape:window-width="1390"
     inkscape:window-height="992"
     inkscape:window-x="14"
     inkscape:window-y="22"
     inkscape:window-maximized="0"
     inkscape:showpageshadow="0"
     inkscape:pagecheckerboard="0"
     inkscape:deskcolor="#d1d1d1"
     showguides="true">
    <sodipodi:guide
       position="-30,93.750002"
       orientation="0,1"
       id="guide279158"
       inkscape:locked="false"
       inkscape:label=""
       inkscape:color="rgb(0,134,229)" />
  </sodipodi:namedview>
  <metadata
     id="metadata6878">
    <rdf:RDF>
      <cc:Work
         rdf:about="">
        <dc:format>image/svg+xml</dc:format>
        <dc:type
           rdf:resource="http://purl.org/dc/dcmitype/StillImage" />
      </cc:Work>
    </rdf:RDF>
  </metadata>
  <g
     inkscape:label="Layer 1"
     inkscape:groupmode="layer"
     id="layer1"
     transform="translate(-230.8821,-548.51764)">
    <path
       d="m 392.72867,644.44584 c 0,-36.76711 -29.80084,-66.56283 -66.56283,-66.56283 -0.85975,0 -1.7195,0.0154 -2.57925,0.0448 l 0.005,38.3574 c -3.75373,2.46282 -7.86569,5.02161 -12.3538,7.73136 -27.57725,15.33732 -22.80896,28.60077 -6.26773,30.95996 -8.42606,-4.77852 -7.27589,-9.5353 -3.61299,-12.60455 6.60165,-5.5372 14.29334,-9.23465 21.82511,-13.32868 8.26102,-4.60709 19.9201,-10.10463 27.10132,-16.12672 3.66929,-3.07437 4.81307,-7.82603 -3.613,-12.60455 16.54252,2.3592 21.30953,15.62264 -6.26645,30.95996 -4.78364,2.88375 -12.58408,7.44222 -16.80735,10.19546 v 8.78558 c -3.75373,2.45898 -7.8708,5.02288 -12.35891,7.73135 -27.57725,15.33349 -22.80896,28.60204 -6.26773,30.96124 -8.42606,-4.77852 -7.27589,-9.54041 -3.61299,-12.60967 6.67201,-5.5871 14.44815,-9.305 22.05412,-13.4528 8.25719,-4.6237 19.6412,-10.04576 26.87231,-16.10752 3.66929,-3.07437 4.81307,-7.82731 -3.613,-12.60455 16.54252,2.36431 21.30953,15.62263 -6.26645,30.95996 -4.6928,2.82873 -12.49964,7.22728 -16.80735,9.99588 v 35.82802 c 0.85975,0.0345 1.71439,0.0499 2.56902,0.0499 36.76199,0 66.56283,-29.80083 66.56283,-66.55899"
       style="fill:#3d63b0;fill-opacity:1;fill-rule:nonzero;stroke:none;stroke-width:1.27939;stroke-linecap:butt;stroke-linejoin:round;stroke-miterlimit:100000"
       id="path22921-1"
       inkscape:connector-curvature="0" />
    <path
       d="m 474.49836,634.62392 h -2.14298 c -1.83465,-14.65285 -7.17226,-18.15582 -12.74401,-18.15582 -5.01776,0 -8.19705,4.61732 -8.19705,9.47516 0,16.55659 25.63386,7.88105 25.63386,28.50098 0,9.31651 -6.84218,16.4875 -15.20811,16.4875 -6.2076,0 -9.71057,-4.30259 -11.38529,-4.30259 -0.87382,0 -1.82825,1.5084 -2.54343,3.0232 h -2.07389 v -21.65496 h 2.07389 c 0.63458,4.45867 2.06878,10.83004 3.90342,13.85323 3.09868,5.09837 7.24135,6.20761 10.0253,6.20761 6.44685,0 10.26967,-6.20761 10.26967,-11.77935 0,-15.12751 -25.6377,-8.60134 -25.6377,-28.58669 0,-7.32579 5.17769,-14.08865 13.5385,-14.08865 3.26373,0 6.60677,1.34976 8.76127,3.58358 0.7139,0.71518 0.95442,1.02991 1.34847,1.02991 0.47978,0 0.79962,-0.79451 2.3093,-3.33793 h 2.06878 z m 25.56349,13.6882 h 14.64774 l -7.48188,-23.79794 h -0.16504 z m -13.37858,21.34023 v -1.74893 c 4.538,-0.79962 5.57174,-1.5148 6.84601,-5.73807 l 14.24857,-48.56181 h 1.5148 l 15.6866,49.99729 c 1.03503,3.26245 1.91013,3.66289 5.65235,4.30259 v 1.74893 h -16.80095 v -1.74893 c 5.17641,-0.40045 5.65618,-1.20007 5.65618,-2.78907 0,-1.59412 -0.87382,-3.58357 -3.98274,-14.25241 h -16.16254 l -2.94259,9.63509 c -0.40045,1.4342 -0.79962,3.1038 -0.79962,4.05823 0,2.39373 1.19367,3.02319 5.73167,3.34816 v 1.74893 z m 63.18396,-54.77325 24.52335,43.62848 0.24052,-0.16504 v -36.46262 c 0,-3.34305 -1.589,-4.77213 -6.2076,-5.2519 v -1.74892 h 14.80894 v 1.74892 c -4.46379,0.47977 -6.05279,1.90885 -6.05279,5.2519 v 47.77243 h -2.54855 l -25.31785,-44.58931 h -0.24052 v 37.58209 c 0,3.34432 1.59028,4.77852 6.53256,5.25317 v 1.75405 h -14.81278 v -1.75405 c 4.14267,-0.47465 5.73679,-1.90885 5.73679,-5.25317 v -40.28544 c 0,-3.50297 -0.79962,-5.2519 -6.05152,-5.73167 v -1.74892 z m 55.60869,48.40572 c 0,2.86456 1.74509,4.29875 6.60677,4.29875 8.59622,0 14.24857,-4.14266 14.24857,-12.73889 0,-6.53256 -3.97763,-12.41903 -13.21354,-12.41903 h -7.6418 z m 4.53288,-23.40772 c 9.95621,0 13.29926,-4.14394 13.29926,-11.30469 0,-7.64692 -3.98274,-11.62454 -11.62454,-11.62454 -4.77341,0 -6.2076,0.87382 -6.2076,3.50297 v 19.42626 z m -15.84141,-24.998 h 19.74483 c 9.15531,0 15.92201,5.09197 15.92201,13.37346 0,7.24135 -6.20632,11.46462 -12.41904,12.57896 v 0.15993 c 7.48699,1.10923 14.48909,4.93205 14.48909,13.53339 0,8.04096 -7.24263,15.12751 -17.51741,15.12751 h -20.21948 v -1.75405 c 4.93717,-0.47465 5.73678,-1.10923 5.73678,-3.49785 v -44.26946 c 0,-2.38862 -0.79961,-3.0232 -5.73678,-3.50297 z m 64.16909,49.52135 c 0,2.3835 0.79962,3.0232 5.73678,3.50297 v 1.74893 h -17.03635 v -1.74893 c 4.93204,-0.47977 5.72655,-1.11947 5.72655,-3.50297 v -44.26946 c 0,-2.38862 -0.79451,-3.0232 -5.72655,-3.50297 v -1.75404 h 17.03635 v 1.75404 c -4.93716,0.47977 -5.73678,1.11435 -5.73678,3.50297 z"
       style="fill:#b2bbca;fill-opacity:1;fill-rule:nonzero;stroke:none;stroke-width:1.27939;stroke-linecap:butt;stroke-linejoin:round;stroke-miterlimit:100000"
       id="path22923-5"
       inkscape:connector-curvature="0" />
    <g
       id="g279162"
       transform="translate(474.74539,-164.10925)">
      <path
         d="m 242.43666,823.75549 v 1.72462 h 4.6928 c 1.0491,0 1.87303,-0.0499 2.47818,-0.15992 0.60515,-0.10491 1.16425,-0.30961 1.67472,-0.61411 0.5092,-0.30577 0.91349,-0.73565 1.22438,-1.28962 0.30961,-0.55526 0.46442,-1.17448 0.46442,-1.85896 0,-0.78554 -0.20982,-1.48409 -0.62434,-2.09948 -0.4158,-0.61027 -1.00432,-1.0491 -1.7694,-1.31393 0.55398,-0.26483 0.9749,-0.65505 1.26404,-1.16936 0.29042,-0.52071 0.42987,-1.10028 0.42987,-1.73997 0,-0.83417 -0.23924,-1.5583 -0.72413,-2.17881 -0.47977,-0.61922 -1.04015,-1.00432 -1.67472,-1.15912 -0.62946,-0.14969 -1.57877,-0.22518 -2.84409,-0.22518 h -4.59173 v 1.72462 h 1.69391 v 10.35922 z m 3.78316,-10.35922 h 1.29858 c 1.77963,0 2.66881,0.65889 2.66881,1.96898 0,0.67424 -0.19447,1.18472 -0.5898,1.53399 -0.39405,0.34544 -1.08876,0.51944 -2.07901,0.51944 h -1.29858 z m 0,5.73167 h 1.18855 c 0.83033,0 1.47002,0.0601 1.91909,0.18039 0.45546,0.12538 0.8252,0.36975 1.11435,0.73949 0.29042,0.36463 0.42987,0.82009 0.42987,1.36383 0,0.59492 -0.14969,1.08492 -0.44907,1.4649 -0.30065,0.37998 -0.68959,0.61923 -1.16936,0.72414 -0.47465,0.0998 -1.22437,0.1548 -2.24917,0.1548 h -0.78426 z m 9.82955,-5.72143 c 0.22518,0.22901 0.49513,0.33904 0.80986,0.33904 0.30961,0 0.57956,-0.11003 0.80473,-0.33009 0.22518,-0.22389 0.34032,-0.49384 0.34032,-0.81369 0,-0.31473 -0.11514,-0.58468 -0.34032,-0.80473 -0.22517,-0.21494 -0.49512,-0.32497 -0.80473,-0.32497 -0.33009,0 -0.60516,0.11003 -0.82009,0.3352 -0.21494,0.22901 -0.31985,0.49384 -0.31985,0.7945 0,0.31473 0.11003,0.57957 0.33008,0.80474 m -1.55446,10.39504 v 1.67856 h 4.86808 v -1.67856 h -1.48921 v -7.93222 h -3.37887 v 1.67984 h 1.48921 v 6.25238 z m 7.50235,0.52967 c 0.9685,0.94931 2.17368,1.42908 3.59764,1.42908 1.38942,0 2.58437,-0.46954 3.57334,-1.40989 0.99025,-0.93907 1.48409,-2.16345 1.48409,-3.67313 0,-1.50968 -0.49896,-2.73405 -1.48921,-3.66801 -0.99409,-0.93907 -2.18392,-1.40477 -3.56822,-1.40477 -1.40861,0 -2.60356,0.47465 -3.58357,1.42012 -0.97873,0.95443 -1.46874,2.16857 -1.46874,3.65266 0,1.47898 0.48489,2.69951 1.45467,3.65394 m 1.40349,-5.96708 c 0.57956,-0.62562 1.31009,-0.93523 2.19415,-0.93523 0.84952,0 1.56981,0.3045 2.16857,0.91476 0.59491,0.61027 0.89045,1.3843 0.89045,2.32849 0,0.93524 -0.29042,1.70927 -0.88022,2.31954 -0.58468,0.61411 -1.30881,0.91988 -2.1788,0.91988 -0.84951,0 -1.57365,-0.30066 -2.16856,-0.90965 -0.5898,-0.60515 -0.88534,-1.3843 -0.88534,-2.32977 0,-0.91476 0.2853,-1.68367 0.85975,-2.30802 m 10.24535,-4.95763 c 0.22006,0.22901 0.49001,0.33904 0.80986,0.33904 0.30961,0 0.57444,-0.11003 0.80473,-0.33009 0.22518,-0.22389 0.3352,-0.49384 0.3352,-0.81369 0,-0.31473 -0.11002,-0.58468 -0.3352,-0.80473 -0.23029,-0.21494 -0.49512,-0.32497 -0.80473,-0.32497 -0.3352,0 -0.60515,0.11003 -0.82009,0.3352 -0.21494,0.22901 -0.32497,0.49384 -0.32497,0.7945 0,0.31473 0.11003,0.57957 0.3352,0.80474 m -1.55446,10.39504 v 1.67856 h 4.86297 v -1.67856 h -1.48921 v -7.93222 h -3.37376 v 1.67984 h 1.48921 v 6.25238 z m 5.81739,-7.93222 v 1.67984 h 1.6888 v 6.25238 h -1.6888 v 1.67856 h 5.23271 v -1.67856 h -1.65937 v -5.14315 c 1.05422,-0.80985 1.99457,-1.21925 2.82873,-1.21925 0.31985,0 0.58468,0.11002 0.80474,0.33008 0.22005,0.22517 0.33008,0.69982 0.33008,1.42908 v 6.2818 h 3.50297 v -1.67856 h -1.61971 v -4.68384 c 0,-0.82393 -0.0589,-1.44316 -0.18423,-1.87303 -0.1305,-0.42476 -0.39533,-0.78555 -0.79962,-1.07981 -0.4094,-0.29554 -0.925,-0.44522 -1.54422,-0.44522 -0.99921,0 -2.10972,0.44011 -3.31874,1.31009 v -1.16041 z m 11.6642,7.93222 v 1.67856 h 5.11244 v -1.67856 h -1.82313 v -6.26261 h 1.64914 v -1.66961 h -1.64914 v -1.3843 c 0,-0.63969 0.0499,-1.05933 0.15993,-1.2538 0.10491,-0.19063 0.29937,-0.29042 0.58468,-0.29042 0.41452,0 0.65888,0.31089 0.72413,0.925 l 1.67984,-0.25972 c -0.23541,-1.47513 -1.0798,-2.21462 -2.53447,-2.21462 -0.67424,0 -1.25892,0.22517 -1.75916,0.6704 -0.49512,0.44395 -0.74461,1.2538 -0.74461,2.42316 v 1.3843 h -1.39965 v 1.66961 h 1.39965 v 6.26261 z m 8.02178,0.52967 c 0.96977,0.94931 2.16856,1.42908 3.59764,1.42908 1.38942,0 2.57925,-0.46954 3.56822,-1.40989 0.99025,-0.93907 1.48537,-2.16345 1.48537,-3.67313 0,-1.50968 -0.49512,-2.73405 -1.48921,-3.66801 -0.99536,-0.93907 -2.1852,-1.40477 -3.56438,-1.40477 -1.40861,0 -2.60867,0.47465 -3.58229,1.42012 -0.98001,0.95443 -1.47514,2.16857 -1.47514,3.65266 0,1.47898 0.48489,2.69951 1.45979,3.65394 m 1.40477,-5.96708 c 0.57444,-0.62562 1.3037,-0.93523 2.19287,-0.93523 0.8444,0 1.56981,0.3045 2.16473,0.91476 0.59492,0.61027 0.88918,1.3843 0.88918,2.32849 0,0.93524 -0.29043,1.70927 -0.87511,2.31954 -0.58468,0.61411 -1.31393,0.91988 -2.1788,0.91988 -0.85463,0 -1.57877,-0.30066 -2.17368,-0.90965 -0.5898,-0.60515 -0.88406,-1.3843 -0.88406,-2.32977 0,-0.91476 0.28402,-1.68367 0.86487,-2.30802 m 8.46572,5.43741 v 1.67856 h 5.91718 v -1.67856 h -2.09436 v -2.11483 c 0,-1.30882 0.11514,-2.21846 0.34416,-2.72382 0.22517,-0.50408 0.58084,-0.85463 1.05037,-1.0491 0.47466,-0.18935 1.18856,-0.2853 2.1481,-0.2853 h 0.37998 v -1.90885 h -0.49385 c -0.73053,0 -1.30497,0.0601 -1.72461,0.18039 -0.41964,0.12026 -0.82009,0.36463 -1.19879,0.73437 -0.37486,0.36974 -0.6704,0.83928 -0.88534,1.39965 v -2.16473 h -3.44284 v 1.67984 h 1.93828 v 6.25238 z m 8.57064,0 v 1.67856 h 5.29283 v -1.67856 h -1.69007 v -5.15338 c 1.11946,-0.82393 2.03935,-1.23845 2.75453,-1.23845 0.43371,0 0.7446,0.13945 0.92372,0.41964 0.18039,0.28402 0.27506,0.73949 0.27506,1.36895 v 6.2818 h 3.53368 v -1.67856 h -1.64913 v -5.15338 c 1.02479,-0.82393 1.94339,-1.23845 2.74813,-1.23845 0.2853,0 0.52966,0.0742 0.73053,0.22389 0.2047,0.14585 0.3288,0.3352 0.3787,0.56549 0.0512,0.22901 0.0755,0.61923 0.0755,1.17448 v 6.10653 h 3.5631 v -1.67856 h -1.67856 v -4.76317 c 0,-0.82009 -0.0704,-1.44443 -0.2047,-1.86407 -0.14073,-0.41964 -0.41068,-0.76507 -0.80985,-1.04014 -0.40557,-0.27379 -0.91477,-0.41452 -1.53399,-0.41452 -1.07981,0 -2.24405,0.50024 -3.49913,1.49944 -0.41453,-0.9992 -1.16937,-1.49944 -2.26836,-1.49944 -1.09004,0 -2.20439,0.45546 -3.33921,1.35999 v -1.21031 h -3.4825 v 1.67984 h 1.59412 v 6.25238 z m 25.97289,0 v -4.44844 c 0,-0.77915 -0.0448,-1.34975 -0.13561,-1.70414 -0.0896,-0.35951 -0.26483,-0.6896 -0.51943,-0.99921 -0.25972,-0.30961 -0.64993,-0.56037 -1.1796,-0.75484 -0.52455,-0.19447 -1.14889,-0.29042 -1.86919,-0.29042 -1.96898,0 -3.35328,0.74461 -4.1529,2.24405 l 1.80906,0.47465 c 0.42475,-0.75484 1.10923,-1.13354 2.0547,-1.13354 0.54886,0 0.99408,0.10491 1.3344,0.31985 0.34416,0.20982 0.5591,0.44907 0.64865,0.7139 0.096,0.26484 0.14074,0.6397 0.14074,1.1297 v 0.95443 c -0.83928,-0.5399 -1.70927,-0.81497 -2.60868,-0.81497 -0.96466,0 -1.79499,0.29554 -2.47946,0.88533 -0.68447,0.5898 -1.02479,1.32929 -1.02479,2.22358 0,0.88918 0.31985,1.61459 0.96466,2.18392 0.64481,0.56933 1.40477,0.85464 2.27987,0.85464 1.12331,0 2.14298,-0.44523 3.05775,-1.32929 v 1.16936 h 3.29826 v -1.67856 z m -1.86918,-0.77019 c -0.80986,0.76507 -1.67473,1.14889 -2.58949,1.14889 -0.52967,0 -0.94931,-0.14969 -1.2538,-0.45418 -0.30961,-0.3045 -0.46442,-0.68448 -0.46442,-1.13482 0,-0.48489 0.174,-0.87382 0.52455,-1.1796 0.35439,-0.30449 0.78938,-0.4593 1.31393,-0.4593 0.83416,0 1.65937,0.31985 2.46923,0.95443 z m 5.6114,-5.48219 v 4.76701 c 0,0.93523 0.0461,1.59924 0.14073,1.98433 0.0896,0.3851 0.31473,0.70495 0.67424,0.95955 0.35567,0.2546 0.82521,0.37998 1.39965,0.37998 0.48489,0 0.96466,-0.0844 1.44955,-0.25972 v -1.71438 c -0.34031,0.13049 -0.68447,0.19446 -1.03502,0.19446 -0.33009,0 -0.53479,-0.0844 -0.61923,-0.25971 -0.0857,-0.174 -0.12538,-0.6397 -0.12538,-1.3843 v -4.66722 h 1.77963 v -1.67984 h -1.77963 v -3.20743 l -1.88454,1.72846 v 1.47897 h -1.24868 v 1.67984 z m 6.48779,-4.14266 c 0.22005,0.22901 0.49,0.33904 0.80985,0.33904 0.30961,0 0.57957,-0.11003 0.80346,-0.33009 0.22517,-0.22389 0.3352,-0.49384 0.3352,-0.81369 0,-0.31473 -0.11003,-0.58468 -0.3352,-0.80473 -0.22389,-0.21494 -0.49385,-0.32497 -0.80346,-0.32497 -0.33008,0 -0.60515,0.11003 -0.82009,0.3352 -0.21493,0.22901 -0.32496,0.49384 -0.32496,0.7945 0,0.31473 0.11514,0.57957 0.3352,0.80474 m -1.55446,10.39504 v 1.67856 h 4.86808 v -1.67856 h -1.48921 v -7.93222 h -3.37887 v 1.67984 h 1.48921 v 6.25238 z m 13.41312,-7.93222 v 0.67552 c -0.73437,-0.62562 -1.63378,-0.94035 -2.69823,-0.94035 -1.24485,0 -2.34384,0.47082 -3.29827,1.41501 -0.9493,0.93907 -1.42908,2.13914 -1.42908,3.58868 0,1.3536 0.43884,2.55367 1.30882,3.59253 0.8751,1.04015 2.07389,1.55958 3.59892,1.55958 2.1481,0 3.65266,-0.95954 4.51753,-2.86839 l -1.56469,-0.73565 c -0.59492,1.25508 -1.55446,1.88454 -2.87863,1.88454 -0.94931,0 -1.67856,-0.34416 -2.18392,-1.03887 -0.50024,-0.68959 -0.75484,-1.48921 -0.75484,-2.39374 0,-0.97489 0.26483,-1.76044 0.7945,-2.35919 0.52967,-0.60003 1.22054,-0.89941 2.07005,-0.89941 0.63458,0 1.18856,0.18423 1.66833,0.55397 0.47977,0.37487 0.76507,0.90453 0.84951,1.59924 h 1.69008 v -3.63347 z m 4.97811,9.61078 v -0.5399 c 0.64481,0.4657 1.48409,0.69983 2.50889,0.69983 1.09387,0 1.97921,-0.26484 2.6688,-0.78939 0.67936,-0.52455 1.02479,-1.23461 1.02479,-2.1289 0,-0.60515 -0.1548,-1.13482 -0.47081,-1.58389 -0.31473,-0.45546 -0.70878,-0.78043 -1.18855,-0.97489 -0.47466,-0.19447 -1.1796,-0.36463 -2.11484,-0.51048 -0.96849,-0.14969 -1.60435,-0.29426 -1.89861,-0.43371 -0.29426,-0.13562 -0.44523,-0.3851 -0.44523,-0.74973 0,-0.35567 0.15992,-0.63969 0.48489,-0.85463 0.31985,-0.21494 0.73053,-0.32496 1.22438,-0.32496 0.97489,0 1.71438,0.39405 2.22486,1.17959 v 0.5898 h 1.67856 v -3.18952 h -1.67856 v 0.41069 c -0.65505,-0.36975 -1.43548,-0.56037 -2.34385,-0.56037 -1.0056,0 -1.81417,0.26995 -2.43468,0.80985 -0.6141,0.5399 -0.91988,1.21414 -0.91988,2.01376 0,0.7945 0.28019,1.44443 0.84952,1.93955 0.56549,0.50408 1.50968,0.86487 2.83385,1.08877 0.89557,0.14585 1.48921,0.30065 1.78986,0.47465 0.3045,0.17016 0.45419,0.44011 0.45419,0.80474 0,0.37486 -0.18424,0.6704 -0.54502,0.88022 -0.36463,0.21493 -0.85336,0.31984 -1.45851,0.31984 -0.58468,0 -1.09004,-0.14457 -1.51991,-0.43499 -0.42476,-0.29426 -0.66912,-0.664 -0.72414,-1.11435 v -0.31473 h -1.68879 v 3.29315 z m 12.51883,-1.72462 v 1.72462 h 5.06255 v -1.72462 h -1.48921 v -10.35922 h 1.48921 v -1.72462 h -5.06255 v 1.72462 h 1.48921 v 10.35922 z m 6.26262,-7.88616 v 1.67984 h 1.68879 v 6.25238 h -1.68879 v 1.67856 h 5.23142 v -1.67856 h -1.65809 v -5.14315 c 1.05422,-0.80985 1.99841,-1.21925 2.83257,-1.21925 0.31601,0 0.58469,0.11002 0.80474,0.33008 0.21494,0.22517 0.32497,0.69982 0.32497,1.42908 v 6.2818 h 3.50425 v -1.67856 h -1.6146 v -4.68384 c 0,-0.82393 -0.0652,-1.44316 -0.19062,-1.87303 -0.12411,-0.42476 -0.39406,-0.78555 -0.79962,-1.07981 -0.40941,-0.29554 -0.91861,-0.44522 -1.54423,-0.44522 -0.9992,0 -2.10331,0.44011 -3.31746,1.31009 v -1.16041 z m 13.63318,9.61078 v -0.5399 c 0.64993,0.4657 1.48409,0.69983 2.514,0.69983 1.08876,0 1.97922,-0.26484 2.66369,-0.78939 0.68447,-0.52455 1.02863,-1.23461 1.02863,-2.1289 0,-0.60515 -0.15992,-1.13482 -0.47465,-1.58389 -0.31473,-0.45546 -0.70879,-0.78043 -1.18344,-0.97489 -0.47977,-0.19447 -1.18471,-0.36463 -2.11483,-0.51048 -0.97362,-0.14969 -1.60947,-0.29426 -1.90373,-0.43371 -0.29554,-0.13562 -0.44011,-0.3851 -0.44011,-0.74973 0,-0.35567 0.15992,-0.63969 0.47977,-0.85463 0.31985,-0.21494 0.72925,-0.32496 1.22437,-0.32496 0.9749,0 1.71439,0.39405 2.2287,1.17959 v 0.5898 h 1.67472 v -3.18952 h -1.67472 v 0.41069 c -0.65888,-0.36975 -1.43931,-0.56037 -2.34384,-0.56037 -1.00944,0 -1.81801,0.26995 -2.4334,0.80985 -0.61411,0.5399 -0.925,1.21414 -0.925,2.01376 0,0.7945 0.2853,1.44443 0.84951,1.93955 0.5655,0.50408 1.50969,0.86487 2.83385,1.08877 0.8943,0.14585 1.48921,0.30065 1.79499,0.47465 0.29938,0.17016 0.44906,0.44011 0.44906,0.80474 0,0.37486 -0.17911,0.6704 -0.54502,0.88022 -0.36462,0.21493 -0.84951,0.31984 -1.4585,0.31984 -0.58468,0 -1.09004,-0.14457 -1.5148,-0.43499 -0.42987,-0.29426 -0.66912,-0.664 -0.72925,-1.11435 v -0.31473 h -1.6888 v 3.29315 z m 8.65507,-7.93094 v 4.76701 c 0,0.93523 0.0512,1.59924 0.14074,1.98433 0.0947,0.3851 0.31984,0.70495 0.67423,0.95955 0.35951,0.2546 0.82521,0.37998 1.39966,0.37998 0.48489,0 0.96977,-0.0844 1.44955,-0.25972 v -1.71438 c -0.3352,0.13049 -0.67936,0.19446 -1.02991,0.19446 -0.3352,0 -0.53991,-0.0844 -0.61923,-0.25971 -0.0857,-0.174 -0.12538,-0.6397 -0.12538,-1.3843 v -4.66722 h 1.77452 v -1.67984 h -1.77452 v -3.20743 l -1.88966,1.72846 v 1.47897 h -1.24868 v 1.67984 z m 6.49291,-4.14266 c 0.22005,0.22901 0.49,0.33904 0.80985,0.33904 0.30961,0 0.57445,-0.11003 0.79962,-0.33009 0.22389,-0.22389 0.33904,-0.49384 0.33904,-0.81369 0,-0.31473 -0.11515,-0.58468 -0.33904,-0.80473 -0.22517,-0.21494 -0.49001,-0.32497 -0.79962,-0.32497 -0.3352,0 -0.60515,0.11003 -0.82009,0.3352 -0.21493,0.22901 -0.32496,0.49384 -0.32496,0.7945 0,0.31473 0.11003,0.57957 0.3352,0.80474 m -1.55446,10.39504 v 1.67856 h 4.86296 v -1.67856 h -1.48921 v -7.93222 h -3.37375 v 1.67984 h 1.48921 v 6.25238 z m 7.13644,-6.25238 v 4.76701 c 0,0.93523 0.0448,1.59924 0.13945,1.98433 0.0908,0.3851 0.31473,0.70495 0.67552,0.95955 0.35439,0.2546 0.82393,0.37998 1.39837,0.37998 0.48489,0 0.96466,-0.0844 1.44955,-0.25972 v -1.71438 c -0.33392,0.13049 -0.67936,0.19446 -1.02863,0.19446 -0.3352,0 -0.5399,-0.0844 -0.62562,-0.25971 -0.0793,-0.174 -0.11898,-0.6397 -0.11898,-1.3843 v -4.66722 h 1.77323 v -1.67984 h -1.77323 v -3.20743 l -1.88966,1.72846 v 1.47897 h -1.24997 v 1.67984 z m 13.86347,6.25238 v -7.93222 h -3.58869 v 1.67984 h 1.69903 v 5.202 c -0.99409,0.83544 -1.9242,1.24997 -2.79803,1.24997 -0.29554,0 -0.53478,-0.0806 -0.72541,-0.23541 -0.19447,-0.15992 -0.30961,-0.36463 -0.34928,-0.60899 -0.0397,-0.24564 -0.0601,-0.7203 -0.0601,-1.43036 v -5.85705 h -3.24325 v 1.67984 h 1.35871 v 4.41774 c 0,0.99408 0.0704,1.71438 0.2111,2.15961 0.13434,0.44395 0.41452,0.80857 0.83416,1.09388 0.42476,0.28018 0.95443,0.41964 1.59412,0.41964 1.01456,0 2.0739,-0.41964 3.17801,-1.25892 v 1.09899 h 3.54391 v -1.67856 z m 3.71791,-6.25238 v 4.76701 c 0,0.93523 0.0499,1.59924 0.14073,1.98433 0.0947,0.3851 0.31985,0.70495 0.67424,0.95955 0.35951,0.2546 0.82392,0.37998 1.40477,0.37998 0.47977,0 0.96338,-0.0844 1.44827,-0.25972 v -1.71438 c -0.33904,0.13049 -0.68448,0.19446 -1.03375,0.19446 -0.33008,0 -0.5399,-0.0844 -0.6205,-0.25971 -0.0844,-0.174 -0.12411,-0.6397 -0.12411,-1.3843 v -4.66722 h 1.77836 v -1.67984 h -1.77836 v -3.20743 l -1.88965,1.72846 v 1.47897 h -1.24869 v 1.67984 z m 13.5385,-0.55013 c -1.0491,-0.93396 -2.21846,-1.39454 -3.50809,-1.39454 -1.31905,0 -2.48329,0.47465 -3.49785,1.42524 -1.01967,0.95443 -1.52503,2.16857 -1.52503,3.64754 0,1.55446 0.51943,2.78907 1.56469,3.70895 1.03887,0.91349 2.29907,1.37407 3.76781,1.37407 0.94419,0 1.84999,-0.2047 2.7187,-0.61027 0.86999,-0.40941 1.57493,-1.03375 2.11483,-1.87431 l -1.6696,-0.73437 c -0.76508,1.05934 -1.80906,1.58901 -3.12427,1.58901 -0.90837,0 -1.65425,-0.27379 -2.23894,-0.82393 -0.57956,-0.55014 -0.92883,-1.26916 -1.0491,-2.15449 h 8.08191 c -0.0409,-1.83849 -0.58468,-3.22279 -1.63506,-4.1529 m -6.37648,2.78395 c 0.12026,-0.78427 0.44523,-1.41885 0.97873,-1.91397 0.53991,-0.49001 1.18472,-0.73949 1.93956,-0.73949 0.82521,0 1.52375,0.27507 2.09436,0.81881 0.56933,0.55014 0.91988,1.16041 1.05422,1.83465 z"
         style="fill:#3d63b0;fill-opacity:1;fill-rule:nonzero;stroke:none;stroke-width:1.27939;stroke-linecap:butt;stroke-linejoin:round;stroke-miterlimit:100000"
         id="path22925-4"
         inkscape:connector-curvature="0" />
      <path
         d="m 247.59388,801.08214 v -1.14505 c 1.00432,0.90965 2.13403,1.36511 3.39295,1.36511 1.22437,0 2.25428,-0.3851 3.08333,-1.15529 0.83032,-0.76891 1.24484,-1.74381 1.24484,-2.91829 0,-0.83416 -0.19958,-1.57365 -0.59491,-2.21334 -0.39406,-0.64482 -0.86999,-1.1054 -1.41885,-1.38047 -0.55014,-0.27379 -1.43419,-0.56933 -2.64961,-0.88406 -0.93396,-0.23924 -1.5583,-0.42475 -1.87815,-0.55525 -0.31985,-0.13434 -0.57956,-0.33904 -0.78554,-0.62434 -0.20471,-0.28019 -0.3045,-0.60388 -0.3045,-0.9749 0,-0.48361 0.19959,-0.89941 0.60515,-1.24357 0.40429,-0.35055 0.98385,-0.52455 1.73358,-0.52455 1.24484,0 2.22486,0.53479 2.93364,1.59924 v 0.96466 h 1.68495 v -4.19384 h -1.68495 v 0.925 c -0.94931,-0.71518 -1.9741,-1.06957 -3.07822,-1.06957 -1.16936,0 -2.13402,0.34416 -2.90421,1.03503 -0.77403,0.69343 -1.15913,1.61843 -1.15913,2.77755 0,0.74461 0.17528,1.39454 0.52967,1.93956 0.35567,0.54502 0.83032,0.96466 1.42908,1.25892 0.59491,0.29554 1.50968,0.61027 2.74941,0.94035 1.06445,0.28402 1.78858,0.56933 2.17368,0.85975 0.3851,0.28402 0.57445,0.75868 0.57445,1.41373 0,0.67423 -0.23413,1.21926 -0.70367,1.63889 -0.47081,0.41581 -1.04526,0.62563 -1.72973,0.62563 -1.33441,0 -2.41933,-0.74973 -3.24326,-2.25429 v -1.21926 h -1.72973 v 5.01265 z m 10.5844,-1.15529 c 0.96978,0.95571 2.16984,1.43036 3.60404,1.43036 1.38942,0 2.57797,-0.47081 3.56822,-1.40989 0.98897,-0.93907 1.48409,-2.16344 1.48409,-3.67312 0,-1.50969 -0.49512,-2.72894 -1.48921,-3.66802 -0.99536,-0.93523 -2.18392,-1.40477 -3.5631,-1.40477 -1.40989,0 -2.60868,0.47466 -3.58869,1.42396 -0.98001,0.95059 -1.4649,2.16985 -1.4649,3.64883 0,1.48409 0.47977,2.70335 1.44955,3.65265 m 1.40989,-5.96195 c 0.57444,-0.62435 1.30369,-0.93396 2.19415,-0.93396 0.8444,0 1.56853,0.3045 2.16345,0.91477 0.59491,0.60898 0.89429,1.3843 0.89429,2.32337 0,0.93523 -0.29426,1.70926 -0.87894,2.32337 -0.5898,0.61027 -1.31521,0.91988 -2.1788,0.91988 -0.85463,0 -1.58005,-0.30449 -2.16985,-0.90965 -0.59363,-0.60387 -0.88917,-1.3843 -0.88917,-2.3336 0,-0.91477 0.2853,-1.68368 0.86487,-2.30418 m 17.6108,5.4374 v -7.93094 h -3.58229 v 1.67473 h 1.69391 v 5.202 c -0.99025,0.83416 -1.9242,1.25508 -2.79931,1.25508 -0.28914,0 -0.52966,-0.0806 -0.72413,-0.24053 -0.18935,-0.15992 -0.30449,-0.35951 -0.34544,-0.60515 -0.0397,-0.24436 -0.0589,-0.72413 -0.0589,-1.42908 v -5.85705 h -3.24965 v 1.67473 h 1.35999 v 4.42285 c 0,0.98897 0.0704,1.70926 0.20982,2.15833 0.13946,0.44523 0.41964,0.80985 0.83928,1.09004 0.41964,0.28019 0.95059,0.42476 1.59412,0.42476 1.00944,0 2.07006,-0.41964 3.17417,-1.26532 v 1.10539 h 3.54775 v -1.67984 z m 3.7243,-6.25621 v 4.767 c 0,0.94036 0.0448,1.60436 0.13946,1.98434 0.0896,0.38509 0.31473,0.70494 0.67424,0.95954 0.35567,0.2546 0.8252,0.3851 1.39965,0.3851 0.48489,0 0.96466,-0.0908 1.44955,-0.25972 v -1.7195 c -0.34032,0.13434 -0.68448,0.19959 -1.03503,0.19959 -0.33008,0 -0.53478,-0.0844 -0.61922,-0.26484 -0.0806,-0.17528 -0.12538,-0.63458 -0.12538,-1.3843 v -4.66721 h 1.77963 v -1.67473 h -1.77963 v -3.20871 l -1.88327,1.72974 v 1.47897 h -1.24996 v 1.67473 z m 4.68769,6.25621 v 1.67984 h 5.29156 v -1.67984 h -1.66833 v -5.26213 c 1.12459,-0.8252 2.04831,-1.23973 2.77884,-1.23973 0.28402,0 0.52967,0.0806 0.73949,0.24053 0.20982,0.1548 0.33392,0.35951 0.37997,0.60387 0.0499,0.24564 0.0691,0.73053 0.0691,1.45978 v 5.87752 h 3.52856 v -1.67984 h -1.6389 v -4.85272 c 0,-0.83417 -0.0755,-1.46874 -0.22517,-1.90374 -0.14969,-0.43499 -0.42988,-0.77914 -0.83928,-1.04398 -0.41069,-0.26483 -0.93012,-0.40045 -1.56981,-0.40045 -1.01968,0 -2.09309,0.45547 -3.22279,1.36895 v -5.30179 h -3.62323 v 1.67856 h 1.73357 v 10.45517 z m 26.98106,-0.0499 h -1.71311 v 1.72973 h 5.40671 v -1.72973 h -1.54423 l -3.86248,-10.52427 h 1.72334 v -1.55957 h -7.05583 v 1.55957 h 1.66832 l -3.77292,10.52427 h -1.6696 v 1.72973 h 5.44252 v -1.72973 h -1.67856 l 1.05422,-3.12811 h 4.97811 z m -5.48731,-4.74782 1.91525,-5.77645 h 0.18935 l 1.83848,5.77645 z m 9.58136,4.79771 v 1.67984 h 5.11244 v -1.67984 h -1.82953 v -6.26133 h 1.64914 v -1.66961 h -1.64914 v -1.38941 c 0,-0.6397 0.055,-1.05422 0.15992,-1.24869 0.10491,-0.19574 0.3045,-0.29042 0.58469,-0.29042 0.41964,0 0.66016,0.3045 0.72541,0.91988 l 1.67856,-0.2546 c -0.23029,-1.48025 -1.07469,-2.21462 -2.53319,-2.21462 -0.6704,0 -1.2602,0.22005 -1.75405,0.6704 -0.49512,0.44395 -0.74588,1.24868 -0.74588,2.41805 v 1.38941 h -1.39837 v 1.66961 h 1.39837 v 6.26133 z m 5.82634,0 v 1.67984 h 5.91718 v -1.67984 h -2.09308 v -2.11355 c 0,-1.30881 0.11514,-2.21846 0.33903,-2.72894 0.23029,-0.50408 0.57957,-0.85463 1.0555,-1.04398 0.47465,-0.19063 1.18855,-0.29042 2.1481,-0.29042 h 0.37998 v -1.90373 h -0.50025 c -0.72413,0 -1.29858,0.0601 -1.71822,0.18039 -0.42475,0.11387 -0.82009,0.36463 -1.20006,0.73437 -0.37487,0.36974 -0.66913,0.83416 -0.88406,1.39837 v -2.16345 h -3.44412 v 1.67473 h 1.93444 v 6.25621 z m 10.65988,-10.39504 c 0.22005,0.22517 0.49,0.3352 0.80985,0.3352 0.30961,0 0.57956,-0.11003 0.80474,-0.33008 0.22517,-0.22006 0.3352,-0.49001 0.3352,-0.80986 0,-0.31984 -0.11003,-0.58468 -0.3352,-0.80473 -0.22518,-0.21878 -0.49513,-0.32369 -0.80474,-0.32369 -0.33392,0 -0.60387,0.10875 -0.81881,0.33392 -0.21494,0.22517 -0.32496,0.49001 -0.32496,0.7945 0,0.31089 0.11002,0.57957 0.33392,0.80474 m -1.55318,10.39504 v 1.67984 h 4.86168 v -1.67984 h -1.48921 v -7.93094 h -3.37247 v 1.67473 h 1.48921 v 6.25621 z m 13.41312,-7.93094 v 0.67424 c -0.73437,-0.62946 -1.63378,-0.94419 -2.70335,-0.94419 -1.24484,0 -2.34384,0.46954 -3.29443,1.41501 -0.95442,0.94419 -1.42908,2.13786 -1.42908,3.58741 0,1.35999 0.435,2.55878 1.3101,3.59892 0.87382,1.03375 2.06877,1.55446 3.59253,1.55446 2.15449,0 3.65905,-0.95442 4.5188,-2.86967 l -1.55957,-0.73437 c -0.59492,1.2602 -1.55446,1.88966 -2.87863,1.88966 -0.95443,0 -1.67984,-0.35055 -2.18392,-1.04015 -0.50536,-0.68959 -0.75484,-1.48921 -0.75484,-2.39885 0,-0.96978 0.26483,-1.75916 0.7945,-2.35408 0.52967,-0.59875 1.21926,-0.89941 2.06366,-0.89941 0.63457,0 1.19495,0.18551 1.67472,0.55525 0.47977,0.36975 0.75996,0.90453 0.84951,1.59924 h 1.6888 v -3.63347 z m 11.36483,7.93094 v -4.44716 c 0,-0.78042 -0.0448,-1.34975 -0.1305,-1.70926 -0.0896,-0.35567 -0.26484,-0.68959 -0.52455,-0.99537 -0.2546,-0.30961 -0.64993,-0.55909 -1.17448,-0.75356 -0.52455,-0.19574 -1.14889,-0.29554 -1.86919,-0.29554 -1.96898,0 -3.35328,0.74973 -4.1529,2.24405 l 1.80906,0.47466 c 0.41964,-0.75484 1.10923,-1.1297 2.0547,-1.1297 0.54885,0 0.99408,0.10491 1.3344,0.31473 0.33904,0.21493 0.55909,0.45034 0.64865,0.71517 0.096,0.26484 0.14073,0.64482 0.14073,1.13482 v 0.95443 c -0.83928,-0.54502 -1.70926,-0.81497 -2.61379,-0.81497 -0.96466,0 -1.78987,0.29554 -2.47434,0.88534 -0.68447,0.58851 -1.02991,1.32928 -1.02991,2.22358 0,0.88405 0.32497,1.61459 0.96978,2.18391 0.64481,0.56933 1.40477,0.85464 2.27987,0.85464 1.12331,0 2.14298,-0.44523 3.05774,-1.33441 v 1.17448 h 3.29315 v -1.67984 z m -1.86408,-0.77403 c -0.81497,0.76892 -1.67984,1.1489 -2.58948,1.1489 -0.52967,0 -0.94931,-0.14969 -1.25892,-0.45419 -0.3045,-0.30577 -0.4593,-0.67935 -0.4593,-1.1297 0,-0.48489 0.17399,-0.88022 0.52455,-1.18472 0.34927,-0.30449 0.78938,-0.45418 1.30881,-0.45418 0.83417,0 1.65937,0.31985 2.47434,0.95443 z m 4.28724,-7.15691 v 1.67473 h 1.69007 v 6.25621 h -1.69007 v 1.67984 h 5.23271 v -1.67984 h -1.65937 v -5.14187 c 1.05421,-0.81497 1.99968,-1.21925 2.83385,-1.21925 0.31473,0 0.58468,0.11002 0.80473,0.3288 0.21494,0.22005 0.32497,0.69983 0.32497,1.42524 v 6.28692 h 3.50297 v -1.67984 h -1.61843 v -4.68768 c 0,-0.81881 -0.0601,-1.44443 -0.18551,-1.86919 -0.12538,-0.42988 -0.39533,-0.78938 -0.79962,-1.08364 -0.40941,-0.29554 -0.91988,-0.44011 -1.54423,-0.44011 -0.9992,0 -2.10331,0.43499 -3.31873,1.30881 v -1.15913 z m 16.29303,7.88105 v 1.72973 h 5.6613 v -1.72973 h -1.97793 v -9.92039 l 6.62596,11.78958 h 2.14426 v -12.22458 h 2.03423 v -1.72845 h -5.6677 v 1.72845 h 1.95491 v 9.00691 l -6.05792,-10.73536 h -4.71711 v 1.72845 h 1.97922 v 10.35539 z m 23.44355,0.0499 v -4.44716 c 0,-0.78042 -0.0448,-1.34975 -0.13562,-1.70926 -0.0896,-0.35567 -0.26483,-0.68959 -0.51943,-0.99537 -0.25972,-0.30961 -0.64993,-0.55909 -1.1796,-0.75356 -0.52455,-0.19574 -1.14889,-0.29554 -1.86919,-0.29554 -1.96386,0 -3.34816,0.74973 -4.1529,2.24405 l 1.80906,0.47466 c 0.42476,-0.75484 1.11051,-1.1297 2.0547,-1.1297 0.54886,0 0.99409,0.10491 1.3344,0.31473 0.34416,0.21493 0.5591,0.45034 0.64994,0.71517 0.0947,0.26484 0.13945,0.64482 0.13945,1.13482 v 0.95443 c -0.83928,-0.54502 -1.70927,-0.81497 -2.60868,-0.81497 -0.96466,0 -1.7937,0.29554 -2.47946,0.88534 -0.68447,0.58851 -1.02351,1.32928 -1.02351,2.22358 0,0.88405 0.31985,1.61459 0.96466,2.18391 0.64865,0.56933 1.40349,0.85464 2.2786,0.85464 1.12458,0 2.14425,-0.44523 3.05774,-1.33441 v 1.17448 h 3.29955 v -1.67984 z m -1.86919,-0.77403 c -0.80986,0.76892 -1.67472,1.1489 -2.58821,1.1489 -0.53094,0 -0.95058,-0.14969 -1.25508,-0.45419 -0.30961,-0.30577 -0.46442,-0.67935 -0.46442,-1.1297 0,-0.48489 0.174,-0.88022 0.52455,-1.18472 0.35439,-0.30449 0.78939,-0.45418 1.31394,-0.45418 0.83032,0 1.65936,0.31985 2.46922,0.95443 z m 5.61268,-5.48218 v 4.767 c 0,0.94036 0.0448,1.60436 0.13946,1.98434 0.0895,0.38509 0.31473,0.70494 0.67424,0.95954 0.35567,0.2546 0.8252,0.3851 1.39965,0.3851 0.48489,0 0.96466,-0.0908 1.44955,-0.25972 v -1.7195 c -0.34032,0.13434 -0.68448,0.19959 -1.03503,0.19959 -0.3288,0 -0.53478,-0.0844 -0.61922,-0.26484 -0.0844,-0.17528 -0.12538,-0.63458 -0.12538,-1.3843 v -4.66721 h 1.77963 v -1.67473 h -1.77963 v -3.20871 l -1.88327,1.72974 v 1.47897 h -1.24996 v 1.67473 z m 6.48651,-4.13883 c 0.22006,0.22517 0.49001,0.3352 0.80985,0.3352 0.30962,0 0.57957,-0.11003 0.80474,-0.33008 0.22517,-0.22006 0.33904,-0.49001 0.33904,-0.80986 0,-0.31984 -0.11387,-0.58468 -0.33904,-0.80473 -0.22517,-0.21878 -0.49512,-0.32369 -0.80474,-0.32369 -0.33008,0 -0.60515,0.10875 -0.82008,0.33392 -0.21494,0.22517 -0.31985,0.49001 -0.31985,0.7945 0,0.31089 0.11003,0.57957 0.33008,0.80474 m -1.55446,10.39504 v 1.67984 h 4.86808 v -1.67984 h -1.48921 v -7.93094 h -3.37887 v 1.67473 h 1.48921 v 6.25621 z m 7.50107,0.52455 c 0.96977,0.95571 2.16984,1.43036 3.59892,1.43036 1.38942,0 2.57925,-0.47081 3.56822,-1.40989 0.99409,-0.93907 1.48921,-2.16344 1.48921,-3.67312 0,-1.50969 -0.50024,-2.72894 -1.48921,-3.66802 -0.99409,-0.93523 -2.18392,-1.40477 -3.56822,-1.40477 -1.40989,0 -2.60356,0.47466 -3.58357,1.42396 -0.97873,0.95059 -1.46874,2.16985 -1.46874,3.64883 0,1.48409 0.48489,2.70335 1.45339,3.65265 m 1.40477,-5.96195 c 0.57956,-0.62435 1.31009,-0.93396 2.19415,-0.93396 0.84952,0 1.56981,0.3045 2.16345,0.91477 0.60003,0.60898 0.89557,1.3843 0.89557,2.32337 0,0.93523 -0.29042,1.70926 -0.88022,2.32337 -0.58468,0.61027 -1.30881,0.91988 -2.1788,0.91988 -0.85463,0 -1.57493,-0.30449 -2.16857,-0.90965 -0.58979,-0.60387 -0.89045,-1.3843 -0.89045,-2.3336 0,-0.91477 0.29042,-1.68368 0.86487,-2.30418 m 8.57063,-2.49354 v 1.67473 h 1.68496 v 6.25621 h -1.68496 v 1.67984 h 5.23271 v -1.67984 h -1.65937 v -5.14187 c 1.05038,-0.81497 1.99457,-1.21925 2.82873,-1.21925 0.31985,0 0.58468,0.11002 0.80473,0.3288 0.22006,0.22005 0.33009,0.69983 0.33009,1.42524 v 6.28692 h 3.50297 v -1.67984 h -1.61843 v -4.68768 c 0,-0.81881 -0.0652,-1.44443 -0.19063,-1.86919 -0.12538,-0.42988 -0.39021,-0.78938 -0.79962,-1.08364 -0.40429,-0.29554 -0.91988,-0.44011 -1.54422,-0.44011 -0.99921,0 -2.10332,0.43499 -3.31362,1.30881 v -1.15913 z m 20.02629,7.93094 v -4.44716 c 0,-0.78042 -0.046,-1.34975 -0.13561,-1.70926 -0.0896,-0.35567 -0.26484,-0.68959 -0.51943,-0.99537 -0.25972,-0.30961 -0.64993,-0.55909 -1.1796,-0.75356 -0.52455,-0.19574 -1.14889,-0.29554 -1.86919,-0.29554 -1.96898,0 -3.34816,0.74973 -4.1529,2.24405 l 1.80906,0.47466 c 0.42475,-0.75484 1.10923,-1.1297 2.0547,-1.1297 0.54886,0 0.99408,0.10491 1.33824,0.31473 0.34032,0.21493 0.55525,0.45034 0.64993,0.71517 0.0908,0.26484 0.13561,0.64482 0.13561,1.13482 v 0.95443 c -0.84055,-0.54502 -1.70926,-0.81497 -2.60867,-0.81497 -0.96978,0 -1.79499,0.29554 -2.47946,0.88534 -0.68447,0.58851 -1.02479,1.32928 -1.02479,2.22358 0,0.88405 0.31985,1.61459 0.96466,2.18391 0.64481,0.56933 1.40477,0.85464 2.27987,0.85464 1.12331,0 2.14298,-0.44523 3.05774,-1.33441 v 1.17448 h 3.29827 v -1.67984 z m -1.86919,-0.77403 c -0.81497,0.76892 -1.67472,1.1489 -2.58948,1.1489 -0.52967,0 -0.94931,-0.14969 -1.25892,-0.45419 -0.3045,-0.30577 -0.4593,-0.67935 -0.4593,-1.1297 0,-0.48489 0.174,-0.88022 0.52455,-1.18472 0.35439,-0.30449 0.78938,-0.45418 1.31393,-0.45418 0.83416,0 1.65425,0.31985 2.46922,0.95443 z m 4.15291,0.77403 v 1.67984 h 5.06254 v -1.67984 h -1.47002 v -12.13373 h -3.59252 v 1.67856 h 1.70414 v 10.45517 z"
         style="fill:#3d63b0;fill-opacity:1;fill-rule:nonzero;stroke:none;stroke-width:1.27939;stroke-linecap:butt;stroke-linejoin:round;stroke-miterlimit:100000"
         id="path22927-8"
         inkscape:connector-curvature="0" />
    </g>
  </g>
</svg>
