<?xml version="1.0" encoding="utf-8"?>
<!-- Generator: Adobe Illustrator 26.0.3, SVG Export Plug-In . SVG Version: 6.00 Build 0)  -->
<svg version="1.0" id="Layer_1" xmlns="http://www.w3.org/2000/svg" xmlns:xlink="http://www.w3.org/1999/xlink" x="0px" y="0px"
	 viewBox="0 0 228.6 151" style="enable-background:new 0 0 228.6 151;" xml:space="preserve">
<style type="text/css">
	.st0{clip-path:url(#SVGID_00000172418017980102225380000017555585911826991789_);}
	.st1{fill:#FFFFFF;}
	.st2{fill:#2B8CBE;}
</style>
<g>
	<defs>
		<rect id="SVGID_1_" x="17.3" y="61.3" width="194.1" height="28.4"/>
	</defs>
	<clipPath id="SVGID_00000169540911888421582020000006211210586414087050_">
		<use xlink:href="#SVGID_1_"  style="overflow:visible;"/>
	</clipPath>
	<g style="clip-path:url(#SVGID_00000169540911888421582020000006211210586414087050_);">
		<path d="M209.2,81.2V79h0.2c0.3,0,0.6,0.1,0.9,0.3c0.4,0.4,0.5,1.1,0.1,1.5c0,0-0.1,0.1-0.1,0.1c-0.2,0.2-0.6,0.3-0.9,0.3H209.2z
			 M208.6,81.7h0.9c0.4,0,0.8-0.1,1.2-0.4c0.7-0.5,0.8-1.5,0.3-2.2c-0.3-0.4-0.9-0.7-1.4-0.6h-0.9L208.6,81.7z M206.2,80.5h-0.9
			l0.5-1.1L206.2,80.5z M206.4,81l0.3,0.7h0.7l-1.4-3.2h-0.5l-1.4,3.2h0.7L205,81L206.4,81z M202.4,81.6V79h0.7v-0.5H201V79h0.7v2.6
			H202.4z M199.8,78.8c-0.3-0.2-0.6-0.4-1-0.4c-0.5,0-1,0.4-1,0.9c0,0.4,0.2,0.7,0.8,0.9c0.2,0,0.3,0.1,0.4,0.2
			c0.1,0.1,0.2,0.2,0.2,0.3c0,0.3-0.2,0.5-0.5,0.4c0,0,0,0,0,0c-0.3,0-0.6-0.2-0.7-0.4l-0.4,0.4c0.2,0.4,0.7,0.6,1.1,0.6
			c0.6,0.1,1.1-0.4,1.1-0.9c0,0,0,0,0-0.1c0-0.5-0.2-0.7-1-1c-0.4-0.1-0.5-0.2-0.5-0.4s0.2-0.4,0.5-0.4c0.2,0,0.4,0.1,0.5,0.3
			L199.8,78.8z M195,79.9V79h0.2c0.4,0,0.6,0.2,0.6,0.5s-0.2,0.5-0.6,0.5H195z M195,80.5h0.4c0.7,0,1.1-0.4,1.1-1
			c0-0.3-0.1-0.6-0.3-0.8c-0.2-0.2-0.6-0.3-0.9-0.2h-1v3.2h0.6L195,80.5z M191.9,80.5h-1l0.5-1.1L191.9,80.5z M192.1,81l0.3,0.7h0.7
			l-1.4-3.2h-0.4l-1.4,3.2h0.7l0.3-0.7H192.1z M187.7,80.5h-0.9l0.5-1.1L187.7,80.5z M187.9,81l0.3,0.7h0.7l-1.4-3.2h-0.5l-1.4,3.2
			h0.7l0.3-0.7L187.9,81z M182.6,79.8v-1.3H182v3.2h0.6v-1.3l0.1-0.1l1.2,1.4h0.9l-1.4-1.7l1.4-1.5h-0.8L182.6,79.8z M175.2,81.6
			h0.6v-2.1l2,2.2h0.5v-3.2h-0.6v2.1l-2-2.2h-0.4L175.2,81.6z M172.8,80.5h-0.9l0.5-1.1L172.8,80.5z M173,81l0.3,0.7h0.7l-1.4-3.2
			h-0.5l-1.4,3.2h0.7l0.3-0.7L173,81z M167.3,78.5h-0.7l1.4,3.2h0.3l1.4-3.2H169l-0.9,2.1L167.3,78.5z M162.9,81.6V79h0.8v-0.5h-2.1
			V79h0.7v2.6H162.9z M160.2,78.5h-0.6v3.2h0.6V78.5z M158.1,79v-0.5h-1.8v3.2h1.8v-0.5h-1.2v-0.9h1.1v-0.5h-1.1V79H158.1z
			 M154.2,81.6V79h0.7v-0.5h-2.1V79h0.7v2.6H154.2z M151.6,78.5h-0.6v3.2h0.6V78.5z M149.4,78.8c-0.3-0.2-0.6-0.4-1-0.4
			c-0.5,0-1,0.4-1,0.9c0,0.4,0.2,0.7,0.8,0.9c0.2,0,0.3,0.1,0.4,0.2c0.1,0.1,0.2,0.2,0.2,0.3c0,0.3-0.2,0.5-0.5,0.4c0,0,0,0,0,0
			c-0.3,0-0.6-0.2-0.7-0.4l-0.4,0.4c0.2,0.4,0.7,0.6,1.1,0.6c0.6,0.1,1.1-0.4,1.1-1c0,0,0,0,0,0c0-0.5-0.2-0.7-1-1
			c-0.4-0.1-0.5-0.2-0.5-0.4s0.2-0.4,0.5-0.4c0.2,0,0.4,0.1,0.5,0.3L149.4,78.8z M144.4,79.9v-1h0.2c0.4,0,0.6,0.2,0.6,0.5
			s-0.2,0.5-0.6,0.5L144.4,79.9z M145.1,80.3c0.5-0.1,0.8-0.5,0.8-0.9c0-0.6-0.4-0.9-1.2-0.9h-1v3.2h0.6v-1.3h0.1l0.9,1.3h0.8
			L145.1,80.3z M142.3,79v-0.6h-1.8v3.2h1.8v-0.5h-1.2v-0.9h1.2v-0.5h-1.2V79L142.3,79z M136.7,78.5H136l1.4,3.2h0.3l1.4-3.3h-0.7
			l-0.9,2.1L136.7,78.5z M134.8,78.5h-0.7v3.2h0.7V78.5z M129.4,81.7h0.6v-2.1l2,2.2h0.4v-3.3h-0.6v2.1l-2-2.2h-0.4L129.4,81.7z
			 M125.8,78.5h-0.7v2c0,0.3,0.1,0.6,0.2,0.8c0.6,0.6,1.5,0.6,2.1,0c0,0,0,0,0,0c0.2-0.2,0.3-0.5,0.2-0.8v-2h-0.6v1.8
			c0,0.2,0,0.4-0.1,0.6c-0.2,0.3-0.7,0.4-1,0.2c-0.1,0-0.1-0.1-0.2-0.2c-0.1-0.2-0.1-0.4-0.1-0.6L125.8,78.5z M122,79.4
			c-0.4,0-0.7,0.3-0.6,0.7c0,0.4,0.3,0.7,0.7,0.6c0.4,0,0.6-0.3,0.6-0.7C122.6,79.7,122.3,79.4,122,79.4 M117.7,80.5h-1l0.5-1.1
			L117.7,80.5z M117.9,81l0.3,0.7h0.7l-1.4-3.2H117l-1.4,3.2h0.7l0.3-0.7L117.9,81z M113.1,80V79h0.2c0.4,0,0.7,0.2,0.7,0.5
			s-0.2,0.5-0.6,0.5H113.1z M113.1,80.5h0.4c0.7,0,1.1-0.4,1.1-1c0-0.3-0.1-0.6-0.3-0.8c-0.2-0.2-0.6-0.3-0.9-0.2h-1v3.2h0.6
			L113.1,80.5z M110,80.5h-1l0.5-1.1L110,80.5z M110.2,81l0.3,0.7h0.7l-1.4-3.2h-0.5l-1.4,3.2h0.7l0.3-0.7L110.2,81z M104.9,79.9
			v-1.4h-0.7v3.2h0.7v-1.3l0.1-0.1l1.2,1.4h0.8l-1.5-1.7l1.4-1.5h-0.8L104.9,79.9z M102.8,79v-0.6h-1.8v3.2h1.8v-0.5h-1.2v-0.9h1.1
			v-0.5h-1.1V79L102.8,79z M99.4,78.8c-0.3-0.2-0.6-0.4-1-0.4c-0.5,0-1,0.4-1,0.9c0,0.4,0.2,0.7,0.8,0.9c0.2,0,0.3,0.1,0.4,0.2
			c0.1,0.1,0.2,0.2,0.2,0.3c0,0.3-0.2,0.5-0.5,0.4c0,0,0,0,0,0c-0.3,0-0.6-0.2-0.7-0.4l-0.4,0.4c0.2,0.4,0.7,0.6,1.2,0.6
			c0.5,0.1,1.1-0.3,1.1-0.9c0,0,0-0.1,0-0.1c0-0.5-0.2-0.7-0.9-1c-0.4-0.1-0.5-0.2-0.5-0.4s0.2-0.4,0.5-0.4c0.2,0,0.4,0.1,0.5,0.3
			L99.4,78.8z M95,80.5h-0.9l0.5-1.1L95,80.5z M95.2,81l0.3,0.7h0.7l-1.4-3.2h-0.5l-1.4,3.2h0.7l0.3-0.7L95.2,81z M90.2,80.2v1.4
			h0.7v-1.4l1.2-1.7h-0.8l-0.7,1.1l-0.7-1.1h-0.8L90.2,80.2z M85.8,78.5h-0.7v3.2h0.7V78.5z M81.5,79.7v-1.2h-0.6v3.2h0.6v-1.4h1.4
			v1.4h0.6v-3.2h-0.6v1.2H81.5z M78.9,81.6V79h0.7v-0.5h-2.1V79h0.7v2.6L78.9,81.6z M76.2,78.5h-0.7v3.2h0.7V78.5z M74,78.8
			c-0.3-0.2-0.6-0.4-1-0.4c-0.5,0-1,0.4-1,0.9c0,0.4,0.2,0.7,0.8,0.9c0.2,0.1,0.3,0.2,0.5,0.3c0.1,0.1,0.2,0.2,0.2,0.3
			c0,0.3-0.2,0.5-0.5,0.4c0,0,0,0,0,0c-0.3,0-0.6-0.2-0.7-0.4l-0.4,0.4c0.2,0.4,0.7,0.6,1.2,0.6c0.5,0.1,1.1-0.3,1.1-0.9
			c0,0,0-0.1,0-0.1c0-0.5-0.2-0.7-1-1c-0.4-0.1-0.5-0.2-0.5-0.4s0.2-0.4,0.5-0.4c0.2,0,0.4,0.1,0.5,0.3L74,78.8z M70.6,79v-0.5h-1.8
			v3.2h1.8v-0.5h-1.2v-0.9h1.1v-0.5h-1.1V79L70.6,79z M65,78.5h-0.7l1.4,3.2h0.3l1.5-3.2h-0.7l-0.9,2.1L65,78.5z M63.1,78.5h-0.6
			v3.2h0.6V78.5z M57.7,81.6h0.7v-2.1l2,2.2h0.5v-3.2h-0.6v2.1l-2-2.2h-0.5L57.7,81.6z M54.1,78.5h-0.7v2c0,0.3,0.1,0.6,0.2,0.8
			c0.3,0.3,0.7,0.5,1.1,0.5c0.4,0,0.8-0.2,1.1-0.5c0.2-0.2,0.3-0.5,0.2-0.8v-2h-0.7v1.8c0,0.2,0,0.4-0.1,0.6
			c-0.1,0.2-0.4,0.3-0.6,0.3c-0.2,0-0.5-0.1-0.6-0.3c-0.1-0.2-0.1-0.4-0.1-0.6V78.5z M50.5,80.2v1.4h0.7v-1.4l1.2-1.7h-0.8l-0.7,1.1
			l-0.7-1.1h-0.8L50.5,80.2z M48.1,78.5h-0.7v3.2h0.7V78.5z"/>
		<path d="M204.2,74.2h1.5V69l4.6,5.4h1v-7.9h-1.5v5.2l-4.6-5.4h-1V74.2z M192.9,66.5h-1.6l2.7,7.8h1.1l1.8-5l1.7,5h1l2.9-7.8h-1.6
			l-1.8,5.2l-1.8-5.2h-0.8l-1.9,5.3L192.9,66.5z M185.9,67.7c1.5-0.1,2.7,1.1,2.7,2.5c0.1,1.5-1.1,2.7-2.5,2.7s-2.7-1.1-2.7-2.5
			c0,0,0-0.1,0-0.1C183.3,68.9,184.5,67.7,185.9,67.7C185.9,67.7,185.9,67.7,185.9,67.7 M185.9,66.3c-2.2,0-4,1.7-4.1,3.9
			c0,0,0,0.1,0,0.1c0,2.3,1.7,4.1,4,4.2c2.3,0,4.1-1.7,4.2-4C190,68.2,188.2,66.4,185.9,66.3C185.9,66.3,185.9,66.3,185.9,66.3
			 M178.7,74.2v-6.3h1.7v-1.3h-4.9v1.3h1.8v6.4H178.7z M169.5,67.8v-1.3h-4.2v7.7h4.2v-1.3h-2.7v-2h2.6v-1.3h-2.6v-1.7L169.5,67.8z
			 M159.8,70v-2.2h0.5c1,0,1.5,0.3,1.5,1.1s-0.5,1.1-1.4,1.1L159.8,70z M159.8,71.3h1c1.2,0.2,2.4-0.7,2.6-2c0-0.2,0-0.3,0-0.5
			c0-0.7-0.3-1.3-0.8-1.8c-0.6-0.5-1.3-0.7-2-0.6h-2.2v7.7h1.5L159.8,71.3z M153.9,71.3h-2.2l1.1-2.8L153.9,71.3z M154.4,72.5
			l0.6,1.6h1.6l-3.2-7.9h-1.1l-3.3,7.9h1.6l0.7-1.6H154.4z M147.7,66.8c-0.6-0.3-1.2-0.5-1.8-0.5c-2.2,0-4,1.7-4.1,3.9
			c0,0,0,0,0,0.1c0,2.2,1.8,4,4,4c0.7,0,1.3-0.2,1.9-0.5v-1.7c-0.4,0.5-1.1,0.8-1.8,0.8c-1.4,0-2.5-1.1-2.6-2.5c0-0.1,0-0.1,0-0.2
			c-0.1-1.4,1.1-2.6,2.5-2.6c0,0,0,0,0,0c0.7,0,1.4,0.3,1.9,0.9V66.8z M135.1,67.8v-1.3h-4v7.7h1.5v-3.3h2.4v-1.3h-2.4v-1.7
			L135.1,67.8z M124.8,67.7c1.5-0.1,2.7,1,2.8,2.5s-1,2.7-2.5,2.8s-2.7-1-2.8-2.5c0,0,0-0.1,0-0.1C122.3,68.9,123.4,67.8,124.8,67.7
			C124.8,67.7,124.8,67.7,124.8,67.7 M124.9,66.3c-2.2,0-4,1.9-3.9,4.1c0,2.2,1.9,4,4.1,3.9c2.2,0,3.9-1.8,3.9-4
			C128.9,68.1,127.1,66.3,124.9,66.3C124.9,66.3,124.9,66.3,124.9,66.3 M110.5,70.7v3.5h1.5v-3.5l2.7-4.2h-1.8l-1.6,2.7l-1.6-2.7
			h-1.8L110.5,70.7z M105.4,74.2v-6.4h1.7v-1.3h-4.9v1.3h1.7v6.4L105.4,74.2z M100.4,66.5h-1.5v7.7h1.5L100.4,66.5z M96.6,67.2
			c-0.6-0.5-1.4-0.8-2.2-0.8c-1.2-0.1-2.3,0.9-2.4,2.1c0,0,0,0.1,0,0.1c0,1.1,0.5,1.6,1.9,2.1c0.3,0.1,0.7,0.3,1,0.4
			c0.3,0.2,0.5,0.5,0.4,0.8c0,0.6-0.5,1.1-1.1,1.1c0,0,0,0-0.1,0c-0.7,0-1.3-0.4-1.6-1l-1,0.9c0.6,0.9,1.6,1.5,2.7,1.5
			c1.4,0.1,2.5-0.9,2.6-2.3c0-0.1,0-0.2,0-0.2c0-1.2-0.5-1.8-2.2-2.4c-0.9-0.3-1.2-0.6-1.2-1s0.5-0.9,1.1-0.9c0.5,0,0.9,0.2,1.2,0.6
			L96.6,67.2z M86.2,70v-2.3h0.4c0.9,0,1.4,0.4,1.4,1.2s-0.5,1.2-1.4,1.2L86.2,70z M87.8,70.9c1.1-0.2,1.8-1.1,1.7-2.2
			c0-1.4-1-2.3-2.7-2.3h-2.2v7.7h1.5v-3.1h0.2l2.1,3.1h1.8L87.8,70.9z M82.4,67.8v-1.3h-4.2v7.7h4.2v-1.3h-2.7v-2h2.6v-1.3h-2.6
			v-1.7L82.4,67.8z M70.8,66.5h-1.6l3.2,7.9h0.8l3.3-7.9h-1.6l-2.1,5.2L70.8,66.5z M67.5,66.5H66v7.7h1.5V66.5z M56.3,74.2h1.5V69
			l4.7,5.4h1v-7.9h-1.5v5.2l-4.6-5.3h-1V74.2z M49.1,66.5h-1.5v4.7c-0.1,0.7,0.1,1.5,0.6,2.1c1.3,1.4,3.4,1.5,4.8,0.2
			c0.1-0.1,0.2-0.1,0.2-0.2c0.4-0.6,0.6-1.3,0.6-2.1v-4.7h-1.5v4.4c0.1,0.5,0,1-0.2,1.4c-0.3,0.5-0.8,0.7-1.3,0.7
			c-0.5,0-1-0.2-1.3-0.7c-0.2-0.4-0.3-0.9-0.2-1.4V66.5z"/>
		<path d="M17.3,61.3h21.8V75c0,11-10.9,14.7-10.9,14.7S17.3,86,17.3,75V61.3z"/>
		<path class="st1" d="M38.8,61.6V75c0,10.1-9.5,13.9-10.6,14.3c-1.1-0.4-10.6-4.2-10.6-14.3V61.6H38.8z"/>
		<path d="M37.8,75c0,8.8-7.7,12.5-9.6,13.3c-2-0.8-9.6-4.5-9.6-13.3V62.6h19.3V75z"/>
		<path d="M28.2,88c-2.1-0.9-9.3-4.5-9.3-12.9V62.9h18.6V75C37.5,83.4,30.3,87.1,28.2,88"/>
		<path class="st1" d="M28.3,71.9c0.4,0,0.7,0.3,0.7,0.6c0,0,0,0,0,0.1c0,0.1,0,0.2-0.1,0.3h-0.1l0,0c0-0.1,0-0.1,0.1-0.2
			c0-0.1,0-0.1,0-0.2c0-0.2-0.2-0.6-0.4-0.6h-0.2c0,0,0,0-0.1,0c-0.1,0,0.1,0.1,0.2,0.2c0.1,0.1,0.2,0.2,0.2,0.4
			c0,0.1-0.1,0.3-0.2,0.3h-0.6c-0.1,0-0.1-0.2-0.1-0.2s0-0.1,0-0.1C27.7,72.2,28,71.9,28.3,71.9"/>
		<path class="st1" d="M28.3,71.4c0.1,0,0.3,0,0.4,0.1c0,0,0.1,0.1,0.1,0.1c0.1,0.1,0.1,0.2,0.1,0.3V72c-0.2-0.2-0.4-0.3-0.7-0.3
			c-0.2,0-0.4,0.1-0.6,0.2l0,0c0,0,0-0.1,0-0.1C27.7,71.6,28,71.4,28.3,71.4"/>
		<path class="st1" d="M29.3,71.3c0.5,0.1,1,0.2,1.4,0.5c0,0-0.1,0-0.1,0c-0.4,0-0.7,0.1-1.1,0.1C29.4,71.7,29.3,71.3,29.3,71.3
			C29.3,71.3,29.3,71.3,29.3,71.3"/>
		<path class="st1" d="M27.2,71.3h0.1c-0.1,0.2-0.2,0.4-0.3,0.7h-0.2c-0.4,0-0.8-0.1-1.2-0.2C26.2,71.5,26.7,71.4,27.2,71.3"/>
		<path class="st1" d="M28.7,71.2c0.1,0,0.1,0,0.2,0c0.2,0.1,0.4,0.5,0.4,0.6c0,0,0,0.1,0,0.1c0,0,0,0,0,0.2c0,0.2-0.1,0.4-0.2,0.5
			c0-0.2-0.1-0.4-0.1-0.7c0-0.4-0.3-0.7-0.7-0.7c-0.4,0-0.7,0.3-0.8,0.7l0,0c0,0,0,0.1,0,0.2c-0.1,0.1-0.1,0.3-0.1,0.5
			c-0.1,0-0.2-0.3-0.2-0.4s0-0.1,0-0.1c0-0.3,0.2-0.8,0.5-0.9L28.7,71.2z"/>
		<path class="st1" d="M26.5,71c0.1,0,0.1,0.2,0.1,0.2s-0.1,0.1-0.2,0.1c-0.1,0.1-0.3,0.1-0.4,0.1l-0.5,0.2
			c-0.1-0.1-0.1-0.1-0.1-0.2C25.4,71.4,26.4,71,26.5,71"/>
		<path class="st1" d="M30,71c0.1,0,1.1,0.3,1.1,0.5S31,71.7,31,71.7c-0.2-0.1-0.3-0.1-0.5-0.2c-0.2-0.1-0.4-0.1-0.6-0.2
			c0,0-0.1,0-0.1-0.1C29.9,71.2,29.9,71,30,71"/>
		<path class="st1" d="M25.6,70.8c0,0.1,0.1,0.2,0.1,0.2c0,0.1-0.3,0.2-0.3,0.2c0-0.1-0.1-0.2-0.1-0.2C25.2,71,25.5,70.8,25.6,70.8"
			/>
		<path class="st1" d="M30.9,70.8c0,0,0.4,0.2,0.4,0.2c0,0.1-0.1,0.2-0.1,0.2c0,0-0.4-0.1-0.4-0.2S30.9,70.8,30.9,70.8"/>
		<path class="st1" d="M28.4,70.7h0.3c0.4,0,0.8,0.1,1.1,0.2V71c0,0.1,0,0.2-0.1,0.2c0,0-0.4-0.1-0.5-0.1h-0.5h-0.4l0,0v-0.2
			C28.3,70.9,28.4,70.8,28.4,70.7"/>
		<path class="st1" d="M28.2,70.7c0,0,0,0.1,0,0.1c0,0.2-0.1,0.2-0.2,0.2h-0.2c-0.2,0-1,0.2-1.1,0.2s-0.1-0.2-0.1-0.2s0,0,0-0.1
			l0.3-0.1c0.3-0.1,0.6-0.1,0.9-0.1L28.2,70.7z"/>
		<path class="st1" d="M29.2,70.3c0.5,0.1,1.1,0.2,1.5,0.4c0,0.1-0.1,0.2-0.1,0.2l-0.9-0.3c-0.2,0-0.4-0.1-0.6-0.1
			c0-0.1,0-0.2,0-0.2S29.1,70.3,29.2,70.3"/>
		<path class="st1" d="M27.3,70.3c0,0.1,0.1,0.2,0.1,0.2c0,0.1-0.1,0.1-0.2,0.1s-0.4,0.1-0.6,0.1c-0.2,0.1-0.5,0.2-0.8,0.2
			c0-0.1-0.1-0.2-0.1-0.2c0-0.1,0.3-0.2,0.3-0.2C26.4,70.5,26.9,70.4,27.3,70.3"/>
		<path class="st1" d="M28.6,70.3H29c0,0,0,0.1,0,0.1c0,0,0,0.1,0,0.1c0,0,0,0.1,0,0.1c-0.2,0-0.3,0-0.5,0h-0.6h-0.4
			c0-0.1-0.1-0.1-0.1-0.2c0,0,0-0.1,0-0.1c0.1,0,0.3,0,0.4-0.1L28.6,70.3z"/>
		<path class="st1" d="M26.3,70.1L26.3,70.1c0,0.1,0,0.1,0.1,0.2v0.1l-1.2,0.4c0-0.1-0.1-0.1-0.1-0.2c0,0,0.2-0.1,0.2-0.1
			C25.6,70.3,26,70.2,26.3,70.1"/>
		<path class="st1" d="M30.2,70.1c0.4,0.1,0.9,0.3,1.2,0.5c0,0.1,0,0.1-0.1,0.2l0,0c0,0-0.5-0.2-0.8-0.3c-0.1,0-0.3-0.1-0.4-0.1
			c0,0,0,0,0-0.1C30.1,70.2,30.2,70.2,30.2,70.1L30.2,70.1"/>
		<path class="st1" d="M25.3,70L25.3,70c0,0.1,0.1,0.1,0.1,0.2c0,0.1-0.3,0.2-0.4,0.2c-0.1-0.1-0.1-0.2-0.1-0.2
			C25,70.1,25.1,70,25.3,70"/>
		<path class="st1" d="M31.2,70c0.1,0,0.3,0.1,0.4,0.2c0,0-0.1,0.2-0.1,0.2c-0.1,0-0.3-0.1-0.4-0.2l0,0c0,0,0-0.1,0-0.2
			C31.1,70.1,31.1,70,31.2,70"/>
		<path class="st1" d="M28.5,69.8H29c0.4,0,0.7,0.1,1.1,0.2c0,0.1,0,0.2-0.1,0.2l-0.6-0.1c-0.3,0-0.8-0.1-0.9-0.1h-0.2
			c0,0,0,0-0.1-0.1c0,0,0-0.1,0-0.1C28.3,69.8,28.4,69.8,28.5,69.8"/>
		<path class="st1" d="M28.1,69.8C28.1,69.8,28.1,69.8,28.1,69.8c0.1,0.1,0.1,0.2,0.1,0.2l0,0H28c-0.3,0-1.4,0.2-1.5,0.2
			c0-0.1-0.1-0.1-0.1-0.2V70c0.4-0.1,0.8-0.2,1.2-0.2L28.1,69.8"/>
		<path class="st1" d="M30.7,69.8L30.7,69.8c0,0,0.4,0.1,0.4,0.2s-0.1,0.2-0.1,0.2c-0.1,0-0.2-0.1-0.3-0.1c0,0,0,0,0-0.1
			C30.6,69.9,30.7,69.9,30.7,69.8"/>
		<path class="st1" d="M25.8,69.8l0.1,0.2c0,0,0,0,0,0.1c-0.1,0.1-0.2,0.1-0.4,0.1c-0.1,0-0.1-0.2-0.1-0.2
			C25.5,69.9,25.7,69.9,25.8,69.8"/>
		<path class="st1" d="M29.3,69.5L29.3,69.5l0.4,0.1l0,0c0,0,0,0.2-0.1,0.2l-0.3,0c0,0-0.1,0-0.1-0.1C29.3,69.6,29.3,69.6,29.3,69.5
			"/>
		<path class="st1" d="M27.2,69.5c0.1,0,0.1,0.2,0.1,0.2s-0.4,0.1-0.4,0.1c0-0.1,0-0.1-0.1-0.2C26.7,69.5,27.1,69.5,27.2,69.5"/>
		<path class="st1" d="M28.7,69.5c0,0,0.4,0,0.4,0.1s0,0.1,0,0.2h-0.1c-0.1,0-0.2,0-0.3,0c0,0,0-0.1,0-0.1
			C28.7,69.6,28.7,69.6,28.7,69.5"/>
		<path class="st1" d="M27.6,69.5h0.1c0,0.1,0.1,0.1,0,0.2c0,0,0,0,0,0.1c-0.1,0-0.2,0.1-0.2,0.1h-0.2c0-0.1,0-0.2,0-0.2
			S27.6,69.5,27.6,69.5"/>
		<path class="st1" d="M30.8,69.4c0.3,0.1,0.7,0.2,1,0.4c0,0.1-0.1,0.2-0.1,0.3c-0.3-0.1-0.6-0.3-1-0.4l0,0
			C30.7,69.7,30.8,69.4,30.8,69.4"/>
		<path class="st1" d="M25.7,69.4l0.1,0.3l0,0c-0.2,0.1-0.5,0.2-0.5,0.2S25,69.9,24.9,70c0-0.1-0.1-0.2-0.1-0.2
			C25.1,69.5,25.4,69.4,25.7,69.4"/>
		<path class="st1" d="M28.8,69c0.1,0,0.8,0.1,1,0.1c0,0,0,0,0,0.1c0,0,0,0.2-0.1,0.2l-1-0.1c0-0.1,0-0.2,0-0.2
			C28.7,69,28.8,69,28.8,69"/>
		<path class="st1" d="M27.6,69h0.2c0,0.1,0,0.1,0,0.2c0,0,0,0,0,0.1l-1,0.1c0-0.1,0-0.2-0.1-0.2c0,0,0,0,0-0.1
			C27,69,27.3,69,27.6,69"/>
		<path class="st1" d="M27.3,68.2h2c0.1,0,0.2,0.1,0.2,0.2l0,0H27C27,68.3,27.2,68.2,27.3,68.2"/>
		<path class="st1" d="M27.5,68h1.6c0,0,0.1,0,0.1,0.1c0,0-0.1,0-0.1,0L27.5,68L27.5,68C27.4,68.1,27.4,68.1,27.5,68"/>
		<path class="st1" d="M27.7,67.8h1.2c0,0,0.1,0.1,0.1,0.1s0,0,0,0.1h-1.3C27.7,67.9,27.6,67.9,27.7,67.8
			C27.6,67.8,27.6,67.8,27.7,67.8"/>
		<path class="st1" d="M27.9,67.5h0.8c0.1,0,0.1,0,0.1,0.1s0,0.1-0.1,0.1h-0.9c0,0-0.1-0.1-0.1-0.1S27.9,67.5,27.9,67.5"/>
		<path class="st1" d="M27.7,67.2c0.2,0,0.4,0.1,0.6,0.1c0.2,0,0.4,0,0.5-0.1l0,0c0,0.1-0.1,0.1-0.1,0.2c-0.1,0-0.1,0-0.2,0h-0.7
			l0,0C27.8,67.3,27.8,67.2,27.7,67.2L27.7,67.2z"/>
		<path class="st1" d="M26.9,66.6c0.1,0,0.2,0.1,0.2,0.2h-0.1C27.1,66.9,26.9,66.7,26.9,66.6C26.9,66.7,26.9,66.7,26.9,66.6"/>
		<path class="st1" d="M27.3,66.6c0.1,0,0.2,0.2,0.3,0.3s0,0,0,0C27.4,66.9,27.3,66.8,27.3,66.6C27.3,66.7,27.3,66.6,27.3,66.6"/>
		<path class="st1" d="M27.6,66.6c0.1,0,0.2,0.2,0.2,0.3c0,0,0,0.1-0.1,0.1c-0.1,0-0.2-0.2-0.2-0.3S27.6,66.6,27.6,66.6"/>
		<path class="st1" d="M29.4,66.6C29.4,66.6,29.4,66.6,29.4,66.6c0.1,0.1-0.1,0.3-0.2,0.3h-0.1l0,0C29.1,66.9,29.3,66.6,29.4,66.6"
			/>
		<path class="st1" d="M29,66.6C29.1,66.6,29.1,66.6,29,66.6C29.1,66.7,29.1,66.7,29,66.6c0.1,0.1-0.1,0.4-0.2,0.4c0,0-0.1,0-0.1,0
			c0,0,0,0,0,0C28.8,66.8,28.9,66.6,29,66.6"/>
		<path class="st1" d="M28.6,66.6c0.1,0,0.1,0.1,0.1,0.1S28.7,67,28.6,67s-0.1-0.2-0.1-0.2S28.5,66.6,28.6,66.6"/>
		<path class="st1" d="M28.3,66.6c0.1,0,0.1,0.2,0.1,0.2s0,0.2-0.1,0.2c-0.1,0-0.1-0.3-0.1-0.3S28.2,66.6,28.3,66.6"/>
		<path class="st1" d="M28,66.6c0.1,0,0.1,0.1,0.1,0.2s0,0.2-0.1,0.2s-0.2-0.3-0.2-0.3S27.9,66.6,28,66.6"/>
		<path class="st1" d="M25.8,65.7c0.1,0,0.1,0.2,0.1,0.2c0,0.3-0.3,0.3-0.5,0.3c-0.4-0.1-0.7-0.2-0.9-0.5H25.8z"/>
		<path class="st1" d="M30.6,65.7c-0.2,0.4-0.4,0.6-0.8,0.8c0,0-0.1-0.1-0.2-0.1c0,0-0.1,0.1-0.2,0.1c0,0-0.1,0-0.1,0
			c0,0-0.1,0-0.1,0c0,0-0.1,0-0.2,0h-0.2h-0.2l-0.2,0.1l-0.2-0.1c0,0-0.1,0-0.2,0c0,0-0.1,0-0.2,0c0,0-0.2,0.1-0.2,0.1h-0.2
			c0,0-0.1,0-0.1,0s-0.2-0.1-0.2-0.1s-0.1,0.1-0.2,0.1s-0.2,0-0.2,0c0,0-0.2,0.1-0.2,0.1c0,0-0.1,0-0.1-0.1
			c-0.2-0.1-0.3-0.3-0.4-0.5c0-0.1-0.1-0.3-0.1-0.3L30.6,65.7z"/>
		<path class="st1" d="M31.1,65.5v0.1l0,0h-5c-0.1,0-0.1,0-0.2,0v-0.1H31.1z"/>
		<path class="st1" d="M24,65.3c0.1,0,0.2,0.2,0.3,0.2h1.5c0,0,0,0.1,0,0.1h-1.6c-0.1,0-0.2-0.1-0.2-0.2S23.9,65.3,24,65.3"/>
		<path class="st1" d="M29,65L29,65c0.2,0.1,0.3,0.2,0.4,0.3c0,0,0,0-0.1,0.1C29.1,65.3,29,65.2,29,65L29,65"/>
		<path class="st1" d="M28.4,64.9c0.1,0,0.1,0.2,0.1,0.2c0,0.1-0.1,0.1-0.1,0.2c0,0,0,0,0,0c-0.1,0-0.1,0-0.1-0.1
			S28.3,64.9,28.4,64.9"/>
		<path class="st1" d="M28.6,64.9L28.6,64.9c0.1,0,0.3,0.3,0.3,0.3s-0.1,0.1-0.1,0.1C28.8,65.3,28.5,65.1,28.6,64.9
			C28.5,65,28.5,65,28.6,64.9"/>
		<path class="st1" d="M27.9,64.9C27.9,64.9,27.9,64.9,27.9,64.9c-0.1,0.2-0.2,0.3-0.3,0.4h-0.2l0,0C27.5,65.2,27.7,65.1,27.9,64.9"
			/>
		<path class="st1" d="M28.2,64.9C28.2,64.9,28.2,64.9,28.2,64.9c0,0.1-0.1,0.4-0.2,0.4c0,0-0.1,0-0.1-0.1c0,0,0,0,0,0
			C27.9,65.2,28,64.9,28.2,64.9"/>
		<path class="st1" d="M27.9,64.7h1c0,0,0,0,0,0.1s0,0-0.1,0L27.9,64.7L27.9,64.7L27.9,64.7L27.9,64.7"/>
		<path class="st1" d="M31.8,64.6c0.4,0,0.9,0.2,0.9,0.7s-0.7,1-1.2,1c-0.2,0-0.4,0.1-0.6,0.1c-0.4,0-0.7,0.2-1,0.4l0,0
			c0-0.2,0.6-0.4,0.6-0.4c0.5-0.1,0.9-0.2,1.4-0.4c0.3-0.1,0.5-0.4,0.6-0.7c0-0.3-0.4-0.4-0.6-0.4c-0.2,0-0.4,0.1-0.5,0.2
			c0,0,0.1,0,0.1,0c0,0,0.1,0.1,0.1,0.1c0,0.1-0.1,0.2-0.3,0.2c-0.1,0-0.3-0.1-0.3-0.2c0,0,0,0,0,0c0-0.1,0-0.1,0.1-0.2
			C31.2,64.7,31.5,64.5,31.8,64.6"/>
		<path class="st1" d="M28.4,64.1c0.1,0,0.2,0.1,0.2,0.2c0,0.1-0.1,0.2-0.2,0.2s-0.2-0.1-0.2-0.2C28.2,64.1,28.3,64.1,28.4,64.1
			C28.4,64.1,28.4,64.1,28.4,64.1"/>
		<path class="st1" d="M26.8,63.7c-0.1,0.2-0.3,0.1-0.4,0.2c-0.1,0.1,0,0.3-0.2,0.3l-0.3-0.1c-0.1,0-0.1,0-0.2,0.1
			c0.1,0.1,0.2,0.2,0.2,0.3s0,0.1,0,0.1s-0.3,0.2-0.4,0.2h-0.4c-0.1,0-0.2,0.1-0.3,0.2c-0.1-0.1-0.1-0.2-0.1-0.2s0.2-0.1,0.2-0.1
			h0.2c0.1,0,0.2-0.1,0.3-0.2c0-0.2-0.4-0.2-0.4-0.4c0-0.2,0.2-0.2,0.3-0.2L26,64c0.1,0,0.2-0.1,0.4-0.2c0.1,0,0.2-0.1,0.3-0.1
			L26.8,63.7"/>
		<path class="st1" d="M28.3,81.2c0.2,0,0.3,0.1,0.4,0.3c0,0,0,0,0,0c0,1.7,0,1.7,0,1.7c0,0.1,0,0.1,0,0.2c0,0,0,0.2,0.1,0.2
			c0.1,0.3,0.3,0.5,0.7,0.5c1.1-0.3,2.1-0.8,2.9-1.6c-0.1-0.1-0.2-0.2-0.2-0.2c0,0-0.1-0.1-0.1-0.2c0.3-0.2,0.6-0.4,0.9-0.6l0.3-0.2
			c0.1-0.1,0.2-0.2,0.4-0.2c0.1,0,0,0.4,0,0.4s-0.1,0.4-0.1,0.4s-0.1,0.3-0.1,0.3c0,0.2-0.1,0.5-0.2,0.7L33.1,83
			c-0.2,0-0.5-0.3-0.5-0.3c-0.4,0.3-0.7,0.6-1,0.9c-0.2,0.2-0.4,0.3-0.5,0.4c-0.3,0.3-2.2,1.8-2.9,1.8s-2.6-1.5-2.9-1.8
			c-0.1-0.1-0.3-0.3-0.5-0.4c-0.3-0.3-0.7-0.6-1-0.9c0,0-0.3,0.3-0.5,0.3l0-0.1c-0.1-0.2-0.2-0.5-0.2-0.7c0,0-0.1-0.3-0.1-0.3
			s-0.1-0.3-0.1-0.4c0-0.1-0.1-0.4,0-0.4c0.1,0,0.3,0.1,0.4,0.2l0.4,0.2c0.3,0.2,0.6,0.4,0.9,0.6c0,0.1-0.1,0.2-0.1,0.2
			c-0.1,0.1-0.2,0.2-0.2,0.2c0.8,0.8,1.8,1.3,2.9,1.6c0.3,0,0.6-0.2,0.7-0.5c0-0.1,0.1-0.2,0.1-0.2c0-0.1,0-0.1,0-0.2c0,0,0,0,0-1.7
			c0-0.2,0.1-0.3,0.3-0.3c0,0,0,0,0,0H28.3z"/>
		<path class="st1" d="M23.4,75.7v4c0,0,0.4,0.3,2-0.1c0.9-0.3,1.9-0.3,2.8,0.1v-4.1c0,0-0.8-0.7-2.7-0.2c-0.6,0.2-1.2,0.3-1.8,0.3
			C23.3,75.6,23.4,75.7,23.4,75.7"/>
		<path class="st1" d="M28.1,80.8H28l0,0c0-0.2,0.1-0.3,0.1-0.5C28.1,80.5,28.1,80.7,28.1,80.8"/>
		<path class="st1" d="M28.2,80.3c0,0,0,0.1,0,0.1c0,0.1,0,0.2,0,0.3v0.2h-0.1c0,0,0-0.1,0-0.1v-0.3l0,0
			C28.2,80.4,28.2,80.3,28.2,80.3"/>
		<path class="st1" d="M28,80.3L28,80.3c0,0.2-0.1,0.4-0.1,0.5h-0.1c0,0,0,0,0-0.1C27.9,80.5,28,80.4,28,80.3"/>
		<path class="st1" d="M27.9,80.2c0,0.1-0.1,0.3-0.2,0.4l0,0c0,0-0.1,0-0.1-0.1C27.8,80.4,27.9,80.3,27.9,80.2"/>
		<path class="st1" d="M27.8,80.1L27.8,80.1l-0.2,0.3c-0.1,0-0.1-0.1-0.1-0.1S27.8,80.1,27.8,80.1"/>
		<path class="st1" d="M33.1,75.7v4c0,0-0.4,0.3-2-0.1c-0.9-0.3-1.9-0.3-2.8,0.1v-4.1c0,0,0.8-0.7,2.7-0.2c0.6,0.2,1.2,0.3,1.8,0.3
			C33.2,75.6,33.1,75.7,33.1,75.7"/>
		<path class="st1" d="M28.4,80.8h0.1l0,0c0-0.2-0.1-0.3-0.1-0.5C28.3,80.5,28.3,80.7,28.4,80.8"/>
		<path class="st1" d="M28.5,80.3L28.5,80.3c0,0.1,0.1,0.4,0.1,0.5h0.1c0,0,0,0,0-0.1C28.6,80.5,28.5,80.4,28.5,80.3"/>
		<path class="st1" d="M28.6,80.2c0,0.1,0.1,0.3,0.2,0.4l0,0c0,0,0.1,0,0.1-0.1C28.7,80.4,28.6,80.3,28.6,80.2"/>
		<path class="st1" d="M33.3,75.8v4.1l0-0.1l-0.1-0.1v-4L33.3,75.8z M33.5,75.9v4.2l-0.1-0.2v-4.2L33.5,75.9z M33.6,75.9v4.3l0,0
			l-0.1-0.1L33.6,75.9L33.6,75.9z"/>
		<path class="st1" d="M28.6,80.1L28.6,80.1l0.2,0.3c0.1,0,0.1-0.1,0.1-0.1S28.7,80.1,28.6,80.1"/>
		<path class="st1" d="M33.7,76.1h0.2v4.5h-4.8c-0.2,0.3-0.5,0.5-0.8,0.5l0,0c-0.3,0-0.6-0.2-0.8-0.5h-4.8v-4.5h0.2v4.4h4.6v0.1
			c0.2,0.5,0.8,0.6,1.2,0.4c0.2-0.1,0.3-0.2,0.4-0.4v-0.1h4.6L33.7,76.1z"/>
		<path class="st1" d="M24.8,65.3C24.8,65.2,24.9,65.2,24.8,65.3c0.1-0.1,0.1-0.1,0.1-0.1c0,0,0.1,0,0.1,0.1c0,0,0,0.1-0.1,0.1
			C24.9,65.4,24.8,65.3,24.8,65.3C24.8,65.3,24.8,65.3,24.8,65.3"/>
		<path class="st1" d="M29.7,66.6c-0.1,0-0.2,0.1-0.2,0.2h0.1C29.6,66.9,29.7,66.7,29.7,66.6C29.7,66.7,29.7,66.7,29.7,66.6"/>
		<path class="st1" d="M28.2,75.5l-0.4-0.2v-0.3c0-0.2,0.1-0.3,0.3-0.3c0,0,0,0,0,0h0.1c0.2,0,0.3,0.1,0.4,0.3c0,0,0,0,0,0
			c0,0.1,0,0.2,0,0.3L28.2,75.5z"/>
		<polygon class="st1" points="25.5,73.1 26.1,73.1 26.1,74 25.5,73.8 		"/>
		<polygon class="st1" points="24.5,73.2 25.4,73.2 25.4,73.8 24.5,73.6 		"/>
		<polygon class="st1" points="24.4,73.2 24.3,73.3 24.3,73.8 24.4,73.7 		"/>
		<path d="M25.8,73.2L25.8,73.2c0.1,0,0.1,0.1,0.1,0.1c0,0.1-0.1,0.1-0.1,0.1c0,0-0.1,0-0.1-0.1c0-0.1,0.1,0,0.1-0.1
			C25.8,73.3,25.7,73.2,25.8,73.2"/>
		<path d="M25.8,73.5L25.8,73.5c0.1,0,0.1,0.1,0.1,0.1c0,0.1-0.1,0.1-0.1,0.1c0,0-0.1,0-0.1-0.1c0-0.1,0.1,0,0.1-0.1
			C25.8,73.6,25.7,73.6,25.8,73.5"/>
		<polygon class="st1" points="24.5,73.7 25.4,73.8 25.4,74 24.3,73.8 		"/>
		<polygon class="st1" points="25.5,73.9 26.1,74 26.1,74.2 25.5,74 		"/>
		<polygon class="st1" points="26.2,74 28.2,74.4 28.2,74.5 26.2,74.1 		"/>
		<polygon class="st1" points="31,73.1 30.4,73.1 30.4,74 31,73.8 		"/>
		<polygon class="st1" points="32,73.2 31.1,73.2 31.1,73.8 32,73.6 		"/>
		<path d="M30.6,73.2L30.6,73.2c0.1,0,0.1,0.1,0.1,0.1s-0.1,0.1-0.1,0.1c0,0-0.1,0-0.1-0.1s0.1,0,0.1-0.1
			C30.6,73.3,30.6,73.2,30.6,73.2"/>
		<path d="M30.6,73.5L30.6,73.5c0.1,0,0.1,0.1,0.1,0.1s-0.1,0.1-0.1,0.1c0,0-0.1,0-0.1-0.1s0.1,0,0.1-0.1
			C30.6,73.6,30.6,73.6,30.6,73.5"/>
		<polygon class="st1" points="32,73.7 31.1,73.8 31.1,74 31.9,73.8 		"/>
		<polygon class="st1" points="31,73.9 30.4,74 30.4,74.1 31,74 		"/>
		<polygon class="st1" points="28.2,74.3 26.2,73.9 26.2,73.2 28.2,73.2 30.3,73.2 30.3,73.9 		"/>
		<polygon class="st1" points="30.3,74 28.2,74.4 28.2,74.5 30.3,74.1 		"/>
		<path d="M29.1,76.6c0.2,0,0.4,0.1,0.4,0.3c0,0.1-0.1,0.2-0.1,0.2c0.1,0.1,0.2,0.2,0.2,0.3s-0.3,0.3-0.5,0.3h-0.4l0,0
			c0,0,0.1-0.1,0.1-0.1v-0.9c0,0-0.1-0.1-0.1-0.1C28.8,76.7,29,76.7,29.1,76.6"/>
		<path d="M30.2,76.7c0.3,0,0.5,0.2,0.5,0.5c0,0,0,0,0,0c0,0.3-0.2,0.6-0.5,0.6c-0.3,0-0.5-0.3-0.5-0.5C29.7,77,29.9,76.7,30.2,76.7
			C30.2,76.7,30.2,76.7,30.2,76.7"/>
		<path d="M30.9,76.8c0.4,0,0.3,0.3,0.6,0.6c0.1-0.1,0.1-0.2,0.1-0.3c0-0.1,0-0.1-0.1-0.2s0,0,0,0c0.1,0,0.2,0,0.3,0.1
			c-0.2,0.1-0.1,0.3-0.1,0.4s0,0.4-0.1,0.6c-0.2-0.3-0.4-0.5-0.5-0.8l0,0c0,0-0.1,0.4-0.1,0.5c0,0.1,0.1,0.2,0.1,0.2
			c-0.1,0-0.2,0-0.3,0l0,0c0.1,0,0.1-0.3,0.1-0.4s0.1-0.4,0.1-0.5C30.9,77,30.9,76.9,30.9,76.8C30.8,76.9,30.9,76.9,30.9,76.8"/>
		<path d="M32,76.9h0.4l0,0c0,0,0,0.1,0,0.1c0,0.1,0.1,0.2,0.1,0.4c0,0.2,0.1,0.4,0.2,0.5l0,0c-0.1,0-0.3,0-0.4,0l0,0
			c0,0,0-0.1,0-0.1s0-0.2-0.2-0.2H32c0,0.1-0.1,0.1-0.1,0.2c0,0,0,0.1,0,0.1c-0.1,0-0.2,0-0.3,0c0,0,0.1-0.1,0.1-0.1
			C31.9,77.5,32,77.3,32,76.9C32.1,77,32,76.9,32,76.9C32,76.9,32,76.9,32,76.9"/>
		<path class="st1" d="M30.3,76.8c0.1,0,0.2,0.1,0.2,0.3s0,0.2,0,0.2s0,0.5-0.3,0.5c-0.3,0-0.2-0.3-0.2-0.4S30,76.8,30.3,76.8"/>
		<path class="st1" d="M32.1,77.3c0.1,0.1,0.1,0.1,0.2,0.2l0,0h-0.2c0,0,0,0,0-0.1C32.1,77.3,32.2,77.3,32.1,77.3"/>
		<path class="st1" d="M29.1,77.2c0.1,0,0.2,0.1,0.2,0.2c0,0,0,0,0,0c0,0.1-0.1,0.2-0.2,0.2c0,0-0.1,0-0.1,0v-0.3
			C29,77.3,29,77.3,29.1,77.2"/>
		<path class="st1" d="M29.1,76.8c0.1,0,0.2,0,0.2,0.2s-0.1,0.2-0.2,0.2c0,0-0.1,0-0.1,0c0-0.2,0-0.3,0-0.3
			C29,76.8,29.1,76.8,29.1,76.8"/>
		<path d="M27.2,76.6h0.3c0,0.1,0,0.2,0,0.3c-0.1,0-0.1-0.2-0.2-0.2h-0.1c-0.1,0-0.2,0-0.2,0.1c0,0.2,0.6,0.2,0.6,0.6
			c0,0.2-0.1,0.3-0.3,0.3c0,0,0,0,0,0l-0.3-0.1c0-0.1-0.1-0.1-0.1-0.2c0,0,0-0.1,0-0.1c0.1,0.2,0.2,0.3,0.4,0.3
			c0.1,0,0.1-0.1,0.1-0.1c0-0.2-0.5-0.3-0.5-0.6S27,76.7,27.2,76.6"/>
		<path d="M26.5,76.7C26.5,76.7,26.5,76.7,26.5,76.7l0.1,0.3c-0.1,0-0.1-0.1-0.1-0.2c-0.1,0-0.1,0-0.2-0.1c0,0-0.2,0-0.2,0.1
			s0,0.2,0,0.2s0,0.2,0.1,0.2c0.1,0,0.1-0.1,0.2-0.1c0,0,0,0.1,0,0.1c0,0,0,0,0,0.2c-0.1,0-0.1-0.1-0.2-0.1s-0.1,0-0.1,0.1
			s0,0.2,0,0.2s0,0.1,0,0.2s0.1,0,0.1,0c0.2,0,0.3-0.1,0.4-0.2c0,0,0,0,0,0.1c0,0.1,0,0.2,0,0.2c-0.2,0-0.4,0.1-0.6,0.1h-0.2
			c0,0,0-0.1,0.1-0.1c0,0,0-0.1,0-0.1V77c0-0.1-0.1-0.1-0.1-0.2l0,0L26.5,76.7"/>
		<path d="M25.2,76.9c0.2,0,0.4,0.1,0.4,0.3s-0.1,0.4-0.5,0.4c0,0,0,0.1,0,0.1c0,0.1,0,0.2,0.1,0.2c0,0,0.1,0,0.1,0.1
			c0,0.1-0.2,0-0.2,0.1s-0.2,0-0.2,0s0,0,0-0.1c0-0.1,0-0.1,0-0.2v-0.7c0-0.1,0-0.1-0.1-0.2C24.9,76.9,25,76.9,25.2,76.9"/>
		<path d="M24.1,76.9h0.4c0,0,0,0.1,0,0.2s0,0.1,0,0.2s-0.1-0.1-0.1-0.2C24.3,77.1,24.3,77,24.1,76.9c0,0.1-0.1,0.1-0.1,0.2
			s0.4,0.3,0.4,0.4c0,0,0.1,0,0.1,0.1c0,0,0,0.1,0.1,0.1l0,0l0,0l0,0c0,0,0,0,0,0.1s0,0,0,0s-0.1,0.1-0.1,0.2
			c-0.1,0-0.1,0.1-0.2,0.1L24,77.9c0,0-0.1,0-0.1,0c0,0,0-0.1,0-0.2c0,0,0-0.1,0-0.1c0.1,0.1,0.2,0.3,0.3,0.3c0.1,0,0.1-0.1,0.2-0.1
			c0-0.2-0.5-0.2-0.5-0.6c0-0.2,0.1-0.3,0.3-0.3c0,0,0,0,0,0"/>
		<path class="st1" d="M25.2,77c0.2,0,0.2,0.2,0.2,0.2s-0.1,0.2-0.2,0.2s-0.1,0-0.1-0.1s0-0.2,0-0.3S25.1,77,25.2,77"/>
		<path class="st2" d="M28.2,88c-2.1-0.9-9.3-4.5-9.3-12.9v-0.9c0.5-0.2,1.7-0.5,2.2-0.7c0.7-0.2,1.4-0.1,2.1,0.2
			c1.4,0.6,2.9,0.9,4.4,1.1c0.1,0,0,0.4,0,0.4h-0.1h-0.1c-0.3,0-0.5,0-0.8-0.1c-0.4,0-0.7,0.1-1.1,0.1l-0.5,0.1
			c-0.3,0.1-0.7,0.2-1.1,0.2l-0.4-0.1c-0.1,0-0.2,0-0.3,0c-0.1,0-0.5,0.3-0.6,0.4c-0.1,0.1-0.2,0-0.2,0.1v4.7h4.8
			c0,0,0.3,0.4,0.3,0.4v2.1c0,0-0.1,0.2-0.1,0.2c0,0.1-0.1,0.2-0.2,0.3c-0.1,0.1-0.2,0.2-0.4,0.2c-1-0.3-1.8-0.8-2.6-1.5
			c0,0,0.3-0.3,0.3-0.4s-0.3-0.3-0.4-0.3l-0.2-0.1l-0.5-0.3c-0.1-0.1-0.6-0.5-0.8-0.5s-0.2,0.2-0.2,0.2v0.5c0,0,0.1,0.3,0.1,0.5
			c0,0.2,0.1,0.4,0.2,0.6c0,0,0.2,0.4,0.3,0.4s0.5-0.3,0.5-0.3c0,0,0.4,0.4,0.5,0.4s0.4,0.4,0.6,0.6c0.2,0.2,0.7,0.5,1,0.8l0.4,0.3
			l0.6,0.4c0.1,0.1,0.2,0.1,0.3,0.1c0.3,0.2,0.6,0.3,0.9,0.4h0.2c0.3-0.1,0.7-0.2,0.9-0.4c0.1,0,0.2-0.1,0.3-0.1s0.4-0.2,0.6-0.4
			l0.4-0.3c0.4-0.3,0.7-0.5,1-0.8s0.4-0.4,0.6-0.6c0.2-0.2,0.4-0.4,0.5-0.4c0.1,0,0.5,0.3,0.5,0.3s0.3-0.4,0.3-0.4
			c0.1-0.2,0.1-0.4,0.2-0.6c0.1-0.2,0.1-0.5,0.1-0.5v-0.6c0-0.1-0.1-0.2-0.2-0.2s-0.7,0.4-0.8,0.5l-0.5,0.3l-0.2,0.1
			c0,0-0.4,0.2-0.4,0.3s0.3,0.4,0.3,0.4c-0.7,0.7-1.6,1.2-2.6,1.5c-0.2,0-0.3,0-0.4-0.2c-0.1-0.1-0.2-0.2-0.2-0.3
			c0,0-0.1-0.2-0.1-0.2v-2.1c0,0,0.3-0.4,0.3-0.4H34V76c0-0.1-0.2-0.1-0.3-0.1s-0.4-0.4-0.5-0.4h-0.4c-0.1,0-0.3,0.1-0.4,0.1
			c-0.3-0.1-0.7,0-1-0.2c-0.1-0.1-0.3-0.1-0.5-0.1c-0.3-0.1-0.7-0.1-1-0.2c-0.3,0-0.5,0-0.8,0H29h-0.1c0,0,0-0.4,0-0.4
			c1.5-0.1,3-0.5,4.4-1c0.6-0.3,1.4-0.4,2.1-0.2c0.5,0.1,1.7,0.5,2.1,0.7V75C37.5,83.4,30.3,87.1,28.2,88"/>
		<path class="st1" d="M23,80.1l-0.1,0.1V76l0.1-0.1V80.1z M23.3,75.7v4l-0.1,0.2v-4.1L23.3,75.7z M23.2,75.8v4.1l-0.1,0.2v-4.2
			L23.2,75.8z"/>
		<path class="st1" d="M23.2,80.2L23.2,80.2l0.4,0.1c0.5,0.1,0.9,0.1,1.4,0l0.3-0.1l0.7-0.2c0.2,0,0.4-0.1,0.6-0.1
			c0.4,0,0.8,0,1.1,0.2l0,0c-0.3-0.2-0.7-0.3-1.1-0.2c-0.2,0-0.3,0-0.5,0.1c0.2,0,0.4,0,0.5,0c0.3,0,0.7,0,1,0.2l0,0
			c-0.3-0.2-0.7-0.2-1-0.2c-0.2,0-0.4,0-0.6,0.1l-0.7,0.1l-0.3,0.1c-0.5,0.1-0.9,0.1-1.4,0C23.4,80.3,23.3,80.3,23.2,80.2L23.2,80.2
			L23.2,80.2z M23.4,79.8L23.4,79.8c0.5,0.1,1,0.1,1.5,0l1-0.2c0.3-0.1,0.5-0.1,0.8-0.1c0.5,0,0.9,0.1,1.3,0.3l0,0
			c-0.4-0.2-0.8-0.4-1.3-0.3c-0.3,0-0.5,0-0.8,0.1l-1,0.2C24.5,80,23.9,80,23.4,79.8L23.4,79.8L23.4,79.8z M23.3,80
			c0.1,0,0.3,0.1,0.4,0.1c0.4,0.1,0.8,0,1.2-0.1l1-0.2c0.2-0.1,0.5-0.1,0.7-0.1c0.4,0,0.8,0.1,1.2,0.3l0,0c-0.3-0.2-0.7-0.3-1.1-0.3
			c-0.2,0-0.5,0-0.7,0.1l-1,0.2c-0.4,0.1-0.8,0.1-1.2,0C23.6,80,23.4,80,23.3,80L23.3,80z"/>
		<path class="st1" d="M33.2,80.2c-0.5,0.2-1.1,0.2-1.7,0.1l-0.3-0.1l-0.7-0.1C30,80,29.5,80,29,80.2l0,0c0.3-0.2,0.7-0.2,1-0.2
			c0.2,0,0.3,0,0.5,0c-0.5-0.1-1-0.1-1.5,0.2l0,0c0.3-0.2,0.7-0.2,1.1-0.2c0.2,0,0.4,0,0.6,0.1l0.7,0.2l0.3,0.1
			c0.5,0.1,0.9,0.1,1.4,0L33.2,80.2l0.2-0.1l0,0L33.2,80.2 M33.1,79.8c-0.5,0.2-1,0.2-1.5,0l-1-0.2c-0.7-0.2-1.4-0.1-2,0.2l0,0
			c0.4-0.2,0.8-0.4,1.3-0.3c0.3,0,0.5,0,0.8,0.1l1,0.2C32.1,79.9,32.6,79.9,33.1,79.8L33.1,79.8L33.1,79.8z M33.3,80
			c-0.5,0.2-1.1,0.2-1.7,0.1l-1-0.2c-0.6-0.2-1.3-0.1-1.8,0.2l0,0c0.3-0.2,0.7-0.3,1.1-0.3c0.2,0,0.5,0,0.7,0.1l1,0.2
			c0.4,0.1,0.8,0.1,1.2,0.1C33,80.1,33.1,80,33.3,80z"/>
	</g>
</g>
</svg>
