<?xml version="1.0" encoding="utf-8"?>
<!-- Generator: Adobe Illustrator 21.1.0, SVG Export Plug-In . SVG Version: 6.00 Build 0)  -->
<svg version="1.1" id="Layer_1" xmlns="http://www.w3.org/2000/svg" xmlns:xlink="http://www.w3.org/1999/xlink" width="300" height="43.9"
	 viewBox="0 0 300 43.9" enable-background="new 0 0 300 43.9" xml:space="preserve">
<g>
	<g>
		<path fill="#FFFFFF" d="M296.8,30.7v-3.2h0.3c0.6,0,1,0.1,1.4,0.4c0.3,0.3,0.6,0.8,0.6,1.2c0,0.5-0.2,0.9-0.6,1.2
			c-0.3,0.3-0.7,0.4-1.4,0.4H296.8z M295.8,31.5h1.5c0.8,0,1.3-0.2,1.8-0.6c0.6-0.5,0.9-1.2,0.9-1.9c0-1.5-1.1-2.5-2.8-2.5h-1.5
			V31.5z M292,29.7h-1.5l0.7-1.8L292,29.7z M292.4,30.5l0.4,1h1.1l-2.2-5H291l-2.2,5h1.1l0.5-1H292.4z M286.2,31.5v-4.1h1.2v-0.8
			h-3.3v0.8h1.1v4.1H286.2z M282.2,27.1c-0.4-0.4-0.9-0.5-1.5-0.5c-0.9,0-1.6,0.6-1.6,1.4c0,0.7,0.3,1,1.3,1.3
			c0.4,0.1,0.6,0.2,0.7,0.3c0.2,0.1,0.3,0.3,0.3,0.5c0,0.4-0.3,0.7-0.8,0.7c-0.5,0-0.9-0.2-1.1-0.7l-0.6,0.6c0.5,0.6,1,0.9,1.8,0.9
			c1,0,1.8-0.7,1.8-1.6c0-0.8-0.3-1.1-1.5-1.5c-0.6-0.2-0.8-0.4-0.8-0.6c0-0.3,0.3-0.5,0.7-0.5c0.3,0,0.5,0.1,0.8,0.4L282.2,27.1z
			 M274.8,28.9v-1.4h0.3c0.7,0,1,0.2,1,0.7c0,0.5-0.3,0.7-0.9,0.7H274.8z M274.8,29.7h0.6c1.1,0,1.7-0.6,1.7-1.6
			c0-0.4-0.2-0.9-0.5-1.2c-0.3-0.3-0.7-0.4-1.4-0.4h-1.5v4.9h1V29.7z M270,29.7h-1.5l0.7-1.8L270,29.7z M270.4,30.5l0.4,1h1.1
			l-2.2-5H269l-2.2,5h1.1l0.5-1H270.4z M263.6,29.7h-1.5l0.7-1.8L263.6,29.7z M263.9,30.5l0.4,1h1.1l-2.2-5h-0.8l-2.2,5h1.1l0.5-1
			H263.9z M255.6,28.7v-2.1h-1v4.9h1v-2.1l0.1-0.1l1.8,2.2h1.3l-2.3-2.6l2.2-2.3h-1.3L255.6,28.7z M244.1,31.5h1v-3.3l3.1,3.4h0.7
			v-5h-1v3.3l-3.1-3.4h-0.7V31.5z M240.4,29.7h-1.5l0.7-1.8L240.4,29.7z M240.7,30.5l0.4,1h1.1l-2.2-5h-0.8l-2.2,5h1.1l0.5-1H240.7z
			 M231.9,26.6h-1.1l2.2,5h0.5l2.2-5h-1.1l-1.4,3.3L231.9,26.6z M225.1,31.5v-4.1h1.2v-0.8h-3.3v0.8h1.1v4.1H225.1z M221,26.6h-1
			v4.9h1V26.6z M217.7,27.5v-0.8h-2.8v4.9h2.8v-0.8h-1.8v-1.3h1.8v-0.8h-1.8v-1.1H217.7z M211.7,31.5v-4.1h1.2v-0.8h-3.3v0.8h1.1
			v4.1H211.7z M207.6,26.6h-1v4.9h1V26.6z M204.3,27.1c-0.4-0.4-0.9-0.5-1.5-0.5c-0.9,0-1.6,0.6-1.6,1.4c0,0.7,0.3,1,1.3,1.3
			c0.4,0.1,0.6,0.2,0.7,0.3c0.2,0.1,0.3,0.3,0.3,0.5c0,0.4-0.3,0.7-0.8,0.7c-0.5,0-0.9-0.2-1.1-0.7l-0.6,0.6c0.5,0.6,1,0.9,1.8,0.9
			c1,0,1.8-0.7,1.8-1.6c0-0.8-0.3-1.1-1.5-1.5c-0.6-0.2-0.8-0.4-0.8-0.6c0-0.3,0.3-0.5,0.7-0.5c0.3,0,0.5,0.1,0.8,0.4L204.3,27.1z
			 M196.5,28.9v-1.5h0.3c0.6,0,1,0.3,1,0.7c0,0.5-0.3,0.8-1,0.8H196.5z M197.6,29.5c0.8-0.1,1.2-0.6,1.2-1.4c0-0.9-0.7-1.5-1.8-1.5
			h-1.5v4.9h1v-2h0.1l1.4,2h1.2L197.6,29.5z M193.2,27.5v-0.8h-2.8v4.9h2.8v-0.8h-1.8v-1.3h1.8v-0.8h-1.8v-1.1H193.2z M184.6,26.6
			h-1.1l2.2,5h0.5l2.2-5h-1.1l-1.4,3.3L184.6,26.6z M181.7,26.6h-1v4.9h1V26.6z M173.4,31.5h1v-3.3l3.1,3.4h0.7v-5h-1v3.3l-3.1-3.4
			h-0.7V31.5z M167.7,26.6h-1v3c0,0.6,0.1,1,0.4,1.3c0.4,0.4,1,0.7,1.7,0.7c0.7,0,1.3-0.3,1.7-0.7c0.3-0.3,0.4-0.7,0.4-1.3v-3h-1
			v2.8c0,0.5,0,0.7-0.2,0.9c-0.2,0.3-0.5,0.5-0.9,0.5c-0.4,0-0.7-0.2-0.9-0.5c-0.1-0.2-0.2-0.4-0.2-0.9V26.6z M161.8,28
			c-0.6,0-1.1,0.5-1.1,1c0,0.6,0.5,1,1.1,1c0.6,0,1.1-0.5,1.1-1C162.9,28.5,162.4,28,161.8,28z M155.3,29.7h-1.5l0.7-1.8L155.3,29.7
			z M155.6,30.5l0.4,1h1.1l-2.2-5h-0.8l-2.2,5h1.1l0.5-1H155.6z M148.1,28.9v-1.4h0.3c0.7,0,1,0.2,1,0.7c0,0.5-0.3,0.7-0.9,0.7
			H148.1z M148.1,29.7h0.6c1.1,0,1.7-0.6,1.7-1.6c0-0.4-0.2-0.9-0.5-1.2c-0.3-0.3-0.7-0.4-1.4-0.4h-1.5v4.9h1V29.7z M143.4,29.7
			h-1.5l0.7-1.8L143.4,29.7z M143.7,30.5l0.4,1h1.1l-2.2-5h-0.8l-2.2,5h1.1l0.5-1H143.7z M135.5,28.7v-2.1h-1v4.9h1v-2.1l0.1-0.1
			l1.8,2.2h1.3l-2.3-2.6l2.2-2.3h-1.3L135.5,28.7z M132.2,27.5v-0.8h-2.8v4.9h2.8v-0.8h-1.8v-1.3h1.8v-0.8h-1.8v-1.1H132.2z
			 M127,27.1c-0.4-0.4-0.9-0.5-1.5-0.5c-0.9,0-1.6,0.6-1.6,1.4c0,0.7,0.3,1,1.3,1.3c0.4,0.1,0.6,0.2,0.7,0.3
			c0.2,0.1,0.3,0.3,0.3,0.5c0,0.4-0.3,0.7-0.8,0.7c-0.5,0-0.9-0.2-1.1-0.7l-0.6,0.6c0.5,0.6,1,0.9,1.8,0.9c1,0,1.8-0.7,1.8-1.6
			c0-0.8-0.3-1.1-1.5-1.5c-0.6-0.2-0.8-0.4-0.8-0.6c0-0.3,0.3-0.5,0.7-0.5c0.3,0,0.5,0.1,0.8,0.4L127,27.1z M120.2,29.7h-1.5
			l0.7-1.8L120.2,29.7z M120.5,30.5l0.4,1h1.1l-2.2-5h-0.8l-2.2,5h1.1l0.5-1H120.5z M112.8,29.3v2.3h1v-2.3l1.8-2.7h-1.2l-1.1,1.7
			l-1.1-1.7h-1.2L112.8,29.3z M106,26.6h-1v4.9h1V26.6z M99.3,28.5v-1.9h-1v4.9h1v-2.2h2.2v2.2h1v-4.9h-1v1.9H99.3z M95.2,31.5v-4.1
			h1.2v-0.8h-3.3v0.8h1.1v4.1H95.2z M91.1,26.6h-1v4.9h1V26.6z M87.7,27.1c-0.4-0.4-0.9-0.5-1.5-0.5c-0.9,0-1.6,0.6-1.6,1.4
			c0,0.7,0.3,1,1.3,1.3c0.4,0.1,0.6,0.2,0.7,0.3c0.2,0.1,0.3,0.3,0.3,0.5c0,0.4-0.3,0.7-0.8,0.7c-0.5,0-0.9-0.2-1.1-0.7l-0.6,0.6
			c0.5,0.6,1,0.9,1.8,0.9c1,0,1.8-0.7,1.8-1.6c0-0.8-0.3-1.1-1.5-1.5c-0.6-0.2-0.8-0.4-0.8-0.6c0-0.3,0.3-0.5,0.7-0.5
			c0.3,0,0.5,0.1,0.8,0.4L87.7,27.1z M82.4,27.5v-0.8h-2.8v4.9h2.8v-0.8h-1.8v-1.3h1.8v-0.8h-1.8v-1.1H82.4z M73.8,26.6h-1.1l2.2,5
			h0.5l2.2-5h-1.1l-1.4,3.3L73.8,26.6z M70.9,26.6h-1v4.9h1V26.6z M62.6,31.5h1v-3.3l3.1,3.4h0.7v-5h-1v3.3l-3.1-3.4h-0.7V31.5z
			 M56.9,26.6h-1v3c0,0.6,0.1,1,0.4,1.3c0.4,0.4,1,0.7,1.7,0.7c0.7,0,1.3-0.3,1.7-0.7c0.3-0.3,0.4-0.7,0.4-1.3v-3h-1v2.8
			c0,0.5,0,0.7-0.2,0.9c-0.2,0.3-0.5,0.5-0.9,0.5c-0.4,0-0.7-0.2-0.9-0.5c-0.1-0.2-0.2-0.4-0.2-0.9V26.6z M51.3,29.3v2.3h1v-2.3
			l1.8-2.7h-1.2l-1.1,1.7l-1.1-1.7h-1.2L51.3,29.3z M47.7,26.6h-1v4.9h1V26.6z"/>
		<path fill="#FFFFFF" d="M288.9,20h2.3v-8.1l7.2,8.3h1.6V8.1h-2.3v8l-7.2-8.3h-1.6V20z M271.5,8.1h-2.4l4.2,12.1h1.6l2.8-7.8
			l2.6,7.8h1.6l4.4-12.1h-2.4l-2.8,8.1L278.3,8H277l-2.9,8.2L271.5,8.1z M260.8,9.9c2.2,0,3.9,1.8,3.9,4.1c0,2.3-1.8,4.1-3.9,4.1
			c-2.2,0-3.9-1.8-3.9-4.1C256.8,11.8,258.6,9.9,260.8,9.9z M260.8,7.8c-3.5,0-6.3,2.7-6.3,6.2c0,3.5,2.7,6.2,6.3,6.2
			c3.5,0,6.3-2.7,6.3-6.2C267.1,10.5,264.3,7.8,260.8,7.8z M249.7,20v-9.9h2.7v-2h-7.6v2h2.6V20H249.7z M235.4,10.1v-2h-6.5V20h6.5
			v-2h-4.2v-3.2h4.1v-2h-4.1v-2.6H235.4z M220.5,13.6v-3.5h0.8c1.6,0,2.3,0.5,2.3,1.7c0,1.2-0.7,1.7-2.2,1.7H220.5z M220.5,15.6h1.5
			c2.5,0,4-1.4,4-3.8c0-1.1-0.4-2.1-1.2-2.8c-0.7-0.7-1.6-0.9-3.1-0.9h-3.5V20h2.3V15.6z M211.4,15.6H208l1.7-4.3L211.4,15.6z
			 M212.1,17.5l1,2.5h2.5l-5-12.2h-1.7L203.7,20h2.4l1.1-2.5H212.1z M201.7,8.5c-1-0.5-1.8-0.7-2.8-0.7c-3.5,0-6.3,2.8-6.3,6.2
			c0,3.5,2.7,6.2,6.2,6.2c1,0,1.8-0.2,2.9-0.7v-2.7c-0.9,0.9-1.7,1.3-2.8,1.3c-2.3,0-4-1.7-4-4.1c0-2.3,1.7-4.1,3.9-4.1
			c1.1,0,1.9,0.4,2.9,1.3V8.5z M182.2,10.1v-2h-6.2V20h2.3v-5.2h3.7v-2h-3.7v-2.6H182.2z M166.3,9.9c2.2,0,3.9,1.8,3.9,4.1
			c0,2.3-1.8,4.1-3.9,4.1c-2.2,0-3.9-1.8-3.9-4.1C162.3,11.8,164.1,9.9,166.3,9.9z M166.3,7.8c-3.5,0-6.3,2.7-6.3,6.2
			c0,3.5,2.7,6.2,6.3,6.2c3.5,0,6.3-2.7,6.3-6.2C172.6,10.5,169.8,7.8,166.3,7.8z M144.2,14.5V20h2.3v-5.5l4.1-6.4h-2.7l-2.5,4.1
			l-2.5-4.1h-2.7L144.2,14.5z M136.2,20v-9.9h2.7v-2h-7.6v2h2.6V20H136.2z M128.5,8.1h-2.3V20h2.3V8.1z M122.6,9.2
			c-1-0.9-2.2-1.3-3.5-1.3c-2.1,0-3.7,1.5-3.7,3.4c0,1.6,0.7,2.5,2.9,3.3c0.9,0.3,1.4,0.5,1.6,0.7c0.5,0.3,0.7,0.7,0.7,1.2
			c0,1-0.8,1.7-1.8,1.7c-1.1,0-2-0.6-2.5-1.6l-1.5,1.4c1.1,1.6,2.3,2.3,4.1,2.3c2.4,0,4.1-1.6,4.1-3.9c0-1.9-0.8-2.7-3.4-3.7
			c-1.4-0.5-1.8-0.9-1.8-1.5c0-0.7,0.7-1.3,1.7-1.3c0.7,0,1.3,0.3,1.9,1L122.6,9.2z M106.5,13.6V10h0.7c1.4,0,2.2,0.6,2.2,1.8
			c0,1.2-0.8,1.8-2.2,1.8H106.5z M109.1,15c1.7-0.4,2.7-1.6,2.7-3.4c0-2.2-1.5-3.5-4.2-3.5h-3.4V20h2.3v-4.8h0.3L110,20h2.8
			L109.1,15z M100.7,10.1v-2h-6.5V20h6.5v-2h-4.2v-3.2h4.1v-2h-4.1v-2.6H100.7z M82.7,8.1h-2.5l5,12.2h1.2l5.1-12.2H89l-3.2,8
			L82.7,8.1z M77.6,8.1h-2.3V20h2.3V8.1z M60.3,20h2.3v-8.1l7.2,8.3h1.6V8.1h-2.3v8l-7.2-8.3h-1.6V20z M49.1,8.1h-2.3v7.3
			c0,1.4,0.3,2.4,0.9,3.2c0.8,1.1,2.3,1.7,3.9,1.7s3.1-0.6,3.9-1.7c0.6-0.8,0.9-1.8,0.9-3.2V8.1H54v6.8c0,1.2-0.1,1.6-0.4,2.1
			c-0.4,0.7-1.2,1.1-2.1,1.1c-0.9,0-1.7-0.4-2.1-1.1c-0.3-0.5-0.4-0.9-0.4-2.1V8.1z"/>
		<g>
			<path d="M0,0h33.8c0,0,0,12.9,0,21.2c0,17-16.9,22.7-16.9,22.7S0,38.2,0,21.2C0,12.9,0,0,0,0z"/>
			<path fill="#FFFFFF" d="M33.3,0.5v20.7c0,15.7-14.7,21.5-16.4,22.2c-1.7-0.6-16.4-6.5-16.4-22.1V0.5H33.3z"/>
			<path d="M31.8,21.2c0,13.6-11.9,19.3-14.9,20.6c-3-1.2-14.9-7-14.9-20.5V2h29.8V21.2z"/>
			<path d="M16.9,41.2c-3.3-1.4-14.4-7-14.4-20V2.5h28.8v18.7C31.3,34.2,20.2,39.9,16.9,41.2z"/>
			<path fill="#FFFFFF" d="M17,16.4c0.7,0,1.1,0.5,1.1,1.1c0,0.1,0,0.4-0.2,0.5h-0.1c0,0,0,0,0,0c0,0,0.1-0.2,0.1-0.2
				c0-0.1,0-0.2,0-0.3c0-0.3-0.3-0.8-0.6-0.8H17c-0.1,0-0.1,0-0.1,0.1c0,0.2,0.2,0.2,0.3,0.3c0.2,0.2,0.3,0.4,0.3,0.6
				c0,0.1-0.1,0.5-0.3,0.5h-0.9c-0.2,0-0.2-0.3-0.2-0.4c0,0,0-0.1,0-0.2C16,16.9,16.4,16.4,17,16.4z"/>
			<path fill="#FFFFFF" d="M17.1,15.6c0.1,0,0.5,0.1,0.6,0.2c0,0.1,0.1,0.1,0.1,0.1c0,0,0.2,0.4,0.2,0.4v0.2c-0.4-0.3-0.7-0.4-1-0.4
				c-0.3,0-0.6,0.1-0.9,0.4c0,0,0,0,0-0.1c0,0,0-0.1,0-0.1C16.3,15.9,16.7,15.6,17.1,15.6z"/>
			<path fill="#FFFFFF" d="M18.6,15.5c0.7,0.1,1.5,0.3,2.2,0.7c0,0-0.1,0.1-0.1,0.1c-0.6,0.1-1.1,0.1-1.7,0.2
				C18.9,16.2,18.6,15.6,18.6,15.5C18.6,15.5,18.6,15.5,18.6,15.5z"/>
			<path fill="#FFFFFF" d="M15.4,15.5l0.2,0c-0.2,0.3-0.4,0.7-0.4,1.1h-0.3c-0.4,0-1.6-0.2-1.8-0.3C13.8,15.8,14.6,15.6,15.4,15.5z"
				/>
			<path fill="#FFFFFF" d="M17.7,15.4c0.1,0,0.2,0,0.3,0c0.3,0.1,0.5,0.7,0.5,0.9c0,0,0,0.1,0,0.2c0,0,0,0,0,0.3
				c0,0.2-0.1,0.6-0.3,0.8c0-0.6-0.1-0.5-0.1-1c0-0.2-0.1-0.5-0.3-0.7c-0.3-0.3-0.5-0.4-0.8-0.4c-0.7,0-1.2,0.6-1.2,1.1
				c0,0,0,0.1,0,0.1c0,0.1,0,0.2,0,0.2c0,0.2-0.2,0.5-0.1,0.7c-0.2,0-0.3-0.5-0.3-0.6c0,0,0-0.1,0-0.2c0-0.4,0.4-1.3,0.7-1.4
				L17.7,15.4z"/>
			<path fill="#FFFFFF" d="M14.2,15c0.1,0,0.2,0.4,0.2,0.4c0,0.1-0.1,0.1-0.3,0.2c-0.2,0.1-0.4,0.1-0.6,0.2
				c-0.2,0.1-0.5,0.2-0.8,0.3c-0.1-0.1-0.2-0.3-0.2-0.4C12.6,15.5,14.1,15,14.2,15z"/>
			<path fill="#FFFFFF" d="M19.6,15c0.1,0,1.7,0.5,1.7,0.7c0,0.1-0.1,0.3-0.2,0.3c-0.1,0-0.5-0.2-0.7-0.3c-0.3-0.1-0.6-0.2-0.9-0.3
				c-0.1,0-0.1-0.1-0.1-0.1C19.5,15.3,19.6,15,19.6,15z"/>
			<path fill="#FFFFFF" d="M12.8,14.7c0.1,0.1,0.1,0.3,0.1,0.4c0,0.1-0.4,0.3-0.5,0.3c0,0-0.2-0.3-0.2-0.4
				C12.3,14.9,12.7,14.7,12.8,14.7z"/>
			<path fill="#FFFFFF" d="M21.1,14.7c0.1,0,0.6,0.2,0.6,0.3c0,0-0.1,0.2-0.2,0.4c0,0-0.6-0.2-0.6-0.3C20.9,15,21,14.7,21.1,14.7z"
				/>
			<path fill="#FFFFFF" d="M17.2,14.6c0,0,0.1,0,0.5,0c0.6,0,1.2,0.1,1.8,0.3V15c0,0.1-0.1,0.3-0.1,0.3c-0.1,0-0.6-0.1-0.8-0.2
				c-0.2,0-0.5,0-0.8-0.1l-0.6,0c0,0,0,0-0.1-0.1v-0.3C17.1,14.7,17.2,14.6,17.2,14.6z"/>
			<path fill="#FFFFFF" d="M16.9,14.6c0,0.1,0.1,0.1,0.1,0.2c0,0.3-0.1,0.3-0.4,0.3h-0.3c-0.3,0-1.6,0.3-1.7,0.3
				c-0.1,0-0.2-0.3-0.2-0.3c0,0,0-0.1,0-0.1c0.1,0,0.3-0.1,0.5-0.1c0.4-0.1,0.9-0.1,1.3-0.2L16.9,14.6z"/>
			<path fill="#FFFFFF" d="M18.5,14c0.2,0,2.4,0.5,2.4,0.7c0,0.1-0.1,0.4-0.2,0.4c-0.4-0.1-0.9-0.3-1.3-0.4c-0.3-0.1-0.7-0.1-1-0.2
				c0-0.2,0-0.2,0-0.3C18.4,14.2,18.4,14,18.5,14z"/>
			<path fill="#FFFFFF" d="M15.5,14c0.1,0.1,0.1,0.3,0.1,0.4c0,0.1-0.2,0.1-0.3,0.1c-0.3,0.1-0.7,0.1-1,0.2
				c-0.4,0.1-0.8,0.3-1.2,0.4C13.1,15,13,14.8,13,14.7c0-0.1,0.4-0.2,0.5-0.2C14.1,14.3,14.8,14.1,15.5,14z"/>
			<path fill="#FFFFFF" d="M17.6,13.9c0,0,0.4,0,0.6,0.1c0,0,0.1,0.1,0.1,0.1c0,0,0,0.1,0,0.2c0,0,0,0.1,0,0.2
				c-0.5,0-0.7-0.1-0.8-0.1h-1c-0.1,0-0.4,0-0.7,0.1c-0.1-0.1-0.1-0.2-0.1-0.3c0,0,0-0.1,0-0.1c0.2,0,0.6-0.1,0.6-0.1H17.6z"/>
			<path fill="#FFFFFF" d="M13.9,13.7C13.9,13.7,13.9,13.7,13.9,13.7c0.1,0.1,0.2,0.3,0.2,0.3v0.1l-1.8,0.7
				c-0.1-0.1-0.1-0.3-0.1-0.3c0-0.1,0.2-0.2,0.3-0.2C12.5,14.2,13.6,13.7,13.9,13.7z"/>
			<path fill="#FFFFFF" d="M20,13.6c0.1,0,1.9,0.6,1.9,0.8c0,0-0.1,0.2-0.1,0.3c0,0,0,0-0.1,0c-0.1,0-0.8-0.3-1.3-0.5
				c-0.2-0.1-0.4-0.1-0.6-0.2c0,0-0.1-0.1-0.1-0.1C19.8,13.9,19.9,13.8,20,13.6C19.9,13.7,19.9,13.6,20,13.6z"/>
			<path fill="#FFFFFF" d="M12.4,13.5C12.4,13.5,12.4,13.5,12.4,13.5c0.1,0.1,0.2,0.3,0.2,0.4c0,0.1-0.5,0.3-0.6,0.3
				c0,0-0.2-0.3-0.2-0.4C11.8,13.7,12.3,13.5,12.4,13.5z"/>
			<path fill="#FFFFFF" d="M21.5,13.4c0.1,0,0.6,0.3,0.6,0.3c0,0.1-0.1,0.3-0.2,0.3c-0.1,0-0.4-0.2-0.6-0.3c0,0,0,0,0-0.1
				c0,0,0.1-0.2,0.1-0.2C21.4,13.5,21.5,13.4,21.5,13.4z"/>
			<path fill="#FFFFFF" d="M17.4,13.2c0.1,0,0.3,0,0.7,0c0.3,0,1.7,0.2,1.7,0.4c0,0.1-0.1,0.3-0.1,0.4c-0.3-0.1-0.6-0.1-0.9-0.2
				c-0.4-0.1-1.3-0.1-1.3-0.1h-0.3c0,0-0.1-0.1-0.1-0.1c0,0,0,0,0-0.2C17.1,13.2,17.2,13.2,17.4,13.2z"/>
			<path fill="#FFFFFF" d="M16.8,13.2c0.1,0,0.1,0,0.1,0c0,0,0,0.1,0,0.4c0,0,0,0-0.1,0.1h-0.4c-0.5,0-2.1,0.3-2.3,0.3
				c0-0.1-0.1-0.3-0.1-0.3v-0.1c0.6-0.2,1.2-0.3,1.8-0.3C16.3,13.2,16.7,13.2,16.8,13.2z"/>
			<path fill="#FFFFFF" d="M20.7,13.2L20.7,13.2c0.1,0,0.6,0.2,0.6,0.2c0,0.1-0.1,0.3-0.2,0.3c-0.1,0-0.3-0.1-0.5-0.2
				c0,0,0-0.1,0-0.1C20.6,13.4,20.6,13.3,20.7,13.2z"/>
			<path fill="#FFFFFF" d="M13.2,13.2c0.1,0,0.2,0.4,0.2,0.4c0,0,0,0.1,0,0.1c-0.2,0.1-0.5,0.2-0.5,0.2c-0.1,0-0.2-0.3-0.2-0.4
				C12.6,13.4,13.1,13.2,13.2,13.2z"/>
			<path fill="#FFFFFF" d="M18.6,12.7h0.1c0.1,0,0.4,0.1,0.5,0.1c0,0,0,0,0,0.1c0,0.1-0.1,0.4-0.1,0.4c-0.1,0-0.4-0.1-0.5-0.1
				c0,0-0.1-0.1-0.1-0.1C18.5,13,18.5,12.8,18.6,12.7z"/>
			<path fill="#FFFFFF" d="M15.3,12.7c0.1,0,0.1,0.3,0.1,0.3c0,0.2-0.6,0.2-0.7,0.2c0-0.1-0.1-0.3-0.1-0.3
				C14.6,12.8,15.2,12.7,15.3,12.7z"/>
			<path fill="#FFFFFF" d="M17.7,12.6c0.1,0,0.7-0.1,0.7,0.2c0,0,0,0.2,0,0.3c0,0-0.1,0-0.2,0c-0.2,0-0.3,0-0.5-0.1c0,0,0-0.1,0-0.1
				C17.7,12.8,17.7,12.7,17.7,12.6z"/>
			<path fill="#FFFFFF" d="M16,12.6h0.2c0.1,0.1,0.1,0.2,0.1,0.3c0,0,0,0.1,0,0.1c-0.1,0.1-0.3,0.1-0.4,0.1h-0.3
				c0-0.1-0.1-0.3-0.1-0.3C15.5,12.6,15.8,12.6,16,12.6z"/>
			<path fill="#FFFFFF" d="M20.9,12.5c0.1,0,1.5,0.5,1.5,0.6c0,0-0.1,0.3-0.2,0.4c-0.5-0.2-1-0.4-1.5-0.6c0,0,0,0,0,0
				C20.7,12.8,20.8,12.5,20.9,12.5z"/>
			<path fill="#FFFFFF" d="M13,12.5c0.1,0,0.2,0.4,0.2,0.4c0,0,0,0.1-0.1,0.1c-0.3,0.1-0.8,0.3-0.8,0.3c0,0-0.4,0.2-0.5,0.2
				c-0.1-0.1-0.2-0.3-0.2-0.4C11.5,13,13,12.5,13,12.5z"/>
			<path fill="#FFFFFF" d="M17.9,11.9c0.2,0,1.3,0.2,1.5,0.2c0,0,0,0,0,0.1c0,0.1,0,0.3-0.2,0.4l-1.5-0.2c0-0.2,0-0.3,0-0.4
				C17.7,11.9,17.8,11.9,17.9,11.9z"/>
			<path fill="#FFFFFF" d="M16,11.9c0,0,0.3,0,0.3,0.1c0,0,0,0.2,0,0.3c0,0,0,0.1-0.1,0.1c-0.5,0-1,0.1-1.6,0.2
				c0-0.1-0.1-0.3-0.1-0.4c0,0,0-0.1,0-0.1C14.7,12,15.8,11.9,16,11.9z"/>
			<path fill="#FFFFFF" d="M15.5,10.7l3.1,0c0.1,0,0.3,0.1,0.4,0.3V11h-3.9C15.1,10.9,15.4,10.7,15.5,10.7z"/>
			<path fill="#FFFFFF" d="M15.7,10.4l2.6,0c0,0,0.1,0.1,0.1,0.1c0,0-0.1,0-0.1,0l-2.7,0c0,0,0,0,0-0.1
				C15.6,10.4,15.7,10.5,15.7,10.4z"/>
			<path fill="#FFFFFF" d="M16.1,10.1l1.9,0c0,0,0.2,0.1,0.2,0.1c0,0-0.1,0.1-0.1,0.1l-1.9,0c-0.1,0-0.2,0-0.2-0.1
				C16,10.1,16,10.1,16.1,10.1z"/>
			<path fill="#FFFFFF" d="M16.5,9.7l1.2,0c0.1,0,0.2,0.1,0.2,0.1c0,0,0,0.1-0.1,0.1l-1.4,0c-0.1,0-0.2-0.1-0.2-0.2
				C16.2,9.7,16.4,9.7,16.5,9.7z"/>
			<path fill="#FFFFFF" d="M16.2,9.1c0.4,0,0.6,0.1,0.9,0.1c0.2,0,0.5-0.1,0.8-0.1v0.1c0,0-0.1,0.2-0.2,0.3c-0.1,0-0.2,0-0.3,0
				l-1.1,0c0,0,0-0.1-0.1-0.1C16.2,9.4,16.1,9.2,16.2,9.1L16.2,9.1z"/>
			<path fill="#FFFFFF" d="M14.9,8.3c0.1,0,0.4,0.2,0.4,0.3h-0.1c-0.1,0-0.4-0.2-0.4-0.3C14.8,8.3,14.9,8.3,14.9,8.3z"/>
			<path fill="#FFFFFF" d="M15.4,8.2c0.2,0,0.4,0.4,0.4,0.5c0,0,0,0-0.1,0c-0.2,0-0.5-0.3-0.5-0.4C15.3,8.3,15.4,8.2,15.4,8.2z"/>
			<path fill="#FFFFFF" d="M16,8.2c0.2,0,0.2,0.4,0.2,0.4c0,0.1-0.1,0.1-0.1,0.2c-0.1,0-0.3-0.3-0.3-0.4C15.9,8.3,15.9,8.2,16,8.2z"
				/>
			<path fill="#FFFFFF" d="M18.7,8.2C18.8,8.2,18.8,8.3,18.7,8.2c0.1,0.2-0.2,0.5-0.3,0.5h-0.1c0,0,0,0,0-0.1
				C18.3,8.6,18.5,8.2,18.7,8.2z"/>
			<path fill="#FFFFFF" d="M18.2,8.2c0.1,0,0.1,0.1,0.1,0.1c0,0.1-0.2,0.4-0.4,0.4c-0.1,0-0.1-0.1-0.1-0.1C17.8,8.6,18,8.2,18.2,8.2
				z"/>
			<path fill="#FFFFFF" d="M17.6,8.2c0.1,0,0.2,0.2,0.2,0.2c0,0.1-0.1,0.5-0.2,0.5c-0.1,0-0.1-0.3-0.1-0.3
				C17.4,8.5,17.4,8.2,17.6,8.2z"/>
			<path fill="#FFFFFF" d="M17.1,8.2c0.2,0,0.2,0.2,0.2,0.3c0,0.1,0,0.4-0.2,0.4c-0.2,0-0.2-0.4-0.2-0.4C16.9,8.3,16.9,8.2,17.1,8.2
				z"/>
			<path fill="#FFFFFF" d="M16.5,8.2c0.2,0,0.2,0.2,0.2,0.3c0,0.1-0.1,0.3-0.1,0.3c-0.2,0-0.2-0.4-0.2-0.4
				C16.4,8.3,16.4,8.2,16.5,8.2z"/>
			<path fill="#FFFFFF" d="M13.1,6.9c0.2,0,0.2,0.2,0.2,0.3c0,0.4-0.5,0.5-0.7,0.5c-0.4,0-1.1-0.4-1.4-0.8H13.1z"/>
			<path fill="#FFFFFF" d="M20.6,6.8c0,0-0.4,0.9-1.2,1.3c0,0-0.2-0.1-0.2-0.1c-0.1,0-0.2,0.1-0.3,0.1c-0.1,0-0.2-0.1-0.2-0.1
				c-0.1,0-0.2,0.1-0.2,0.1c0,0-0.2-0.1-0.3-0.1c-0.1,0-0.3,0.1-0.3,0.1c0,0-0.2-0.1-0.3-0.1c-0.1,0-0.2,0.1-0.3,0.1
				c-0.1,0-0.2-0.1-0.3-0.1c-0.1,0-0.2,0.1-0.2,0.1c-0.1,0-0.2-0.1-0.2-0.1c-0.1,0-0.3,0.1-0.3,0.1c-0.1,0-0.2-0.1-0.3-0.1
				c0,0-0.2,0.1-0.2,0.1c-0.1,0-0.3-0.1-0.3-0.1c-0.1,0-0.2,0.1-0.3,0.1c0,0-0.3-0.1-0.3-0.1c-0.2,0-0.3,0.2-0.3,0.2
				c-0.1,0-0.1-0.1-0.2-0.1c-0.3-0.2-0.5-0.6-0.7-0.8c-0.1-0.1-0.2-0.5-0.2-0.5H20.6z"/>
			<path fill="#FFFFFF" d="M21.3,6.5v0.2c0-0.1,0,0-0.1,0c-0.1,0-7.6,0-7.6,0c-0.1,0-0.2,0-0.3,0V6.5H21.3z"/>
			<path fill="#FFFFFF" d="M10.3,6.2c0.1,0,0.2,0.3,0.5,0.3H13c0,0,0.1,0.1,0.1,0.1h-2.6c-0.1,0-0.4-0.2-0.4-0.3
				C10.1,6.2,10.3,6.2,10.3,6.2z"/>
			<path fill="#FFFFFF" d="M18.1,5.7L18.1,5.7c0.1,0,0.5,0.3,0.7,0.5c0,0-0.1,0.1-0.1,0.1C18.4,6.3,18,5.9,18.1,5.7
				C18,5.7,18.1,5.7,18.1,5.7z"/>
			<path fill="#FFFFFF" d="M17.2,5.6c0.1,0,0.2,0.3,0.2,0.3c0,0.2-0.1,0.2-0.2,0.2C17,6.2,17,6.1,17,6.1C17,6,17.1,5.6,17.2,5.6z"/>
			<path fill="#FFFFFF" d="M17.5,5.6L17.5,5.6c0.2,0,0.5,0.4,0.5,0.5c0,0.1-0.1,0.1-0.2,0.1c-0.2,0-0.4-0.4-0.4-0.5
				C17.5,5.7,17.5,5.7,17.5,5.6z"/>
			<path fill="#FFFFFF" d="M16.4,5.6C16.4,5.6,16.4,5.7,16.4,5.6c0,0.2-0.3,0.6-0.4,0.6h-0.2c0,0,0,0,0-0.1
				C15.7,6.1,16.2,5.7,16.4,5.6z"/>
			<path fill="#FFFFFF" d="M16.8,5.6C16.9,5.6,16.9,5.7,16.8,5.6c0.1,0.2-0.1,0.6-0.3,0.6c-0.1,0-0.2,0-0.2-0.1
				C16.4,6,16.6,5.6,16.8,5.6z"/>
			<path fill="#FFFFFF" d="M16.5,5.2l1.6,0c0,0,0.1,0.1,0.1,0.1c0,0-0.1,0-0.1,0.1l-1.6,0c0,0,0,0-0.1,0V5.3
				C16.3,5.2,16.4,5.2,16.5,5.2z"/>
			<path fill="#FFFFFF" d="M22.4,5.1c0.6,0,1.3,0.3,1.3,1c0,0.8-1.2,1.5-1.9,1.6c-0.3,0.1-0.6,0.2-0.9,0.2c-0.5,0.1-1.1,0.2-1.5,0.6
				c0,0,0,0,0-0.1c0-0.3,0.9-0.6,0.9-0.6c0.7-0.2,1.4-0.3,2.1-0.7c0.6-0.3,0.9-0.6,0.9-1.1c0-0.5-0.6-0.7-0.9-0.7
				c-0.2,0-0.7,0.1-0.8,0.3c0,0,0.1,0.1,0.1,0.1c0.1,0,0.1,0.2,0.1,0.2c0,0.2-0.2,0.3-0.4,0.3c-0.2,0-0.5-0.1-0.5-0.4
				c0,0,0.1-0.2,0.1-0.2C21.5,5.3,22,5.1,22.4,5.1z"/>
			<path fill="#FFFFFF" d="M17.2,4.3c0.1,0,0.3,0.1,0.3,0.3c0,0.2-0.2,0.3-0.3,0.3c-0.2,0-0.3-0.2-0.3-0.3C16.9,4.4,17,4.3,17.2,4.3
				z"/>
			<path fill="#FFFFFF" d="M14.8,3.7c-0.1,0.2-0.4,0.2-0.6,0.3c-0.2,0.1,0,0.5-0.3,0.5c0,0-0.4-0.1-0.5-0.1c-0.1,0-0.1,0-0.3,0.1
				c0.2,0.2,0.4,0.3,0.4,0.5c0,0,0,0.1,0,0.1c0,0.1-0.4,0.3-0.6,0.3l-0.6,0c-0.1,0-0.3,0.2-0.4,0.3c-0.1-0.1-0.2-0.2-0.2-0.3
				c0-0.2,0.3-0.1,0.4-0.1h0.3c0.2,0,0.4-0.2,0.4-0.4c0-0.3-0.5-0.3-0.5-0.7c0-0.3,0.3-0.3,0.5-0.3c0.1,0,0.7,0.2,0.8,0.2
				c0.2,0,0.4-0.2,0.5-0.3c0.1-0.1,0.3-0.1,0.5-0.1C14.7,3.8,14.7,3.8,14.8,3.7z"/>
			<path fill="#FFFFFF" d="M17.1,30.7c0.3,0,0.6,0.2,0.6,0.5c0,2.7,0.1,2.7,0,2.7c0,0.1,0,0.2,0,0.3c0,0,0.1,0.2,0.1,0.4
				c0.1,0.5,0.6,0.8,1,0.8c1.2,0,3.6-1.6,4.5-2.5c-0.1-0.1-0.3-0.3-0.4-0.4c0,0-0.2-0.2-0.2-0.3c0-0.1,1.4-0.9,1.4-0.9
				c0.2-0.1,0.4-0.2,0.5-0.4c0.1-0.1,0.5-0.4,0.6-0.4c0.1,0,0,0.6,0,0.6c0,0.2-0.1,0.6-0.1,0.7c0,0-0.1,0.4-0.1,0.5
				c0,0.3-0.3,0.9-0.4,1.1c0,0.1-0.1,0.1-0.1,0.1c-0.2,0-0.7-0.4-0.8-0.4c-0.1,0-1.1,1-1.5,1.3c-0.3,0.2-0.5,0.4-0.8,0.6
				C21,35.6,18,37.9,17,37.9c-1,0-4-2.3-4.5-2.7c-0.2-0.2-0.5-0.4-0.8-0.6c-0.4-0.4-1.4-1.3-1.5-1.3c-0.1,0-0.5,0.4-0.8,0.4
				c0,0-0.1-0.1-0.1-0.1c-0.1-0.2-0.4-0.8-0.4-1.1c0,0-0.1-0.4-0.1-0.5c0,0-0.1-0.5-0.1-0.7c0,0-0.1-0.6,0-0.6
				c0.1,0,0.5,0.3,0.6,0.4c0.2,0.1,0.3,0.2,0.5,0.4c0.1,0,1.4,0.8,1.4,0.9c0,0.1-0.2,0.3-0.2,0.3c-0.1,0-0.3,0.3-0.4,0.4
				c0.9,0.9,3.3,2.5,4.5,2.5c0.4,0,0.9-0.3,1-0.8c0-0.1,0.1-0.3,0.1-0.4c0,0,0-0.2,0-0.3c0,0,0,0,0-2.7c0-0.4,0.3-0.5,0.5-0.5H17.1z
				"/>
			<path fill="#FFFFFF" d="M9.5,22.3l0,6.1c0,0,0.6,0.5,3.1-0.1c0,0,2.4-0.9,4.3,0.2v-6.3c0,0-1.2-1.1-4.1-0.3c0,0-1.9,0.6-2.7,0.4
				C9.3,22.1,9.5,22.3,9.5,22.3z"/>
			<path fill="#FFFFFF" d="M16.8,30.2c-0.1,0-0.1,0-0.2,0c0,0,0,0,0-0.1c0-0.1,0.2-0.7,0.2-0.7C16.8,29.5,16.8,29.9,16.8,30.2z"/>
			<path fill="#FFFFFF" d="M16.9,29.4c0,0.1,0.1,0.1,0.1,0.2c0,0.2,0,0.4,0,0.4v0.2l-0.2,0c0-0.1,0-0.1,0-0.1c0,0,0,0,0,0v-0.5
				c0,0,0,0,0,0C16.9,29.5,16.9,29.4,16.9,29.4z"/>
			<path fill="#FFFFFF" d="M16.6,29.3v0.1c0,0-0.1,0.4-0.2,0.6h-0.1c0,0,0-0.1,0-0.1C16.3,29.9,16.6,29.4,16.6,29.3z"/>
			<path fill="#FFFFFF" d="M16.5,29.3c-0.1,0.2-0.2,0.4-0.3,0.6c0,0,0,0-0.1,0c-0.1,0-0.1,0-0.1-0.1C16,29.7,16.4,29.3,16.5,29.3z"
				/>
			<path fill="#FFFFFF" d="M16.3,29.1L16.3,29.1c-0.1,0.2-0.3,0.4-0.4,0.6c-0.1,0-0.1-0.1-0.1-0.1C15.8,29.5,16.2,29.1,16.3,29.1z"
				/>
			<path fill="#FFFFFF" d="M24.4,22.3l0,6.1c0,0-0.6,0.5-3.1-0.1c0,0-2.4-0.9-4.3,0.2v-6.3c0,0,1.2-1,4.1-0.3c0,0,1.9,0.6,2.7,0.4
				C24.6,22.1,24.4,22.3,24.4,22.3z"/>
			<path fill="#FFFFFF" d="M17.1,30.2c0.1,0,0.1,0,0.2,0c0,0,0,0,0-0.1c0-0.1-0.2-0.7-0.2-0.7C17.1,29.5,17.1,29.9,17.1,30.2z"/>
			<path fill="#FFFFFF" d="M17.3,29.3v0.1c0,0,0.1,0.4,0.2,0.6h0.1c0,0,0-0.1,0-0.1C17.6,29.9,17.3,29.4,17.3,29.3z"/>
			<path fill="#FFFFFF" d="M17.4,29.3c0.1,0.2,0.2,0.4,0.3,0.6c0,0,0,0,0.1,0c0.1,0,0.1,0,0.1-0.1C17.9,29.7,17.5,29.3,17.4,29.3z"
				/>
			<path fill="#FFFFFF" d="M24.7,22.4v6.3l-0.1-0.1l-0.1-0.1v-6.3L24.7,22.4z M25,22.5v6.5l-0.2-0.2v-6.4L25,22.5z M25.2,22.7v6.7
				l-0.1-0.1L25,29.2v-6.5L25.2,22.7z"/>
			<path fill="#FFFFFF" d="M17.6,29.1L17.6,29.1c0.1,0.2,0.3,0.4,0.4,0.6c0.1,0,0.1-0.1,0.1-0.1C18.1,29.5,17.7,29.1,17.6,29.1z"/>
			<path fill="#FFFFFF" d="M25.4,22.9h0.2v7l-7.4,0l0,0c-0.3,0.4-0.7,0.7-1.2,0.7h0c0,0,0,0,0,0c-0.5,0-1-0.3-1.2-0.7l0,0H8.3v-7
				h0.2v6.7h7.2l0,0.1c0.2,0.4,0.7,0.7,1.3,0.8c0.5,0,1-0.3,1.3-0.8l0-0.1h7.2V22.9z"/>
			<g>
				<ellipse fill="#FFFFFF" cx="11.8" cy="6.1" rx="0.1" ry="0.1"/>
			</g>
			<path fill="#FFFFFF" d="M19.2,8.3c-0.1,0-0.4,0.2-0.4,0.3h0.1c0.1,0,0.4-0.2,0.4-0.3C19.3,8.3,19.2,8.3,19.2,8.3z"/>
			<path fill="#FFFFFF" d="M16.9,21.9l-0.6-0.4c0-0.1,0-0.4,0-0.5c0-0.4,0.3-0.5,0.5-0.5h0.2c0.3,0,0.6,0.2,0.6,0.5
				c0,0.1,0,0.4,0,0.5L16.9,21.9z"/>
			<polygon fill="#FFFFFF" points="12.7,18.3 13.6,18.3 13.6,19.6 12.7,19.4 			"/>
			<polygon fill="#FFFFFF" points="11.2,18.4 12.5,18.4 12.5,19.3 11.2,19.1 			"/>
			<polygon fill="#FFFFFF" points="11.1,18.4 10.8,18.6 10.8,19.3 11.1,19.2 			"/>
			<path d="M13.1,18.4C13.1,18.4,13.1,18.4,13.1,18.4c0.2,0,0.3,0.1,0.3,0.2c0,0.1-0.1,0.2-0.2,0.2c0,0-0.1-0.1-0.2-0.1
				c0.1,0,0.2,0,0.2-0.1C13.2,18.5,13.2,18.4,13.1,18.4z"/>
			<path d="M13.1,18.9C13.1,18.9,13.1,18.9,13.1,18.9c0.2,0,0.3,0.1,0.3,0.2c0,0.1-0.1,0.2-0.2,0.2c0,0-0.1-0.1-0.2-0.1
				c0.1,0,0.2,0,0.2-0.1C13.2,19,13.2,19,13.1,18.9z"/>
			<polygon fill="#FFFFFF" points="11.1,19.2 12.5,19.4 12.5,19.6 10.9,19.4 			"/>
			<polygon fill="#FFFFFF" points="12.7,19.5 13.6,19.7 13.6,19.9 12.7,19.7 			"/>
			<polygon fill="#FFFFFF" points="13.8,19.7 16.9,20.2 16.9,20.4 13.8,19.9 			"/>
			<polygon fill="#FFFFFF" points="21.2,18.3 20.3,18.3 20.3,19.6 21.2,19.4 			"/>
			<polygon fill="#FFFFFF" points="22.7,18.4 21.4,18.4 21.4,19.3 22.7,19.1 			"/>
			<path d="M20.6,18.4C20.6,18.4,20.6,18.4,20.6,18.4c0.2,0,0.3,0.1,0.3,0.2c0,0.1-0.1,0.2-0.2,0.2c-0.1,0-0.1-0.1-0.2-0.1
				c0.1,0,0.2,0,0.2-0.1C20.7,18.5,20.6,18.4,20.6,18.4z"/>
			<path d="M20.6,18.9C20.6,18.9,20.6,18.9,20.6,18.9c0.2,0,0.3,0.1,0.3,0.2c0,0.1-0.1,0.2-0.2,0.2c-0.1,0-0.1-0.1-0.2-0.1
				c0.1,0,0.2,0,0.2-0.1C20.7,19,20.6,19,20.6,18.9z"/>
			<polygon fill="#FFFFFF" points="22.7,19.2 21.4,19.4 21.4,19.6 22.6,19.4 			"/>
			<polygon fill="#FFFFFF" points="21.2,19.5 20.3,19.7 20.3,19.9 21.2,19.7 			"/>
			<polygon fill="#FFFFFF" points="16.9,20.1 13.8,19.5 13.8,18.4 16.9,18.4 20.1,18.4 20.1,19.5 			"/>
			<polygon fill="#FFFFFF" points="20.1,19.7 16.9,20.2 16.9,20.4 20.1,19.9 			"/>
			<g>
				<g>
					<path d="M18.3,23.7c0.4,0,0.6,0.2,0.6,0.5c0,0.1-0.1,0.2-0.2,0.4c0.1,0.2,0.3,0.3,0.3,0.5c0,0.4-0.5,0.5-0.8,0.5
						c-0.1,0-0.2,0-0.6,0c0,0,0,0-0.1,0c0-0.1,0.1-0.1,0.1-0.2v-1.3c0-0.1-0.1-0.1-0.1-0.2C17.7,23.8,17.8,23.7,18.3,23.7z"/>
					<path d="M20,23.9c0.5,0,0.7,0.5,0.7,0.8c0,0.4-0.3,0.9-0.8,0.9c-0.5,0-0.8-0.5-0.8-0.8C19.2,24.4,19.5,23.9,20,23.9z"/>
					<path d="M21,23.9c0.7,0,0.5,0.5,0.9,1c0.1-0.1,0.1-0.4,0.1-0.5c0-0.1,0-0.1-0.1-0.3c0,0,0,0,0.1,0s0.3,0,0.4,0.1
						c-0.3,0.2-0.2,0.5-0.2,0.7c0,0.4,0,0.7-0.1,0.9c-0.4-0.4-0.5-0.9-0.8-1.2c0,0,0,0,0,0.1c0,0.2-0.1,0.7-0.1,0.7
						c0,0.1,0.1,0.2,0.2,0.3c-0.1,0-0.3,0-0.5,0c0,0,0,0,0,0C21,25.5,21,25.2,21,25c0,0,0.1-0.7,0.1-0.7c0-0.1-0.1-0.2-0.2-0.3
						C21,24,21,23.9,21,23.9z"/>
					<path d="M22.8,24.2c0.2,0,0.5,0,0.5,0c0,0,0,0,0,0c0,0-0.1,0.1-0.1,0.1c0,0,0.1,0.4,0.2,0.6c0.1,0.2,0.1,0.6,0.4,0.8v0.1
						c-0.2,0-0.4,0-0.6,0c0,0,0,0,0,0c0,0,0.1-0.1,0.1-0.2c0-0.1-0.1-0.3-0.2-0.3h-0.3c0,0-0.1,0.2-0.1,0.3c0,0,0,0.1,0.1,0.2
						c-0.2,0-0.3,0-0.5,0c0-0.1,0.2-0.1,0.2-0.2c0.2-0.4,0.4-1.2,0.4-1.2C22.9,24.3,22.8,24.3,22.8,24.2
						C22.8,24.2,22.8,24.2,22.8,24.2z"/>
					<path fill="#FFFFFF" d="M20.1,24c0.2,0,0.3,0.2,0.3,0.4c0,0.2,0,0.2,0,0.3c0,0-0.1,0.8-0.4,0.8c-0.3,0-0.4-0.5-0.4-0.6
						C19.6,24.7,19.7,24,20.1,24z"/>
					<path fill="#FFFFFF" d="M23,24.7c0,0,0.2,0.3,0.2,0.4c0,0,0,0,0,0.1h-0.3c0,0,0,0,0-0.1C22.9,25,22.9,24.8,23,24.7z"/>
					<path fill="#FFFFFF" d="M18.2,24.7c0.2,0,0.3,0.2,0.3,0.3c0,0.2-0.1,0.4-0.3,0.4c-0.1,0-0.1,0-0.2-0.1v-0.5
						C18.1,24.7,18.1,24.7,18.2,24.7z"/>
					<path fill="#FFFFFF" d="M18.3,23.9c0.2,0,0.3,0.1,0.3,0.3c0,0.2-0.1,0.3-0.3,0.3c-0.1,0-0.1,0-0.1-0.1c0-0.4,0-0.5,0-0.5
						C18.2,23.9,18.2,23.9,18.3,23.9z"/>
				</g>
				<g>
					<path d="M15.3,23.7h0.4c0,0,0,0.4,0,0.4c-0.1,0-0.1-0.2-0.3-0.3c0,0-0.1,0-0.1,0c-0.1,0-0.3,0-0.3,0.2c0,0.4,0.9,0.4,0.9,1
						c0,0.3-0.2,0.5-0.5,0.5c-0.1,0-0.4-0.1-0.5-0.1c-0.1-0.1-0.1-0.2-0.1-0.4c0,0,0-0.1,0-0.2c0.1,0.2,0.3,0.4,0.6,0.4
						c0.1,0,0.2-0.1,0.2-0.2c0-0.4-0.9-0.4-0.9-1C14.8,23.9,15,23.7,15.3,23.7z"/>
					<path d="M14.2,23.9c0.1,0,0.1,0,0.1,0.1v0.4c-0.1-0.1-0.1-0.2-0.2-0.2c-0.1-0.1-0.2-0.1-0.3-0.1c0,0-0.3,0-0.3,0.1
						c0,0.2,0,0.3,0,0.3c0,0,0,0.2,0.1,0.2c0.1,0,0.2-0.1,0.3-0.2c0,0,0,0.1,0,0.1c0,0,0,0,0,0.4c-0.1-0.1-0.2-0.2-0.3-0.2
						c-0.1,0-0.1,0.1-0.1,0.1c0,0.2,0,0.3,0,0.3c0,0.1,0,0.2,0,0.2c0,0.1,0.1,0.1,0.2,0.1c0.2,0,0.5-0.1,0.6-0.4c0,0,0,0,0,0.1
						c0,0,0,0.2-0.1,0.3c-0.3,0.1-0.9,0.2-1,0.2h-0.3c0,0,0.1-0.1,0.1-0.1c0-0.1,0-0.2,0-0.2l-0.1-1.1c0-0.1-0.1-0.2-0.2-0.3
						c0,0,0-0.1,0-0.1C13.4,24,14.1,23.9,14.2,23.9z"/>
					<path d="M12.3,24.1c0.4,0,0.6,0.2,0.6,0.5c0,0.4-0.2,0.6-0.8,0.6c-0.1,0-0.1,0.2-0.1,0.2c0,0,0,0.3,0.1,0.4
						c0,0,0.1,0.1,0.2,0.1C12.2,26,12,26,11.9,26c-0.3,0-0.3,0-0.3,0c0,0,0.1-0.1,0.1-0.1c0-0.1,0-0.2,0-0.3l0-1.1
						c0-0.1,0-0.1-0.1-0.2C11.7,24.2,12,24.1,12.3,24.1z"/>
					<path d="M10.6,24.2c0.1,0,0.1,0,0.5,0c0,0.1,0,0.2,0,0.3c0,0,0,0.1,0,0.2c-0.1-0.1-0.1-0.2-0.2-0.2c-0.1-0.1-0.2-0.1-0.3-0.1
						c-0.1,0-0.2,0-0.2,0.2c0,0.2,0.7,0.5,0.6,0.6c0,0,0.1,0.1,0.1,0.1c0,0,0.1,0.1,0.1,0.2c0,0,0.1,0,0.1,0.1c0,0,0,0,0,0
						c0,0,0,0,0,0.1c0,0,0,0,0,0.1c0,0,0,0,0,0c-0.1,0.1-0.1,0.2-0.2,0.3C11,26,10.8,26,10.8,26c-0.1,0-0.3-0.1-0.4-0.1
						c-0.1,0-0.1,0-0.2,0c0,0,0-0.1,0-0.4c0,0,0-0.1,0.1-0.1c0.2,0.2,0.3,0.5,0.5,0.5c0.1,0,0.2-0.1,0.2-0.2c0-0.4-0.8-0.4-0.8-1
						C10.1,24.5,10.3,24.2,10.6,24.2z"/>
					<path fill="#FFFFFF" d="M12.2,24.3c0.2,0,0.3,0.3,0.3,0.4c0,0.2-0.1,0.4-0.3,0.4c0,0-0.2,0-0.2-0.1c0-0.3,0-0.4,0-0.4
						C12,24.3,12,24.3,12.2,24.3z"/>
				</g>
			</g>
			<path fill="#009ADA" d="M16.9,41.2c-3.3-1.4-14.4-7-14.4-20v-1.4c0.8-0.2,2.7-0.8,3.4-1c0,0,1.2-0.5,3.2,0.3c0,0,3.3,1.4,6.8,1.7
				c0.1,0,0.1,0.6,0.1,0.7l-0.1,0c-0.1,0-0.1,0-0.2,0c-0.4-0.1-0.7-0.1-1.2-0.1c-0.7,0-0.8,0.1-1.7,0.2c-0.1,0-0.6,0.1-0.8,0.2
				c-0.5,0.2-1.1,0.3-1.6,0.3c-0.1,0-0.5-0.1-0.7-0.1c-0.2,0-0.4,0-0.4,0c-0.1,0-0.7,0.5-0.9,0.6c-0.1,0-0.4-0.1-0.4,0.1l0,7.2h7.5
				c0.1,0,0.5,0.7,0.5,0.7v3.3c0,0-0.1,0.3-0.1,0.4c0,0-0.2,0.4-0.3,0.5c-0.2,0.2-0.4,0.2-0.6,0.2c-1,0-3.3-1.5-4-2.3
				c0,0,0.5-0.5,0.5-0.6c0-0.2-0.5-0.4-0.6-0.4c-0.1,0-0.2-0.1-0.3-0.2c-0.2-0.1-0.5-0.3-0.8-0.5C9.7,31,9,30.4,8.7,30.4
				c-0.2,0-0.3,0.3-0.3,0.4l0,0.8c0,0,0.1,0.5,0.1,0.8c0.1,0.3,0.2,0.6,0.3,1c0,0,0.3,0.6,0.5,0.6c0,0,0.8-0.5,0.8-0.5
				c0.1,0,0.6,0.6,0.7,0.7c0.3,0.3,0.6,0.6,1,0.9c0.5,0.4,1.1,0.8,1.6,1.2c0.2,0.1,0.4,0.3,0.6,0.4c0.3,0.2,0.6,0.4,0.9,0.6
				c0.1,0.1,0.3,0.1,0.4,0.2c0.4,0.2,1,0.6,1.4,0.6h0.3c0.4,0,1-0.4,1.4-0.6c0.1-0.1,0.3-0.1,0.4-0.2c0.3-0.2,0.6-0.4,0.9-0.6
				c0.2-0.1,0.4-0.3,0.6-0.4c0.5-0.4,1.1-0.8,1.6-1.2c0.4-0.3,0.7-0.7,1-0.9c0.1-0.1,0.6-0.7,0.7-0.7c0,0,0.8,0.5,0.8,0.5
				c0.2,0,0.4-0.6,0.5-0.6c0.1-0.3,0.2-0.7,0.3-1c0.1-0.2,0.1-0.7,0.1-0.8v-0.8c0-0.1-0.1-0.3-0.3-0.3c-0.3,0-1,0.7-1.2,0.8
				c-0.3,0.2-0.5,0.3-0.8,0.5c-0.1,0.1-0.2,0.1-0.3,0.2c-0.1,0-0.6,0.2-0.6,0.4c0,0.1,0.5,0.6,0.5,0.6c-0.7,0.8-3,2.3-4,2.3
				c-0.2,0-0.4,0-0.6-0.2c-0.1-0.2-0.3-0.5-0.3-0.5c0,0-0.1-0.3-0.1-0.4v-3.3c0,0,0.4-0.7,0.5-0.7h7.5v-7.2c0-0.2-0.4-0.1-0.4-0.2
				c-0.2-0.1-0.7-0.6-0.9-0.6c-0.1,0-0.4,0-0.6,0.1c-0.2,0-0.4,0.1-0.7,0.1c-0.5-0.2-1.1,0-1.6-0.3c-0.1-0.1-0.6-0.2-0.7-0.2
				c-0.9-0.1-0.9-0.2-1.6-0.2c-0.4,0-0.8,0-1.2,0c-0.1,0-0.1,0-0.2,0l-0.1,0c0-0.1-0.1-0.6,0.1-0.6c3.5-0.3,6.8-1.7,6.8-1.7
				c2.1-0.8,3.2-0.3,3.2-0.3c0.8,0.2,2.7,0.8,3.3,1v1.3C31.3,34.2,20.2,39.9,16.9,41.2z"/>
			<path fill="#FFFFFF" d="M8.9,29.1l-0.1,0.2v-6.6l0.1-0.1V29.1z M9.4,22.3v6.2l-0.2,0.2v-6.3L9.4,22.3z M9.1,22.5v6.3L8.9,29v-6.4
				L9.1,22.5z"/>
			<path fill="#FFFFFF" d="M9.1,29.2c0,0,0.1,0,0.1,0c0.1,0,0.2,0.1,0.4,0.1c0.5,0.1,1.2,0.1,2.1,0l0.5-0.1l1-0.2
				c0,0,0.4-0.1,0.9-0.1c0.5,0,1.2,0,1.7,0.4l0,0c-0.5-0.3-1.1-0.4-1.6-0.3c-0.3,0-0.6,0.1-0.7,0.1c0.2,0,0.5-0.1,0.8-0.1
				c0.5,0,1.1,0.1,1.5,0.3l0,0c-0.4-0.3-1-0.3-1.5-0.3c-0.5,0-0.9,0.1-0.9,0.1l-1.1,0.2l-0.5,0.1c-1,0.1-1.7,0.1-2.1,0
				C9.5,29.4,9.3,29.3,9.1,29.2C9.2,29.3,9.1,29.3,9.1,29.2L9.1,29.2z M9.5,28.6C9.5,28.7,9.5,28.7,9.5,28.6c0.7,0.3,1.6,0.2,2.3,0
				l1.5-0.4c0,0,0.5-0.1,1.2-0.1c0.7,0,1.4,0.1,2,0.5l0,0c-0.5-0.4-1.3-0.5-1.9-0.5c-0.7,0-1.2,0.1-1.2,0.1l-1.5,0.4
				C11.1,28.9,10.2,29,9.5,28.6C9.5,28.7,9.5,28.7,9.5,28.6L9.5,28.6z M9.3,29c0.1,0,0.3,0.1,0.6,0.2c0.5,0.1,1.1,0.1,1.9-0.1
				l1.5-0.4c0,0,0.5-0.1,1.1-0.2c0.6,0,1.3,0.1,1.8,0.5l0,0c-0.5-0.4-1.2-0.5-1.8-0.5c-0.6,0-1.1,0.1-1.1,0.1l-1.5,0.4
				c-0.8,0.2-1.4,0.2-1.9,0.1C9.6,29.1,9.4,29,9.3,29L9.3,29z"/>
			<path fill="#FFFFFF" d="M24.6,29.3c-0.4,0.1-1.2,0.3-2.6,0.1l-0.5-0.1l-1.1-0.2c0,0-1.6-0.3-2.4,0.2l0,0c0.4-0.3,1-0.3,1.5-0.3
				c0.3,0,0.6,0,0.8,0.1c-0.4-0.1-1.5-0.3-2.4,0.2l0,0c0.5-0.3,1.1-0.4,1.6-0.3c0.5,0,0.9,0.1,0.9,0.1l1,0.2l0.5,0.1
				c1,0.1,1.7,0.1,2.1,0C24.4,29.3,24.5,29.3,24.6,29.3c0.1-0.1,0.2-0.1,0.2-0.1l0,0C24.8,29.2,24.8,29.3,24.6,29.3z M24.4,28.7
				c-0.2,0.1-1,0.4-2.4,0.1l-1.5-0.4c0,0-2-0.5-3.1,0.3l0,0c0.5-0.4,1.3-0.5,2-0.5c0.7,0,1.2,0.1,1.2,0.1l1.5,0.4
				c0.7,0.2,1.5,0.2,2.2,0C24.3,28.7,24.4,28.6,24.4,28.7L24.4,28.7z M24.7,29c-0.2,0.1-1.2,0.5-2.6,0.1l-1.5-0.4
				c0,0-1.8-0.5-2.8,0.3l0,0c0.5-0.4,1.2-0.5,1.8-0.5c0.6,0,1.1,0.2,1.1,0.2l1.5,0.4c0.8,0.2,1.4,0.2,1.9,0.1
				C24.3,29,24.6,29,24.7,29L24.7,29z"/>
		</g>
	</g>
</g>
</svg>
